<?xml version="1.0" encoding="UTF-8"?>
<svg width="245px" height="78px" viewBox="0 0 245 78" version="1.1" xmlns="http://www.w3.org/2000/svg" xmlns:xlink="http://www.w3.org/1999/xlink">
    <!-- Generator: Sketch 55.2 (78181) - https://sketchapp.com -->
    <title>Group 16 Copy 3</title>
    <desc>Created with Sketch.</desc>
    <defs>
        <polygon id="path-1" points="0.0006 0.365357143 34.7526 0.365357143 34.7526 76.8717929 0.0006 76.8717929"></polygon>
        <polygon id="path-3" points="0.0744 0.365357143 6.0744 0.365357143 6.0744 76.8712 0.0744 76.8712"></polygon>
        <polygon id="path-5" points="0.655 0.97275 35.41 0.97275 35.41 45 0.655 45"></polygon>
    </defs>
    <g id="Page-1" stroke="none" stroke-width="1" fill="none" fill-rule="evenodd">
        <g id="Group-2" transform="translate(-398.000000, -96.000000)">
            <g id="Group-16-Copy-3" transform="translate(398.000000, 96.000000)">
                <path d="M76.1440604,11.5406865 C79.7746152,8.19574527 88,8 88,8 C88,8 86.1760093,12.6287999 81.7844903,17.7354486 C77.3871624,22.8420973 68,21.9382147 68,21.9382147 C70.2073773,20.4298247 72.5076968,14.8856277 76.1440604,11.5406865" id="Fill-1" fill="#F7B721"></path>
                <g id="Group-5">
                    <mask id="mask-2" fill="white">
                        <use xlink:href="#path-1"></use>
                    </mask>
                    <g id="Clip-4"></g>
                    <path d="M34.7526,74.0320071 C34.7526,75.9232214 33.7626,76.8717929 31.7706,76.8717929 C29.9346,76.8717929 29.0226,75.9232214 29.0226,74.0320071 L29.0226,51.0232214 C29.0226,46.9502929 28.1346,43.80815 26.3766,41.6205071 C24.6246,39.4269357 21.7566,38.3360786 17.7786,38.3360786 C14.0346,38.3360786 11.0886,39.5632929 8.9466,42.0177214 C6.8046,44.47215 5.7366,47.4779357 5.7366,51.0232214 L5.7366,74.0320071 C5.7366,75.9232214 4.7406,76.8717929 2.7546,76.8717929 C0.9126,76.8717929 0.0006,75.9232214 0.0006,74.0320071 L0.0006,3.19743571 C0.0006,1.30622143 0.9126,0.363578571 2.7546,0.363578571 C4.7406,0.363578571 5.7366,1.30622143 5.7366,3.19743571 L5.7366,39.1245786 C7.1826,36.7057214 8.9646,34.9864357 11.0706,33.9667214 C13.1706,32.9470071 15.6366,32.43715 18.4686,32.43715 C23.9706,32.43715 28.0626,34.0260071 30.7386,37.1977929 C33.4146,40.3695786 34.7526,44.9820071 34.7526,51.0232214 L34.7526,74.0320071 Z" id="Fill-3" fill="#FEFEFE" mask="url(#mask-2)"></path>
                </g>
                <path d="M76.67568,37.9505466 C73.4896185,37.9505466 70.9050378,38.920354 68.9338484,40.8659552 C66.9567037,42.8115565 65.5572187,45.2001562 64.7175278,48.0257678 L88.627877,48.0257678 C87.6393047,44.8110359 86.0849831,42.3326393 83.9649123,40.5786049 C81.832931,38.8245705 79.4091421,37.9505466 76.67568,37.9505466 M76.67568,32 C80.5406406,32 83.9946886,33.1972931 87.0318687,35.6038522 C90.0690488,38.0104112 92.3082247,41.2730349 93.7493964,45.3857366 C93.9756961,46.0023425 94.2436826,46.8165018 94.5474006,47.8461739 C94.8511186,48.8758459 95,49.893545 95,50.8813118 C95,51.7254034 94.8153871,52.4497657 94.4342508,53.0543988 C94.0531144,53.6650182 93.3325286,53.970328 92.2724932,53.970328 L63.6932239,53.970328 L63.6932239,55.0059865 C63.6932239,60.4177512 64.9438275,64.6142634 67.4509899,67.5895367 C69.9581523,70.56481 73.0310639,72.0494534 76.67568,72.0494534 C81.7614679,72.0494534 86.6805086,70.0679334 88.5028167,66.0989068 C88.883953,65.2608017 89.3186866,64.6741281 89.8129728,64.3269131 C90.307259,63.9856845 90.8194109,63.812077 91.3494286,63.812077 C92.105746,63.812077 92.7489136,64.081468 93.2848865,64.6142634 C93.8149042,65.1470588 94.0828907,65.8355023 94.0828907,66.6736075 C94.0828907,67.7451848 93.6064703,68.8706403 92.6595847,70.049974 C91.7067439,71.2352941 90.8194109,72.2470068 89.9797199,73.0851119 C88.3896668,74.6116606 86.5852245,75.8089537 84.5723483,76.6889641 C82.5594721,77.562988 78.9505875,78 76.67568,78 C74.0196362,78 71.5720264,77.4372723 69.3328505,76.2878709 C67.0936746,75.144456 65.1224851,73.5400833 63.4073716,71.4867257 C61.7041687,69.4213951 60.3761468,67.0028631 59.4292612,64.2131702 C58.4764204,61.4294638 58,58.3584071 58,55.0059865 C58,52.4078605 58.4049573,49.7618428 59.1970063,47.049974 C59.9950105,44.3381052 61.1681957,41.8776679 62.7284726,39.6686622 C64.2827941,37.45367 66.2182521,35.6218116 68.5348463,34.1730869 C70.8454853,32.7243623 73.5610816,32 76.67568,32" id="Fill-6" fill="#FEFEFE"></path>
                <g id="Group-10" transform="translate(119.000000, 0.000000)">
                    <mask id="mask-4" fill="white">
                        <use xlink:href="#path-3"></use>
                    </mask>
                    <g id="Clip-9"></g>
                    <path d="M5.9424,73.8061286 C5.9424,75.8514857 5.0244,76.8712 3.1884,76.8712 C1.2024,76.8712 0.2064,75.8514857 0.2064,73.8061286 L0.2064,3.53477143 C0.2064,1.4242 1.2024,0.362985714 3.1884,0.362985714 C5.0244,0.362985714 5.9424,1.4242 5.9424,3.53477143 L5.9424,73.8061286 Z" id="Fill-8" fill="#FEFEFE" mask="url(#mask-4)"></path>
                </g>
                <path d="M180.364434,55.0029928 C180.364434,49.5859466 179.119298,45.3899805 176.640829,42.4091087 C174.156459,39.4342225 171.111483,37.9497723 167.5,37.9497723 C163.888517,37.9497723 160.843541,39.4342225 158.359171,42.4091087 C155.880702,45.3899805 154.641467,49.5859466 154.641467,55.0029928 C154.641467,60.4140534 155.880702,64.6100195 158.359171,67.5908913 C160.843541,70.5657775 163.888517,72.0502277 167.5,72.0502277 C171.111483,72.0502277 174.156459,70.5657775 176.640829,67.5908913 C179.119298,64.6100195 180.364434,60.4140534 180.364434,55.0029928 M149,55.0029928 C149,51.7228367 149.472089,48.6701366 150.410367,45.8508783 C151.348644,43.0256344 152.670494,40.5834743 154.358214,38.5243982 C156.051834,36.4593364 158.005104,34.8611581 160.223923,33.717892 C162.442743,32.5746259 164.868102,32 167.5,32 C170.055183,32 172.462839,32.5746259 174.722967,33.717892 C176.977193,34.8611581 178.954067,36.4593364 180.641786,38.5243982 C182.335407,40.5834743 183.651356,43.0256344 184.595534,45.8508783 C185.533812,48.6701366 186,51.7228367 186,55.0029928 C186,58.3609629 185.533812,61.4256344 184.595534,64.2089785 C183.651356,66.9983084 182.335407,69.4165257 180.641786,71.4815875 C178.954067,73.5406636 176.977193,75.1388419 174.722967,76.2880937 C172.462839,77.4313598 170.055183,78 167.5,78 C164.868102,78 162.442743,77.4313598 160.223923,76.2880937 C158.005104,75.1388419 156.051834,73.5406636 154.358214,71.4815875 C152.670494,69.4165257 151.348644,66.9983084 150.410367,64.2089785 C149.472089,61.4256344 149,58.3609629 149,55.0029928" id="Fill-11" fill="#FEFEFE"></path>
                <g id="Group-15" transform="translate(209.000000, 32.000000)">
                    <mask id="mask-6" fill="white">
                        <use xlink:href="#path-5"></use>
                    </mask>
                    <g id="Clip-14"></g>
                    <path d="M0.655,3.781 C0.655,1.91275 1.651,0.97275 3.637,0.97275 C5.473,0.97275 6.391,1.91275 6.391,3.781 L6.391,26.581875 C6.391,30.623875 7.273,33.73175 9.031,35.9055 C10.783,38.073375 13.657,39.154375 17.629,39.154375 C21.379,39.154375 24.319,37.93825 26.467,35.506 C28.603,33.07375 29.677,30.101 29.677,26.581875 L29.677,3.781 C29.677,1.91275 30.667,0.97275 32.659,0.97275 C34.495,0.97275 35.413,1.91275 35.413,3.781 L35.413,41.069625 C35.413,42.94375 34.495,43.877875 32.659,43.877875 C30.667,43.877875 29.677,42.94375 29.677,41.069625 L29.677,38.373 C28.225,40.77 26.443,42.47375 24.343,43.48425 C22.237,44.49475 19.777,45 16.945,45 C11.437,45 7.345,43.4255 4.669,40.282375 C1.993,37.13925 0.655,32.5685 0.655,26.581875 L0.655,3.781 Z" id="Fill-13" fill="#FEFEFE" mask="url(#mask-6)"></path>
                </g>
            </g>
        </g>
    </g>
</svg>