<?xml version="1.0" encoding="utf-8"?>
<!-- Generator: Adobe Illustrator 22.0.1, SVG Export Plug-In . SVG Version: 6.00 Build 0)  -->
<svg version="1.1" id="Calque_1" xmlns="http://www.w3.org/2000/svg" xmlns:xlink="http://www.w3.org/1999/xlink" x="0px" y="0px"
	 viewBox="0 0 801.2 264.8" style="enable-background:new 0 0 801.2 264.8;" xml:space="preserve">
<style type="text/css">
	.st0{fill:#0F7F7B;}
	.st1{fill:#F8B825;}
	.st2{fill:#444342;}
	.st3{fill:none;stroke:#4C963A;stroke-miterlimit:10;}
	.st4{fill:none;stroke:#F8B825;stroke-miterlimit:10;}
	.st5{opacity:0.1;fill:#0F7F7B;enable-background:new    ;}
	.st6{fill:#117F7B;}
</style>
<g>
	<g>
		<path class="st0" d="M43,39.8c0-4.3,2.1-6.3,5.6-6.3c1.7,0,3.2,0.7,4.1,1.9c0.1,0.1,0.1,0.3,0.1,0.4c0,0.3-0.3,0.6-0.6,0.6
			c-0.2,0-0.3-0.1-0.5-0.2c-0.6-0.8-1.8-1.5-3.1-1.5c-2.8,0-4.4,1.7-4.4,5.2c0,3.7,1.6,5.2,4.4,5.2c1.2,0,2.4-0.5,3.1-1.5
			c0.1-0.2,0.3-0.2,0.5-0.2c0.3,0,0.6,0.3,0.6,0.6c0,0.1,0,0.2-0.1,0.3c-0.8,1.2-2.4,1.9-4.1,1.9C45.1,46.1,43,44.2,43,39.8z"/>
		<path class="st0" d="M57.8,42.2l-1.3,3.3c-0.1,0.2-0.3,0.4-0.6,0.4s-0.6-0.3-0.6-0.6c0-0.1,0-0.2,0.1-0.3l4.4-11
			c0.1-0.2,0.3-0.4,0.6-0.4s0.5,0.2,0.6,0.4l4.4,11.1c0,0.1,0.1,0.2,0.1,0.3c0,0.3-0.3,0.6-0.6,0.6c-0.3,0-0.5-0.2-0.6-0.4L63,42.3
			L57.8,42.2L57.8,42.2z M60.3,35.6l-2.1,5.5h4.3L60.3,35.6z"/>
		<path class="st0" d="M77.1,34.1v11.2c0,0.3-0.3,0.6-0.6,0.6c-0.2,0-0.4-0.1-0.5-0.3L69.7,36v9.2c0,0.3-0.3,0.6-0.6,0.6
			s-0.6-0.3-0.6-0.6V34.1c0-0.3,0.3-0.6,0.6-0.6c0.2,0,0.4,0.1,0.5,0.3l6.4,9.6v-9.2c0-0.3,0.3-0.6,0.6-0.6
			C76.8,33.6,77.1,33.8,77.1,34.1z"/>
		<path class="st0" d="M89.5,34.1v11.2c0,0.3-0.3,0.6-0.6,0.6c-0.2,0-0.4-0.1-0.5-0.3L82.1,36v9.2c0,0.3-0.3,0.6-0.6,0.6
			s-0.6-0.3-0.6-0.6V34.1c0-0.3,0.3-0.6,0.6-0.6c0.2,0,0.4,0.1,0.5,0.3l6.4,9.6v-9.2c0-0.3,0.3-0.6,0.6-0.6
			C89.2,33.6,89.5,33.8,89.5,34.1z"/>
		<path class="st0" d="M94.1,45.8c-0.3,0-0.6-0.3-0.6-0.6V34.3c0-0.3,0.3-0.6,0.6-0.6h5.8c0.3,0,0.6,0.3,0.6,0.6s-0.3,0.6-0.6,0.6
			h-5.2v4.3h4c0.3,0,0.6,0.3,0.6,0.6s-0.3,0.6-0.6,0.6h-4v4.4h5.4c0.3,0,0.6,0.3,0.6,0.6s-0.3,0.6-0.6,0.6h-6V45.8z"/>
		<path class="st0" d="M110.3,44.7c0.3,0,0.6,0.3,0.6,0.6s-0.3,0.6-0.6,0.6h-5.5c-0.3,0-0.6-0.3-0.6-0.6v-11c0-0.3,0.3-0.6,0.6-0.6
			c0.3,0,0.6,0.3,0.6,0.6v10.5L110.3,44.7L110.3,44.7z"/>
		<path class="st0" d="M120.3,44.7c0.3,0,0.6,0.3,0.6,0.6s-0.3,0.6-0.6,0.6h-5.5c-0.3,0-0.6-0.3-0.6-0.6v-11c0-0.3,0.3-0.6,0.6-0.6
			c0.3,0,0.6,0.3,0.6,0.6v10.5L120.3,44.7L120.3,44.7z"/>
		<path class="st0" d="M124.7,45.8c-0.3,0-0.6-0.3-0.6-0.6V34.3c0-0.3,0.3-0.6,0.6-0.6h5.8c0.3,0,0.6,0.3,0.6,0.6s-0.3,0.6-0.6,0.6
			h-5.2v4.3h4c0.3,0,0.6,0.3,0.6,0.6s-0.3,0.6-0.6,0.6h-4v4.4h5.4c0.3,0,0.6,0.3,0.6,0.6S131,46,130.7,46h-6V45.8z"/>
	</g>
	<g>
		<path class="st1" d="M149.4,37c-0.2,0.1-0.4,0.2-0.6,0.2c-0.5,0-1-0.5-1-1c0-0.4,0.2-0.7,0.4-0.8l2.6-1.7c0.2-0.1,0.4-0.2,0.6-0.2
			c0.6,0,1,0.5,1,1v10.4c0,0.6-0.5,1-1,1s-1-0.5-1-1v-8.6L149.4,37z"/>
		<path class="st1" d="M165,39.7c0,4.3-1.5,6.3-4.7,6.3s-4.7-2-4.7-6.3s1.5-6.3,4.7-6.3S165,35.4,165,39.7z M162.9,39.7
			c0-3.1-0.8-4.5-2.6-4.5s-2.7,1.4-2.7,4.5c0,3.2,0.8,4.5,2.7,4.5S162.9,42.9,162.9,39.7z"/>
		<path class="st1" d="M169.8,41.8c0.4,1.7,1.5,2.4,3.3,2.4c1.3,0,2-0.3,2.9-1.2c0.3-0.3,0.5-0.4,0.8-0.4c0.5,0,1,0.4,1,1
			c0,0.2-0.1,0.4-0.2,0.5c-0.9,1.2-2.5,1.9-4.5,1.9c-3,0-4.9-1.3-5.5-4.3h-0.3c-0.4,0-0.8-0.3-0.8-0.8s0.3-0.8,0.8-0.8h0.1v-0.8
			h-0.1c-0.4,0-0.8-0.3-0.8-0.8c0-0.4,0.3-0.8,0.8-0.8h0.3c0.5-3,2.4-4.5,5.5-4.5c2.2,0,3.6,0.9,4.3,1.9c0.1,0.2,0.2,0.4,0.2,0.6
			c0,0.5-0.4,1-1,1c-0.3,0-0.5-0.1-0.7-0.4c-0.7-0.8-1.5-1.3-2.8-1.3c-1.8,0-2.9,0.9-3.3,2.6h2.2c0.4,0,0.8,0.3,0.8,0.8
			c0,0.4-0.3,0.8-0.8,0.8h-2.4V40h2.4c0.4,0,0.8,0.3,0.8,0.8s-0.3,0.8-0.8,0.8h-2.2V41.8z"/>
	</g>
	<g>
		<path class="st2" d="M63.8,71.6c2,0,2.5,1.2,2.5,2.6c0,1.6-0.9,2.5-2.8,2.5c-1.3,0-2.1-0.6-2.6-1.4c0-0.1-0.1-0.1-0.1-0.2
			c0-0.2,0.2-0.4,0.4-0.4c0.1,0,0.2,0,0.3,0.2c0.4,0.6,1,1,2,1c1.3,0,2-0.6,2-1.8c0-1.1-0.4-1.9-1.8-1.9h-0.8
			c-0.2,0-0.4-0.2-0.4-0.4c0-0.1,0-0.2,0.1-0.3l2.2-2.6h-3.1c-0.2,0-0.4-0.2-0.4-0.4c0-0.2,0.2-0.4,0.4-0.4h3.9
			c0.2,0,0.4,0.2,0.4,0.4c0,0.1,0,0.2-0.1,0.3l-2.2,2.6h0.1V71.6z"/>
		<path class="st2" d="M72.4,73v3.2c0,0.2-0.2,0.4-0.4,0.4s-0.4-0.2-0.4-0.4v-3c0-0.9-0.3-1.6-1.4-1.6c-1.2,0-1.6,0.7-1.6,1.7v3
			c0,0.2-0.2,0.4-0.4,0.4s-0.4-0.2-0.4-0.4v-7.9c0-0.2,0.2-0.4,0.4-0.4s0.4,0.2,0.4,0.4v3.4c0.2-0.5,0.8-0.8,1.6-0.8
			C72,70.9,72.4,72,72.4,73z"/>
		<path class="st2" d="M80.3,71.7v-3.3c0-0.2,0.2-0.4,0.4-0.4s0.4,0.2,0.4,0.4v5.9c0,1.6-1,2.4-2.4,2.4c-1.5,0-2.5-0.9-2.5-2.9
			s0.9-2.9,2.4-2.9C79.5,70.9,80.1,71.3,80.3,71.7z M80.3,72.6c0,0-0.5-1.1-1.6-1.1S77,72.2,77,73.7s0.6,2.2,1.7,2.2
			c0.9,0,1.6-0.5,1.6-1.7V72.6z"/>
		<path class="st2" d="M84.8,70.9c1.9,0,2.3,1.5,2.3,2.3c0,0.3,0,0.8-0.5,0.8h-3.5c0,1.2,0.7,2,1.8,2c0.7,0,1.1-0.3,1.4-0.5
			c0.1,0,0.1-0.1,0.2-0.1c0.2,0,0.3,0.2,0.3,0.3c0,0.1-0.1,0.2-0.1,0.3c-0.2,0.2-0.8,0.7-1.9,0.7c-1.6,0-2.6-0.9-2.6-2.9
			C82.3,71.9,83.2,70.9,84.8,70.9z M84.8,71.6c-1,0-1.6,0.7-1.7,1.7h3.2C86.3,72.5,86,71.6,84.8,71.6z"/>
		<path class="st2" d="M93.2,70.9c1.1,0,1.7,0.6,1.8,0.8c0.1,0.1,0.1,0.1,0.1,0.2c0,0.2-0.2,0.3-0.3,0.3c-0.1,0-0.2,0-0.3-0.1
			c-0.2-0.2-0.5-0.6-1.3-0.6c-1.1,0-1.7,0.7-1.7,2.2s0.6,2.2,1.7,2.2c0.7,0,1.1-0.3,1.4-0.5c0.1-0.1,0.1-0.1,0.2-0.1
			c0.2,0,0.3,0.2,0.3,0.3c0,0.1,0,0.2-0.2,0.3c-0.3,0.2-0.8,0.6-1.8,0.6c-1.5,0-2.5-0.9-2.5-2.9S91.7,70.9,93.2,70.9z"/>
		<path class="st2" d="M101.1,73.8c0,2-1,2.9-2.5,2.9s-2.5-0.9-2.5-2.9s1-2.9,2.5-2.9S101.1,71.8,101.1,73.8z M100.3,73.8
			c0-1.5-0.6-2.2-1.7-2.2s-1.7,0.7-1.7,2.2s0.6,2.2,1.7,2.2S100.3,75.3,100.3,73.8z"/>
		<path class="st2" d="M104.9,73.8h-2.4c-0.2,0-0.3-0.1-0.3-0.3c0-0.2,0.1-0.3,0.3-0.3h2.4c0.2,0,0.3,0.1,0.3,0.3
			C105.2,73.7,105.1,73.8,104.9,73.8z"/>
		<path class="st2" d="M109.7,72.5l-1.1,3.8c0,0.2-0.2,0.3-0.4,0.3s-0.3-0.1-0.4-0.3l-1.8-4.8c0-0.1,0-0.1,0-0.2
			c0-0.2,0.2-0.4,0.4-0.4c0.2,0,0.3,0.1,0.4,0.3l1.4,4l1.1-4c0-0.1,0.2-0.3,0.4-0.3s0.3,0.1,0.4,0.3l1.1,4l1.4-4
			c0.1-0.2,0.2-0.3,0.4-0.3c0.2,0,0.4,0.2,0.4,0.4c0,0,0,0.1,0,0.2l-1.8,4.8c-0.1,0.2-0.2,0.3-0.4,0.3s-0.3-0.1-0.4-0.3L109.7,72.5z
			"/>
		<path class="st2" d="M119,73.8c0,2-1,2.9-2.5,2.9s-2.5-0.9-2.5-2.9s1-2.9,2.5-2.9C118.1,70.9,119,71.8,119,73.8z M118.2,73.8
			c0-1.5-0.6-2.2-1.7-2.2s-1.7,0.7-1.7,2.2s0.6,2.2,1.7,2.2S118.2,75.3,118.2,73.8z"/>
		<path class="st2" d="M121,71.9c0.2-0.6,0.8-1,1.7-1c0.2,0,0.4,0.2,0.4,0.4c0,0.2-0.2,0.4-0.4,0.4c-1.1,0-1.7,0.8-1.7,1.9v2.7
			c0,0.2-0.2,0.4-0.4,0.4c-0.2,0-0.4-0.2-0.4-0.4v-4.9c0-0.2,0.2-0.4,0.4-0.4c0.2,0,0.4,0.2,0.4,0.4V71.9z"/>
		<path class="st2" d="M127.5,76.4l-2.1-2.7l-0.7,0.6v1.9c0,0.2-0.2,0.4-0.4,0.4s-0.4-0.2-0.4-0.4v-7.9c0-0.2,0.2-0.4,0.4-0.4
			s0.4,0.2,0.4,0.4v5l2.8-2.3c0.1-0.1,0.2-0.1,0.3-0.1c0.2,0,0.4,0.2,0.4,0.4c0,0.1,0,0.2-0.2,0.3l-2,1.6l2.1,2.7
			c0.1,0.1,0.1,0.2,0.1,0.2c0,0.2-0.2,0.4-0.4,0.4C127.7,76.6,127.6,76.5,127.5,76.4z"/>
		<path class="st2" d="M129.3,69.4c0-0.3,0.2-0.5,0.5-0.5s0.5,0.1,0.5,0.5c0,0.3-0.2,0.5-0.5,0.5C129.4,69.8,129.3,69.7,129.3,69.4z
			 M130.1,76.2c0,0.2-0.2,0.4-0.4,0.4s-0.4-0.2-0.4-0.4v-4.9c0-0.2,0.2-0.4,0.4-0.4s0.4,0.2,0.4,0.4V76.2z"/>
		<path class="st2" d="M136.2,73v3.2c0,0.2-0.2,0.4-0.4,0.4s-0.4-0.2-0.4-0.4v-3c0-0.9-0.3-1.6-1.4-1.6c-1.2,0-1.6,0.7-1.6,1.7v3
			c0,0.2-0.2,0.4-0.4,0.4s-0.4-0.2-0.4-0.4v-4.9c0-0.2,0.2-0.4,0.4-0.4s0.4,0.2,0.4,0.4v0.4c0.2-0.5,0.8-0.8,1.6-0.8
			C135.9,70.9,136.2,72,136.2,73z"/>
		<path class="st2" d="M140.9,71.2c0.2-0.4,0.5-0.6,1.1-0.6c0.2,0,0.3,0.2,0.3,0.3s-0.2,0.3-0.3,0.3c-0.4,0-0.5,0.2-0.6,0.4
			c0.3,0.3,0.4,0.8,0.4,1.3c0,1.2-0.8,2-2.2,2c-0.5,0-1-0.1-1.3-0.3c-0.1,0.1-0.2,0.2-0.2,0.4c0,0.3,0.2,0.5,0.9,0.5h1.2
			c1.2,0,2.1,0.5,2.1,1.6c0,1.2-1.1,1.7-2.6,1.7c-1.2,0-2.6-0.4-2.6-1.7c0-0.6,0.3-1,0.9-1.2c-0.4-0.1-0.7-0.5-0.7-1
			c0-0.4,0.2-0.6,0.5-0.8c-0.3-0.4-0.4-0.8-0.4-1.3c0-1.2,0.8-2,2.2-2C140.1,70.9,140.6,71,140.9,71.2z M140.3,76.3H139
			c-0.7,0.1-1,0.5-1,1c0,0.7,0.8,1,1.8,1c0.9,0,1.8-0.3,1.8-1.1C141.6,76.5,141,76.3,140.3,76.3z M141.1,72.9c0-0.8-0.5-1.3-1.4-1.3
			s-1.4,0.5-1.4,1.3s0.5,1.3,1.4,1.3C140.6,74.2,141.1,73.7,141.1,72.9z"/>
		<path class="st2" d="M61.6,99.4c-0.1,0-0.1,0.1-0.2,0.1c-0.2,0-0.4-0.2-0.4-0.4c0-0.1,0.1-0.3,0.2-0.3l1.9-1.3
			c0.1-0.1,0.2-0.1,0.2-0.1c0.2,0,0.4,0.2,0.4,0.4v7.5c0,0.2-0.2,0.4-0.4,0.4s-0.4-0.2-0.4-0.4v-6.8L61.6,99.4z"/>
		<path class="st2" d="M73.2,102.8c0,2-0.9,2.9-2.5,2.9c-1.4,0-2.4-0.8-2.4-2.4v-5.9c0-0.2,0.2-0.4,0.4-0.4c0.2,0,0.4,0.2,0.4,0.4
			v3.3c0.3-0.4,0.9-0.8,1.6-0.8C72.3,99.9,73.2,100.8,73.2,102.8z M69.1,103.3c0,1.1,0.7,1.7,1.6,1.7c1.1,0,1.7-0.7,1.7-2.2
			s-0.6-2.2-1.7-2.2s-1.6,1.1-1.6,1.1V103.3z"/>
		<path class="st2" d="M79,102.8c0,2-1,2.9-2.5,2.9s-2.5-0.9-2.5-2.9s1-2.9,2.5-2.9C78.1,99.9,79,100.8,79,102.8z M78.3,102.8
			c0-1.5-0.6-2.2-1.7-2.2s-1.7,0.7-1.7,2.2s0.6,2.2,1.7,2.2S78.3,104.3,78.3,102.8z"/>
		<path class="st2" d="M80.2,98.4c0-0.3,0.2-0.5,0.5-0.5s0.5,0.1,0.5,0.5c0,0.3-0.2,0.5-0.5,0.5C80.3,98.8,80.2,98.7,80.2,98.4z
			 M81,105.2c0,0.2-0.2,0.4-0.4,0.4s-0.4-0.2-0.4-0.4v-4.9c0-0.2,0.2-0.4,0.4-0.4s0.4,0.2,0.4,0.4V105.2z"/>
		<path class="st2" d="M83.2,101.4c0,1.3,3.2,0.8,3.2,2.7c0,1.1-0.9,1.6-2,1.6c-1,0-1.7-0.5-2.1-0.9c-0.1-0.1-0.1-0.1-0.1-0.2
			c0-0.2,0.2-0.3,0.3-0.3c0.1,0,0.2,0,0.3,0.1c0.4,0.4,0.9,0.6,1.5,0.6c0.7,0,1.3-0.2,1.3-0.9c0-1.2-3.2-0.7-3.2-2.7
			c0-1,0.8-1.5,1.8-1.5c0.8,0,1.5,0.3,1.8,0.8c0,0,0.1,0.1,0.1,0.2c0,0.2-0.2,0.3-0.3,0.3c-0.1,0-0.2,0-0.3-0.1
			c-0.3-0.3-0.7-0.5-1.3-0.5C83.7,100.6,83.2,100.8,83.2,101.4z"/>
		<path class="st2" d="M88.3,101.4c0,1.3,3.2,0.8,3.2,2.7c0,1.1-0.9,1.6-2,1.6c-1,0-1.7-0.5-2.1-0.9c-0.1-0.1-0.1-0.1-0.1-0.2
			c0-0.2,0.2-0.3,0.3-0.3c0.1,0,0.2,0,0.3,0.1c0.4,0.4,0.9,0.6,1.5,0.6c0.7,0,1.3-0.2,1.3-0.9c0-1.2-3.2-0.7-3.2-2.7
			c0-1,0.8-1.5,1.8-1.5c0.8,0,1.5,0.3,1.8,0.8c0,0,0.1,0.1,0.1,0.2c0,0.2-0.2,0.3-0.3,0.3c-0.1,0-0.2,0-0.3-0.1
			c-0.3-0.3-0.7-0.5-1.3-0.5C88.8,100.6,88.3,100.8,88.3,101.4z"/>
		<path class="st2" d="M97.4,102.8c0,2-1,2.9-2.5,2.9s-2.5-0.9-2.5-2.9s1-2.9,2.5-2.9C96.5,99.9,97.4,100.8,97.4,102.8z M96.6,102.8
			c0-1.5-0.6-2.2-1.7-2.2s-1.7,0.7-1.7,2.2s0.6,2.2,1.7,2.2S96.6,104.3,96.6,102.8z"/>
		<path class="st2" d="M103.2,102v3.2c0,0.2-0.2,0.4-0.4,0.4s-0.4-0.2-0.4-0.4v-3c0-0.9-0.3-1.6-1.4-1.6c-1.2,0-1.6,0.7-1.6,1.7v3
			c0,0.2-0.2,0.4-0.4,0.4c-0.2,0-0.4-0.2-0.4-0.4v-4.9c0-0.2,0.2-0.4,0.4-0.4c0.2,0,0.4,0.2,0.4,0.4v0.4c0.2-0.5,0.8-0.8,1.6-0.8
			C102.8,99.9,103.2,101,103.2,102z"/>
		<path class="st2" d="M109.6,99.9c1.1,0,1.7,0.6,1.8,0.8c0.1,0.1,0.1,0.1,0.1,0.2c0,0.2-0.2,0.3-0.3,0.3c-0.1,0-0.2,0-0.3-0.1
			c-0.2-0.2-0.5-0.6-1.3-0.6c-1.1,0-1.7,0.7-1.7,2.2s0.6,2.2,1.7,2.2c0.7,0,1.1-0.3,1.4-0.5c0.1-0.1,0.1-0.1,0.2-0.1
			c0.2,0,0.3,0.2,0.3,0.3c0,0.1,0,0.2-0.2,0.3c-0.3,0.2-0.8,0.6-1.8,0.6c-1.5,0-2.5-0.9-2.5-2.9S108,99.9,109.6,99.9z"/>
		<path class="st2" d="M117.3,102v3.2c0,0.2-0.2,0.4-0.4,0.4s-0.4-0.2-0.4-0.4v-3c0-0.9-0.3-1.6-1.4-1.6c-1.2,0-1.6,0.7-1.6,1.7v3
			c0,0.2-0.2,0.4-0.4,0.4s-0.4-0.2-0.4-0.4v-7.9c0-0.2,0.2-0.4,0.4-0.4s0.4,0.2,0.4,0.4v3.4c0.2-0.5,0.8-0.8,1.6-0.8
			C117,99.9,117.3,101,117.3,102z"/>
		<path class="st2" d="M119.4,101.2c-0.1,0.1-0.2,0.2-0.3,0.2c-0.2,0-0.3-0.2-0.3-0.3c0-0.1,0-0.1,0.1-0.2c0.3-0.5,1-0.9,2-0.9
			c1.4,0,2.2,0.8,2.2,2v3.3c0,0.2-0.2,0.4-0.4,0.4s-0.4-0.2-0.4-0.4v-0.4c-0.3,0.6-1,0.9-1.7,0.9c-1.3,0-2.1-0.6-2.1-1.7
			s0.8-1.7,2.1-1.7h1.7v-0.3c0-0.8-0.5-1.3-1.4-1.3C120.2,100.6,119.8,100.8,119.4,101.2z M122.2,103.4v-0.5h-1.7
			c-0.8,0-1.3,0.3-1.3,1c0,0.6,0.4,1,1.4,1C121.4,105,122.2,104.4,122.2,103.4z"/>
		<path class="st2" d="M125,100.3v3.1c0,0.8,0.3,1.5,1.5,1.5s1.5-0.7,1.5-1.5v-3.1c0-0.2,0.2-0.4,0.4-0.4s0.4,0.2,0.4,0.4v3.1
			c0,1.1-0.4,2.2-2.2,2.2s-2.2-1-2.2-2.2v-3.1c0-0.2,0.2-0.4,0.4-0.4C124.9,100,125,100.1,125,100.3z"/>
		<path class="st2" d="M133.9,100.7v-3.3c0-0.2,0.2-0.4,0.4-0.4s0.4,0.2,0.4,0.4v5.9c0,1.6-1,2.4-2.4,2.4c-1.5,0-2.5-0.9-2.5-2.9
			s0.9-2.9,2.4-2.9C133,99.9,133.6,100.3,133.9,100.7z M133.9,101.6c0,0-0.5-1.1-1.6-1.1s-1.7,0.7-1.7,2.2s0.6,2.2,1.7,2.2
			c0.9,0,1.6-0.5,1.6-1.7V101.6z"/>
		<path class="st2" d="M138.3,99.9c1.9,0,2.3,1.5,2.3,2.3c0,0.3,0,0.8-0.5,0.8h-3.5c0,1.2,0.7,2,1.8,2c0.7,0,1.1-0.3,1.4-0.5
			c0.1,0,0.1-0.1,0.2-0.1c0.2,0,0.3,0.2,0.3,0.3c0,0.1-0.1,0.2-0.1,0.3c-0.2,0.2-0.8,0.7-1.9,0.7c-1.6,0-2.6-0.9-2.6-2.9
			C135.8,100.9,136.7,99.9,138.3,99.9z M138.3,100.6c-1,0-1.6,0.7-1.7,1.7h3.2C139.8,101.5,139.5,100.6,138.3,100.6z"/>
		<path class="st2" d="M149.3,102.8c0,2-1,2.9-2.5,2.9s-2.5-0.9-2.5-2.9s1-2.9,2.5-2.9C148.4,99.9,149.3,100.8,149.3,102.8z
			 M148.5,102.8c0-1.5-0.6-2.2-1.7-2.2s-1.7,0.7-1.7,2.2s0.6,2.2,1.7,2.2S148.5,104.3,148.5,102.8z"/>
		<path class="st2" d="M151.2,100.3v3.1c0,0.8,0.3,1.5,1.5,1.5s1.5-0.7,1.5-1.5v-3.1c0-0.2,0.2-0.4,0.4-0.4s0.4,0.2,0.4,0.4v3.1
			c0,1.1-0.4,2.2-2.2,2.2s-2.2-1-2.2-2.2v-3.1c0-0.2,0.2-0.4,0.4-0.4C151,100,151.2,100.1,151.2,100.3z"/>
		<path class="st2" d="M61.9,114.3v3.1c0,0.8,0.3,1.5,1.5,1.5c1.2,0,1.5-0.7,1.5-1.5v-3.1c0-0.2,0.2-0.4,0.4-0.4
			c0.2,0,0.4,0.2,0.4,0.4v3.1c0,1.1-0.4,2.2-2.2,2.2s-2.2-1-2.2-2.2v-3.1c0-0.2,0.2-0.4,0.4-0.4C61.8,114,61.9,114.1,61.9,114.3z"/>
		<path class="st2" d="M71.6,116v3.2c0,0.2-0.2,0.4-0.4,0.4s-0.4-0.2-0.4-0.4v-3c0-0.9-0.3-1.6-1.4-1.6c-1.2,0-1.6,0.7-1.6,1.7v3
			c0,0.2-0.2,0.4-0.4,0.4s-0.4-0.2-0.4-0.4v-4.9c0-0.2,0.2-0.4,0.4-0.4s0.4,0.2,0.4,0.4v0.4c0.2-0.5,0.8-0.8,1.6-0.8
			C71.3,113.9,71.6,115,71.6,116z"/>
		<path class="st2" d="M75.9,114.3c0-0.2,0.2-0.4,0.4-0.4c0.2,0,0.4,0.2,0.4,0.4v5.6c0,1-0.7,1.8-1.8,1.8c-0.2,0-0.4-0.2-0.4-0.4
			c0-0.2,0.2-0.4,0.4-0.4c0.6,0,1-0.5,1-1.1V114.3z M75.9,112.4c0-0.3,0.2-0.5,0.5-0.5s0.5,0.1,0.5,0.5c0,0.3-0.2,0.5-0.5,0.5
			C76,112.8,75.9,112.7,75.9,112.4z"/>
		<path class="st2" d="M78.9,114.3v3.1c0,0.8,0.3,1.5,1.5,1.5s1.5-0.7,1.5-1.5v-3.1c0-0.2,0.2-0.4,0.4-0.4c0.2,0,0.4,0.2,0.4,0.4
			v3.1c0,1.1-0.4,2.2-2.2,2.2c-1.8,0-2.2-1-2.2-2.2v-3.1c0-0.2,0.2-0.4,0.4-0.4C78.7,114,78.9,114.1,78.9,114.3z"/>
		<path class="st2" d="M84.7,115.4c0,1.3,3.2,0.8,3.2,2.7c0,1.1-0.9,1.6-2,1.6c-1,0-1.7-0.5-2.1-0.9c-0.1-0.1-0.1-0.1-0.1-0.2
			c0-0.2,0.2-0.3,0.3-0.3c0.1,0,0.2,0,0.3,0.1c0.4,0.4,0.9,0.6,1.5,0.6c0.7,0,1.3-0.2,1.3-0.9c0-1.2-3.2-0.7-3.2-2.7
			c0-1,0.8-1.5,1.8-1.5c0.8,0,1.5,0.3,1.8,0.8c0,0,0.1,0.1,0.1,0.2c0,0.2-0.2,0.3-0.3,0.3c-0.1,0-0.2,0-0.3-0.1
			c-0.3-0.3-0.7-0.5-1.3-0.5C85.2,114.6,84.7,114.8,84.7,115.4z"/>
		<path class="st2" d="M95.7,114.7v-3.3c0-0.2,0.2-0.4,0.4-0.4s0.4,0.2,0.4,0.4v5.9c0,1.6-1,2.4-2.4,2.4c-1.5,0-2.5-0.9-2.5-2.9
			s0.9-2.9,2.4-2.9C94.8,113.9,95.4,114.3,95.7,114.7z M95.7,115.6c0,0-0.5-1.1-1.6-1.1s-1.7,0.7-1.7,2.2s0.6,2.2,1.7,2.2
			c0.9,0,1.6-0.5,1.6-1.7V115.6z"/>
		<path class="st2" d="M100.1,113.9c1.9,0,2.3,1.5,2.3,2.3c0,0.3,0,0.8-0.5,0.8h-3.5c0,1.2,0.7,2,1.8,2c0.7,0,1.1-0.3,1.4-0.5
			c0.1,0,0.1-0.1,0.2-0.1c0.2,0,0.3,0.2,0.3,0.3c0,0.1-0.1,0.2-0.1,0.3c-0.2,0.2-0.8,0.7-1.9,0.7c-1.6,0-2.6-0.9-2.6-2.9
			C97.6,114.9,98.6,113.9,100.1,113.9z M100.1,114.6c-1,0-1.6,0.7-1.7,1.7h3.2C101.6,115.5,101.3,114.6,100.1,114.6z"/>
		<path class="st2" d="M106.3,114.8c-0.2,0-0.4-0.2-0.4-0.4c0-0.2,0.2-0.4,0.4-0.4h0.4v-0.7c0-1.1,0.6-2.1,2.1-2.1
			c0.2,0,0.4,0.2,0.4,0.4c0,0.2-0.2,0.4-0.4,0.4c-0.9,0-1.3,0.6-1.3,1.3v0.7h1.1c0.2,0,0.4,0.2,0.4,0.4c0,0.2-0.2,0.4-0.4,0.4h-1.1
			v4.4c0,0.2-0.2,0.4-0.4,0.4s-0.4-0.2-0.4-0.4v-4.4C106.7,114.8,106.3,114.8,106.3,114.8z"/>
		<path class="st2" d="M110.7,114.9c0.2-0.6,0.8-1,1.7-1c0.2,0,0.4,0.2,0.4,0.4c0,0.2-0.2,0.4-0.4,0.4c-1.1,0-1.7,0.8-1.7,1.9v2.7
			c0,0.2-0.2,0.4-0.4,0.4s-0.4-0.2-0.4-0.4v-4.9c0-0.2,0.2-0.4,0.4-0.4s0.4,0.2,0.4,0.4V114.9z"/>
		<path class="st2" d="M114.3,114.3v3.1c0,0.8,0.3,1.5,1.5,1.5s1.5-0.7,1.5-1.5v-3.1c0-0.2,0.2-0.4,0.4-0.4c0.2,0,0.4,0.2,0.4,0.4
			v3.1c0,1.1-0.4,2.2-2.2,2.2c-1.8,0-2.2-1-2.2-2.2v-3.1c0-0.2,0.2-0.4,0.4-0.4C114.1,114,114.3,114.1,114.3,114.3z"/>
		<path class="st2" d="M119.3,112.4c0-0.3,0.2-0.5,0.5-0.5s0.5,0.1,0.5,0.5c0,0.3-0.2,0.5-0.5,0.5
			C119.5,112.8,119.3,112.7,119.3,112.4z M120.2,119.2c0,0.2-0.2,0.4-0.4,0.4s-0.4-0.2-0.4-0.4v-4.9c0-0.2,0.2-0.4,0.4-0.4
			s0.4,0.2,0.4,0.4V119.2z"/>
		<path class="st2" d="M122,112.8c0-0.2,0.2-0.4,0.4-0.4c0.2,0,0.4,0.2,0.4,0.4v1.3h0.8c0.2,0,0.4,0.2,0.4,0.4
			c0,0.2-0.2,0.4-0.4,0.4h-0.8v3.3c0,0.5,0.3,0.8,0.7,0.8c0.2,0,0.4,0.2,0.4,0.4c0,0.2-0.2,0.4-0.4,0.4c-0.9,0-1.5-0.6-1.5-1.5V115
			h-0.5c-0.2,0-0.4-0.2-0.4-0.4c0-0.2,0.2-0.4,0.4-0.4h0.5V112.8z"/>
		<path class="st2" d="M61.6,140.4c-0.1,0-0.1,0.1-0.2,0.1c-0.2,0-0.4-0.2-0.4-0.4c0-0.1,0.1-0.3,0.2-0.3l1.9-1.3
			c0.1-0.1,0.2-0.1,0.2-0.1c0.2,0,0.4,0.2,0.4,0.4v7.5c0,0.2-0.2,0.4-0.4,0.4s-0.4-0.2-0.4-0.4v-6.8L61.6,140.4z"/>
		<path class="st2" d="M72,141.7v-3.3c0-0.2,0.2-0.4,0.4-0.4s0.4,0.2,0.4,0.4v5.9c0,1.6-1,2.4-2.4,2.4c-1.5,0-2.5-0.9-2.5-2.9
			s0.9-2.9,2.4-2.9C71.2,140.9,71.8,141.3,72,141.7z M72,142.6c0,0-0.5-1.1-1.6-1.1s-1.7,0.7-1.7,2.2s0.6,2.2,1.7,2.2
			c0.9,0,1.6-0.5,1.6-1.7V142.6z"/>
		<path class="st2" d="M79,143.8c0,2-1,2.9-2.5,2.9s-2.5-0.9-2.5-2.9s1-2.9,2.5-2.9C78.1,140.9,79,141.8,79,143.8z M78.3,143.8
			c0-1.5-0.6-2.2-1.7-2.2s-1.7,0.7-1.7,2.2s0.6,2.2,1.7,2.2S78.3,145.3,78.3,143.8z"/>
		<path class="st2" d="M80.9,141.3v3.1c0,0.8,0.3,1.5,1.5,1.5s1.5-0.7,1.5-1.5v-3.1c0-0.2,0.2-0.4,0.4-0.4c0.2,0,0.4,0.2,0.4,0.4
			v3.1c0,1.1-0.4,2.2-2.2,2.2c-1.8,0-2.2-1-2.2-2.2v-3.1c0-0.2,0.2-0.4,0.4-0.4C80.7,141,80.9,141.1,80.9,141.3z"/>
		<path class="st2" d="M88.1,140.9c1.1,0,1.7,0.6,1.8,0.8c0.1,0.1,0.1,0.1,0.1,0.2c0,0.2-0.2,0.3-0.3,0.3c-0.1,0-0.2,0-0.3-0.1
			c-0.2-0.2-0.5-0.6-1.3-0.6c-1.1,0-1.7,0.7-1.7,2.2s0.6,2.2,1.7,2.2c0.7,0,1.1-0.3,1.4-0.5c0.1-0.1,0.1-0.1,0.2-0.1
			c0.2,0,0.3,0.2,0.3,0.3s0,0.2-0.2,0.3c-0.3,0.2-0.8,0.6-1.8,0.6c-1.5,0-2.5-0.9-2.5-2.9S86.6,140.9,88.1,140.9z"/>
		<path class="st2" d="M93.4,140.9c1.9,0,2.3,1.5,2.3,2.3c0,0.3,0,0.8-0.5,0.8h-3.5c0,1.2,0.7,2,1.8,2c0.7,0,1.1-0.3,1.4-0.5
			c0.1,0,0.1-0.1,0.2-0.1c0.2,0,0.3,0.2,0.3,0.3s-0.1,0.2-0.1,0.3c-0.2,0.2-0.8,0.7-1.9,0.7c-1.6,0-2.6-0.9-2.6-2.9
			C91,141.9,91.9,140.9,93.4,140.9z M93.4,141.6c-1,0-1.6,0.7-1.7,1.7H95C95,142.5,94.7,141.6,93.4,141.6z"/>
		<path class="st2" d="M97.6,141.3v3.1c0,0.8,0.3,1.5,1.5,1.5s1.5-0.7,1.5-1.5v-3.1c0-0.2,0.2-0.4,0.4-0.4c0.2,0,0.4,0.2,0.4,0.4
			v3.1c0,1.1-0.4,2.2-2.2,2.2c-1.8,0-2.2-1-2.2-2.2v-3.1c0-0.2,0.2-0.4,0.4-0.4C97.4,141,97.6,141.1,97.6,141.3z"/>
		<path class="st2" d="M103.5,141.9c0.2-0.6,0.8-1,1.7-1c0.2,0,0.4,0.2,0.4,0.4s-0.2,0.4-0.4,0.4c-1.1,0-1.7,0.8-1.7,1.9v2.7
			c0,0.2-0.2,0.4-0.4,0.4s-0.4-0.2-0.4-0.4v-4.9c0-0.2,0.2-0.4,0.4-0.4s0.4,0.2,0.4,0.4V141.9z"/>
		<path class="st2" d="M110.3,142.7v3.5c0,0.2-0.2,0.4-0.4,0.4c-0.2,0-0.4-0.2-0.4-0.4v-7.4c0-0.2,0.2-0.4,0.4-0.4
			c0.2,0,0.4,0.2,0.4,0.4v3.2h4.2v-3.2c0-0.2,0.2-0.4,0.4-0.4c0.2,0,0.4,0.2,0.4,0.4v7.4c0,0.2-0.2,0.4-0.4,0.4
			c-0.2,0-0.4-0.2-0.4-0.4v-3.5H110.3z"/>
		<path class="st2" d="M119.1,140.9c1.9,0,2.3,1.5,2.3,2.3c0,0.3,0,0.8-0.5,0.8h-3.5c0,1.2,0.7,2,1.8,2c0.7,0,1.1-0.3,1.4-0.5
			c0.1,0,0.1-0.1,0.2-0.1c0.2,0,0.3,0.2,0.3,0.3s-0.1,0.2-0.1,0.3c-0.2,0.2-0.8,0.7-1.9,0.7c-1.6,0-2.6-0.9-2.6-2.9
			C116.6,141.9,117.5,140.9,119.1,140.9z M119.1,141.6c-1,0-1.6,0.7-1.7,1.7h3.2C120.6,142.5,120.3,141.6,119.1,141.6z M118.5,139.9
			l1.1-1.3c0.1-0.1,0.3-0.2,0.5,0s0.2,0.3,0,0.5l-1.2,1.2c-0.1,0.1-0.2,0.1-0.4,0C118.4,140.1,118.4,140,118.5,139.9z"/>
		<path class="st2" d="M123.3,138.3v6.8c0,0.5,0.2,0.7,0.5,0.7c0.2,0,0.4,0.2,0.4,0.4s-0.2,0.4-0.4,0.4c-0.8,0-1.2-0.5-1.2-1.4v-6.8
			c0-0.2,0.2-0.4,0.4-0.4C123.2,138,123.3,138.1,123.3,138.3z"/>
		<path class="st2" d="M129.9,143.8c0,2-1,2.9-2.5,2.9s-2.5-0.9-2.5-2.9s1-2.9,2.5-2.9C128.9,140.9,129.9,141.8,129.9,143.8z
			 M129.1,143.8c0-1.5-0.6-2.2-1.7-2.2s-1.7,0.7-1.7,2.2s0.6,2.2,1.7,2.2C128.5,146,129.1,145.3,129.1,143.8z"/>
		<path class="st2" d="M131.7,141.3v3.1c0,0.8,0.3,1.5,1.5,1.5s1.5-0.7,1.5-1.5v-3.1c0-0.2,0.2-0.4,0.4-0.4s0.4,0.2,0.4,0.4v3.1
			c0,1.1-0.4,2.2-2.2,2.2s-2.2-1-2.2-2.2v-3.1c0-0.2,0.2-0.4,0.4-0.4C131.6,141,131.7,141.1,131.7,141.3z"/>
	</g>
	<polyline class="st3" points="42.2,72.7 45,76.1 51.4,69.7 	"/>
	<polyline class="st3" points="42.2,102.8 45,106.2 51.4,99.8 	"/>
	<polyline class="st3" points="42.2,143.9 45,147.3 51.4,140.9 	"/>
	<path class="st4" d="M195.8,166.2"/>
	<polyline class="st4" points="180.8,165.7 25.4,165.3 25.4,14.6 195.8,14.6 195.8,136.5 	"/>
</g>
<g>
	<g>
		<path class="st0" d="M240.1,43.1l-3.8-7V45c0,0.3-0.3,0.6-0.6,0.6s-0.6-0.3-0.6-0.6V33.8c0-0.3,0.3-0.6,0.6-0.6s0.5,0.2,0.5,0.3
			l4.4,8.2l4.4-8.2c0.1-0.1,0.2-0.3,0.5-0.3s0.6,0.3,0.6,0.6V45c0,0.3-0.3,0.6-0.6,0.6s-0.6-0.3-0.6-0.6v-8.9l-3.8,7
			c-0.1,0.2-0.3,0.3-0.5,0.3C240.4,43.5,240.2,43.4,240.1,43.1z"/>
		<path class="st0" d="M250.3,41.8v-8c0-0.3,0.3-0.6,0.6-0.6s0.6,0.3,0.6,0.6v8c0,1.4,0.5,2.8,3,2.8c2.5,0,3-1.4,3-2.8v-8
			c0-0.3,0.3-0.6,0.6-0.6c0.3,0,0.6,0.3,0.6,0.6v8c0,2-0.8,3.9-4.2,3.9S250.3,43.7,250.3,41.8z"/>
		<path class="st0" d="M266.5,34.2c-1.9,0-2.6,0.9-2.6,2c0,3,6.8,1.7,6.8,6c0,2.3-1.5,3.5-4.3,3.5c-2.1,0-3.6-1-4.2-2.2
			c-0.1-0.1-0.1-0.2-0.1-0.3c0-0.3,0.3-0.6,0.6-0.6c0.2,0,0.4,0.1,0.5,0.3c0.6,0.9,1.6,1.7,3.2,1.7c2,0,3.1-0.8,3.1-2.4
			c0-3.4-6.8-1.8-6.8-6c0-1.7,1.2-3.1,3.8-3.1c1.7,0,3.1,0.7,3.9,1.9c0.1,0.1,0.1,0.2,0.1,0.3c0,0.3-0.3,0.6-0.6,0.6
			c-0.2,0-0.3-0.1-0.5-0.2C268.8,35,268,34.2,266.5,34.2z"/>
		<path class="st0" d="M273.5,39.4c0-4.3,2.1-6.3,5.6-6.3c1.7,0,3.2,0.7,4.1,1.9c0.1,0.1,0.1,0.3,0.1,0.4c0,0.3-0.3,0.6-0.6,0.6
			c-0.2,0-0.3-0.1-0.5-0.2c-0.6-0.8-1.8-1.5-3.1-1.5c-2.8,0-4.4,1.7-4.4,5.2c0,3.7,1.6,5.2,4.4,5.2c1.2,0,2.4-0.5,3.1-1.5
			c0.1-0.2,0.3-0.2,0.5-0.2c0.3,0,0.6,0.3,0.6,0.6c0,0.1,0,0.2-0.1,0.3c-0.8,1.2-2.4,1.9-4.1,1.9C275.6,45.7,273.5,43.8,273.5,39.4z
			"/>
		<path class="st0" d="M288.4,41.9l-1.3,3.3c-0.1,0.2-0.3,0.4-0.6,0.4c-0.3,0-0.6-0.3-0.6-0.6c0-0.1,0-0.2,0.1-0.3l4.4-11.1
			c0.1-0.2,0.3-0.4,0.6-0.4c0.3,0,0.5,0.2,0.6,0.4l4.4,11.1c0,0.1,0.1,0.2,0.1,0.3c0,0.3-0.3,0.6-0.6,0.6c-0.3,0-0.5-0.2-0.6-0.4
			l-1.3-3.3H288.4z M290.9,35.2l-2.1,5.5h4.3L290.9,35.2z"/>
		<path class="st0" d="M302.3,33.3c3.4,0,5.6,1.6,5.6,6.1s-2.1,6-5.6,6h-2.5c-0.3,0-0.6-0.3-0.6-0.6V33.9c0-0.3,0.3-0.6,0.6-0.6
			C299.8,33.3,302.3,33.3,302.3,33.3z M300.4,44.3h1.9c2.7,0,4.3-1.2,4.3-4.9s-1.6-5-4.3-5h-1.9V44.3z"/>
		<path class="st0" d="M312,45.5c-0.3,0-0.6-0.3-0.6-0.6v-11c0-0.3,0.3-0.6,0.6-0.6h5.8c0.3,0,0.6,0.3,0.6,0.6s-0.3,0.6-0.6,0.6
			h-5.2v4.3h4c0.3,0,0.6,0.3,0.6,0.6s-0.3,0.6-0.6,0.6h-4v4.4h5.4c0.3,0,0.6,0.3,0.6,0.6s-0.3,0.6-0.6,0.6L312,45.5L312,45.5z"/>
	</g>
	<g>
		<path class="st1" d="M344.1,33c2.6,0,4.2,1.5,4.2,3.7c0,3.8-6.2,5.3-6.2,6.8h5.5c0.5,0,0.9,0.4,0.9,0.9s-0.4,0.9-0.9,0.9h-6.9
			c-0.5,0-0.9-0.4-0.9-0.9c0-4,6.5-4.4,6.5-7.8c0-1-0.7-1.9-2.1-1.9c-1.1,0-1.7,0.6-2.1,1.3c-0.2,0.4-0.5,0.6-0.9,0.6
			c-0.5,0-1-0.4-1-1c0-0.1,0-0.3,0.1-0.4C340.9,34,342.1,33,344.1,33z"/>
		<path class="st1" d="M359.5,41.4c0,3-1.8,4.3-4.5,4.3c-2.3,0-3.7-1.3-4.4-2.4c-0.1-0.2-0.1-0.3-0.1-0.5c0-0.5,0.4-1,1-1
			c0.3,0,0.6,0.1,0.8,0.5c0.7,1,1.4,1.5,2.7,1.5c1.4,0,2.4-0.8,2.4-2.5s-1-2.5-2.4-2.5c-1.1,0-1.6,0.3-2.3,0.7
			c-0.2,0.2-0.5,0.4-0.9,0.4c-0.5,0-1-0.4-1-1c0-0.1,0-0.2,0-0.3l0.9-4.7c0.1-0.3,0.4-0.7,0.9-0.7h5.4c0.5,0,0.9,0.4,0.9,0.9
			S358.5,35,358,35h-4.7l-0.5,2.4c0.4-0.2,1.1-0.4,2.1-0.4C357.7,37.1,359.5,38.4,359.5,41.4z"/>
		<path class="st1" d="M364.4,41.4c0.4,1.7,1.5,2.4,3.3,2.4c1.3,0,2-0.3,2.9-1.2c0.3-0.3,0.5-0.4,0.8-0.4c0.5,0,1,0.4,1,1
			c0,0.2-0.1,0.4-0.2,0.5c-0.9,1.2-2.5,1.9-4.5,1.9c-3,0-4.9-1.3-5.5-4.3h-0.3c-0.4,0-0.8-0.3-0.8-0.8s0.3-0.8,0.8-0.8h0.1v-0.8
			h-0.1c-0.4,0-0.8-0.3-0.8-0.8c0-0.4,0.3-0.8,0.8-0.8h0.3c0.5-3,2.4-4.5,5.5-4.5c2.2,0,3.6,0.9,4.3,1.9c0.1,0.2,0.2,0.4,0.2,0.6
			c0,0.5-0.4,1-1,1c-0.3,0-0.5-0.1-0.7-0.4c-0.7-0.8-1.5-1.3-2.8-1.3c-1.8,0-2.9,0.9-3.3,2.6h2.2c0.4,0,0.8,0.3,0.8,0.8
			c0,0.4-0.3,0.8-0.8,0.8h-2.4v0.8h2.4c0.4,0,0.8,0.3,0.8,0.8s-0.3,0.8-0.8,0.8h-2.2V41.4z"/>
	</g>
	<g>
		<path class="st2" d="M258.2,73.5c0,1.9-1.1,2.8-2.8,2.8c-1.3,0-2.3-0.6-2.8-1.6c0-0.1,0-0.1,0-0.2c0-0.2,0.2-0.4,0.4-0.4
			c0.1,0,0.2,0,0.3,0.2c0.5,0.9,1.1,1.2,2.1,1.2c1.2,0,2-0.6,2-2s-0.8-2-2-2c-0.9,0-1.4,0.2-1.9,0.7c-0.1,0.1-0.2,0.2-0.3,0.2
			c-0.2,0-0.4-0.2-0.4-0.4c0-0.1,0-0.1,0-0.2l0.7-3.5c0-0.1,0.2-0.3,0.4-0.3h3.6c0.2,0,0.4,0.2,0.4,0.4s-0.2,0.4-0.4,0.4h-3.4
			l-0.5,2.5c0.4-0.3,1-0.5,1.8-0.5C257.1,70.8,258.2,71.6,258.2,73.5z"/>
		<path class="st2" d="M264.2,72.6v3.2c0,0.2-0.2,0.4-0.4,0.4s-0.4-0.2-0.4-0.4v-3c0-0.9-0.3-1.6-1.4-1.6c-1.2,0-1.6,0.7-1.6,1.7v3
			c0,0.2-0.2,0.4-0.4,0.4s-0.4-0.2-0.4-0.4V68c0-0.2,0.2-0.4,0.4-0.4s0.4,0.2,0.4,0.4v3.4c0.2-0.5,0.8-0.8,1.6-0.8
			C263.8,70.5,264.2,71.6,264.2,72.6z"/>
		<path class="st2" d="M272.2,71.3V68c0-0.2,0.2-0.4,0.4-0.4s0.4,0.2,0.4,0.4v5.9c0,1.6-1,2.4-2.4,2.4c-1.5,0-2.5-0.9-2.5-2.9
			s0.9-2.9,2.4-2.9C271.3,70.5,271.9,70.9,272.2,71.3z M272.2,72.3c0,0-0.5-1.1-1.6-1.1s-1.7,0.7-1.7,2.2s0.6,2.2,1.7,2.2
			c0.9,0,1.6-0.5,1.6-1.7V72.3z"/>
		<path class="st2" d="M276.6,70.5c1.9,0,2.3,1.5,2.3,2.3c0,0.3,0,0.8-0.5,0.8h-3.5c0,1.2,0.7,2,1.8,2c0.7,0,1.1-0.3,1.4-0.5
			c0.1,0,0.1-0.1,0.2-0.1c0.2,0,0.3,0.2,0.3,0.3c0,0.1-0.1,0.2-0.1,0.3c-0.2,0.2-0.8,0.7-1.9,0.7c-1.6,0-2.6-0.9-2.6-2.9
			C274.2,71.6,275.1,70.5,276.6,70.5z M276.6,71.2c-1,0-1.6,0.7-1.7,1.7h3.2C278.2,72.1,277.9,71.2,276.6,71.2z"/>
		<path class="st2" d="M285.1,70.5c1.1,0,1.7,0.6,1.8,0.8c0.1,0.1,0.1,0.1,0.1,0.2c0,0.2-0.2,0.3-0.3,0.3c-0.1,0-0.2,0-0.3-0.1
			c-0.2-0.2-0.5-0.6-1.3-0.6c-1.1,0-1.7,0.7-1.7,2.2s0.6,2.2,1.7,2.2c0.7,0,1.1-0.3,1.4-0.5c0.1-0.1,0.1-0.1,0.2-0.1
			c0.2,0,0.3,0.2,0.3,0.3c0,0.1,0,0.2-0.2,0.3c-0.3,0.2-0.8,0.6-1.8,0.6c-1.5,0-2.5-0.9-2.5-2.9S283.5,70.5,285.1,70.5z"/>
		<path class="st2" d="M292.9,73.4c0,2-1,2.9-2.5,2.9s-2.5-0.9-2.5-2.9s1-2.9,2.5-2.9C292,70.5,292.9,71.4,292.9,73.4z M292.2,73.4
			c0-1.5-0.6-2.2-1.7-2.2s-1.7,0.7-1.7,2.2s0.6,2.2,1.7,2.2S292.2,74.9,292.2,73.4z"/>
		<path class="st2" d="M296.7,73.4h-2.4c-0.2,0-0.3-0.1-0.3-0.3s0.1-0.3,0.3-0.3h2.4c0.2,0,0.3,0.1,0.3,0.3S296.9,73.4,296.7,73.4z"
			/>
		<path class="st2" d="M301.6,72.2l-1.1,3.8c0,0.2-0.2,0.3-0.4,0.3s-0.3-0.1-0.4-0.3l-1.8-4.8c0-0.1,0-0.1,0-0.2
			c0-0.2,0.2-0.4,0.4-0.4c0.2,0,0.3,0.1,0.4,0.3l1.4,4l1.1-4c0-0.1,0.2-0.3,0.4-0.3s0.3,0.1,0.4,0.3l1.1,4l1.4-4
			c0.1-0.2,0.2-0.3,0.4-0.3c0.2,0,0.4,0.2,0.4,0.4c0,0,0,0.1,0,0.2l-1.8,4.8c-0.1,0.2-0.2,0.3-0.4,0.3s-0.3-0.1-0.4-0.3L301.6,72.2z
			"/>
		<path class="st2" d="M310.9,73.4c0,2-1,2.9-2.5,2.9s-2.5-0.9-2.5-2.9s1-2.9,2.5-2.9S310.9,71.4,310.9,73.4z M310.1,73.4
			c0-1.5-0.6-2.2-1.7-2.2s-1.7,0.7-1.7,2.2s0.6,2.2,1.7,2.2S310.1,74.9,310.1,73.4z"/>
		<path class="st2" d="M312.8,71.5c0.2-0.6,0.8-1,1.7-1c0.2,0,0.4,0.2,0.4,0.4c0,0.2-0.2,0.4-0.4,0.4c-1.1,0-1.7,0.8-1.7,1.9v2.7
			c0,0.2-0.2,0.4-0.4,0.4s-0.4-0.2-0.4-0.4V71c0-0.2,0.2-0.4,0.4-0.4s0.4,0.2,0.4,0.4V71.5z"/>
		<path class="st2" d="M319.4,76.1l-2.1-2.7l-0.7,0.6v1.9c0,0.2-0.2,0.4-0.4,0.4s-0.4-0.2-0.4-0.4V68c0-0.2,0.2-0.4,0.4-0.4
			s0.4,0.2,0.4,0.4v5l2.8-2.3c0.1-0.1,0.2-0.1,0.3-0.1c0.2,0,0.4,0.2,0.4,0.4c0,0.1,0,0.2-0.2,0.3l-2,1.6l2.1,2.7
			c0.1,0.1,0.1,0.2,0.1,0.2c0,0.2-0.2,0.4-0.4,0.4C319.6,76.2,319.5,76.2,319.4,76.1z"/>
		<path class="st2" d="M321.1,69c0-0.3,0.2-0.5,0.5-0.5s0.5,0.1,0.5,0.5c0,0.3-0.2,0.5-0.5,0.5C321.3,69.5,321.1,69.3,321.1,69z
			 M322,75.8c0,0.2-0.2,0.4-0.4,0.4s-0.4-0.2-0.4-0.4V71c0-0.2,0.2-0.4,0.4-0.4s0.4,0.2,0.4,0.4V75.8z"/>
		<path class="st2" d="M328.1,72.6v3.2c0,0.2-0.2,0.4-0.4,0.4s-0.4-0.2-0.4-0.4v-3c0-0.9-0.3-1.6-1.4-1.6c-1.2,0-1.6,0.7-1.6,1.7v3
			c0,0.2-0.2,0.4-0.4,0.4s-0.4-0.2-0.4-0.4V71c0-0.2,0.2-0.4,0.4-0.4s0.4,0.2,0.4,0.4v0.4c0.2-0.5,0.8-0.8,1.6-0.8
			C327.7,70.5,328.1,71.6,328.1,72.6z"/>
		<path class="st2" d="M332.8,70.8c0.2-0.4,0.5-0.6,1.1-0.6c0.2,0,0.3,0.2,0.3,0.3c0,0.2-0.2,0.3-0.3,0.3c-0.4,0-0.5,0.2-0.6,0.4
			c0.3,0.3,0.4,0.8,0.4,1.3c0,1.2-0.8,2-2.2,2c-0.5,0-1-0.1-1.3-0.3c-0.1,0.1-0.2,0.2-0.2,0.4c0,0.3,0.2,0.5,0.9,0.5h1.2
			c1.2,0,2.1,0.5,2.1,1.6c0,1.2-1.1,1.7-2.6,1.7c-1.2,0-2.6-0.4-2.6-1.7c0-0.6,0.3-1,0.9-1.2c-0.4-0.1-0.7-0.5-0.7-1
			c0-0.4,0.2-0.6,0.5-0.8c-0.3-0.4-0.4-0.8-0.4-1.3c0-1.2,0.8-2,2.2-2C332,70.5,332.4,70.6,332.8,70.8z M332.1,75.9h-1.2
			c-0.7,0.1-1,0.5-1,1c0,0.7,0.8,1,1.8,1c0.9,0,1.8-0.3,1.8-1.1C333.4,76.2,332.9,75.9,332.1,75.9z M332.9,72.5
			c0-0.8-0.5-1.3-1.4-1.3s-1.4,0.5-1.4,1.3s0.5,1.3,1.4,1.3C332.4,73.9,332.9,73.3,332.9,72.5z"/>
		<path class="st2" d="M253.3,99c-0.1,0-0.1,0.1-0.2,0.1c-0.2,0-0.4-0.2-0.4-0.4c0-0.1,0.1-0.3,0.2-0.3l1.9-1.3
			C254.9,97,255,97,255,97c0.2,0,0.4,0.2,0.4,0.4v7.5c0,0.2-0.2,0.4-0.4,0.4s-0.4-0.2-0.4-0.4v-6.8L253.3,99z"/>
		<path class="st2" d="M264.9,102.4c0,2-0.9,2.9-2.5,2.9c-1.4,0-2.4-0.8-2.4-2.4V97c0-0.2,0.2-0.4,0.4-0.4c0.2,0,0.4,0.2,0.4,0.4
			v3.3c0.3-0.4,0.9-0.8,1.6-0.8C264,99.5,264.9,100.4,264.9,102.4z M260.8,102.9c0,1.1,0.7,1.7,1.6,1.7c1.1,0,1.7-0.7,1.7-2.2
			s-0.6-2.2-1.7-2.2s-1.6,1.1-1.6,1.1V102.9z"/>
		<path class="st2" d="M270.7,102.4c0,2-1,2.9-2.5,2.9s-2.5-0.9-2.5-2.9s1-2.9,2.5-2.9C269.8,99.5,270.7,100.4,270.7,102.4z
			 M270,102.4c0-1.5-0.6-2.2-1.7-2.2s-1.7,0.7-1.7,2.2s0.6,2.2,1.7,2.2S270,103.9,270,102.4z"/>
		<path class="st2" d="M271.9,98c0-0.3,0.2-0.5,0.5-0.5s0.5,0.1,0.5,0.5c0,0.3-0.2,0.5-0.5,0.5C272,98.5,271.9,98.3,271.9,98z
			 M272.7,104.8c0,0.2-0.2,0.4-0.4,0.4s-0.4-0.2-0.4-0.4V100c0-0.2,0.2-0.4,0.4-0.4s0.4,0.2,0.4,0.4V104.8z"/>
		<path class="st2" d="M274.9,101c0,1.3,3.2,0.8,3.2,2.7c0,1.1-0.9,1.6-2,1.6c-1,0-1.7-0.5-2.1-0.9c-0.1-0.1-0.1-0.1-0.1-0.2
			c0-0.2,0.2-0.3,0.3-0.3c0.1,0,0.2,0,0.3,0.1c0.4,0.4,0.9,0.6,1.5,0.6c0.7,0,1.3-0.2,1.3-0.9c0-1.2-3.2-0.7-3.2-2.7
			c0-1,0.8-1.5,1.8-1.5c0.8,0,1.5,0.3,1.8,0.8c0,0,0.1,0.1,0.1,0.2c0,0.2-0.2,0.3-0.3,0.3c-0.1,0-0.2,0-0.3-0.1
			c-0.3-0.3-0.7-0.5-1.3-0.5C275.4,100.3,274.9,100.4,274.9,101z"/>
		<path class="st2" d="M280,101c0,1.3,3.2,0.8,3.2,2.7c0,1.1-0.9,1.6-2,1.6c-1,0-1.7-0.5-2.1-0.9c-0.1-0.1-0.1-0.1-0.1-0.2
			c0-0.2,0.2-0.3,0.3-0.3c0.1,0,0.2,0,0.3,0.1c0.4,0.4,0.9,0.6,1.5,0.6c0.7,0,1.3-0.2,1.3-0.9c0-1.2-3.2-0.7-3.2-2.7
			c0-1,0.8-1.5,1.8-1.5c0.8,0,1.5,0.3,1.8,0.8c0,0,0.1,0.1,0.1,0.2c0,0.2-0.2,0.3-0.3,0.3c-0.1,0-0.2,0-0.3-0.1
			c-0.3-0.3-0.7-0.5-1.3-0.5C280.5,100.3,280,100.4,280,101z"/>
		<path class="st2" d="M289.1,102.4c0,2-1,2.9-2.5,2.9s-2.5-0.9-2.5-2.9s1-2.9,2.5-2.9S289.1,100.4,289.1,102.4z M288.3,102.4
			c0-1.5-0.6-2.2-1.7-2.2s-1.7,0.7-1.7,2.2s0.6,2.2,1.7,2.2S288.3,103.9,288.3,102.4z"/>
		<path class="st2" d="M294.9,101.6v3.2c0,0.2-0.2,0.4-0.4,0.4s-0.4-0.2-0.4-0.4v-3c0-0.9-0.3-1.6-1.4-1.6c-1.2,0-1.6,0.7-1.6,1.7v3
			c0,0.2-0.2,0.4-0.4,0.4c-0.2,0-0.4-0.2-0.4-0.4V100c0-0.2,0.2-0.4,0.4-0.4c0.2,0,0.4,0.2,0.4,0.4v0.4c0.2-0.5,0.8-0.8,1.6-0.8
			C294.5,99.5,294.9,100.6,294.9,101.6z"/>
		<path class="st2" d="M301.3,99.5c1.1,0,1.7,0.6,1.8,0.8c0.1,0.1,0.1,0.1,0.1,0.2c0,0.2-0.2,0.3-0.3,0.3c-0.1,0-0.2,0-0.3-0.1
			c-0.2-0.2-0.5-0.6-1.3-0.6c-1.1,0-1.7,0.7-1.7,2.2s0.6,2.2,1.7,2.2c0.7,0,1.1-0.3,1.4-0.5c0.1-0.1,0.1-0.1,0.2-0.1
			c0.2,0,0.3,0.2,0.3,0.3c0,0.1,0,0.2-0.2,0.3c-0.3,0.2-0.8,0.6-1.8,0.6c-1.5,0-2.5-0.9-2.5-2.9S299.7,99.5,301.3,99.5z"/>
		<path class="st2" d="M309,101.6v3.2c0,0.2-0.2,0.4-0.4,0.4s-0.4-0.2-0.4-0.4v-3c0-0.9-0.3-1.6-1.4-1.6c-1.2,0-1.6,0.7-1.6,1.7v3
			c0,0.2-0.2,0.4-0.4,0.4s-0.4-0.2-0.4-0.4V97c0-0.2,0.2-0.4,0.4-0.4s0.4,0.2,0.4,0.4v3.4c0.2-0.5,0.8-0.8,1.6-0.8
			C308.7,99.5,309,100.6,309,101.6z"/>
		<path class="st2" d="M311.1,100.9c-0.1,0.1-0.2,0.2-0.3,0.2c-0.2,0-0.3-0.2-0.3-0.3c0-0.1,0-0.1,0.1-0.2c0.3-0.5,1-0.9,2-0.9
			c1.4,0,2.2,0.8,2.2,2v3.3c0,0.2-0.2,0.4-0.4,0.4s-0.4-0.2-0.4-0.4v-0.4c-0.3,0.6-1,0.9-1.7,0.9c-1.3,0-2.1-0.6-2.1-1.7
			s0.8-1.7,2.1-1.7h1.7v-0.3c0-0.8-0.5-1.3-1.4-1.3C311.8,100.2,311.5,100.4,311.1,100.9z M313.9,103.1v-0.5h-1.7
			c-0.8,0-1.3,0.3-1.3,1c0,0.6,0.4,1,1.4,1C313.1,104.6,313.9,104.1,313.9,103.1z"/>
		<path class="st2" d="M316.7,100v3.1c0,0.8,0.3,1.5,1.5,1.5s1.5-0.7,1.5-1.5V100c0-0.2,0.2-0.4,0.4-0.4c0.2,0,0.4,0.2,0.4,0.4v3.1
			c0,1.1-0.4,2.2-2.2,2.2c-1.8,0-2.2-1-2.2-2.2V100c0-0.2,0.2-0.4,0.4-0.4C316.6,99.6,316.7,99.8,316.7,100z"/>
		<path class="st2" d="M325.5,100.3V97c0-0.2,0.2-0.4,0.4-0.4s0.4,0.2,0.4,0.4v5.9c0,1.6-1,2.4-2.4,2.4c-1.5,0-2.5-0.9-2.5-2.9
			s0.9-2.9,2.4-2.9C324.7,99.5,325.3,99.9,325.5,100.3z M325.5,101.3c0,0-0.5-1.1-1.6-1.1s-1.7,0.7-1.7,2.2s0.6,2.2,1.7,2.2
			c0.9,0,1.6-0.5,1.6-1.7V101.3z"/>
		<path class="st2" d="M330,99.5c1.9,0,2.3,1.5,2.3,2.3c0,0.3,0,0.8-0.5,0.8h-3.5c0,1.2,0.7,2,1.8,2c0.7,0,1.1-0.3,1.4-0.5
			c0.1,0,0.1-0.1,0.2-0.1c0.2,0,0.3,0.2,0.3,0.3c0,0.1-0.1,0.2-0.1,0.3c-0.2,0.2-0.8,0.7-1.9,0.7c-1.6,0-2.6-0.9-2.6-2.9
			C327.5,100.6,328.4,99.5,330,99.5z M330,100.2c-1,0-1.6,0.7-1.7,1.7h3.2C331.5,101.1,331.2,100.2,330,100.2z"/>
		<path class="st2" d="M341,102.4c0,2-1,2.9-2.5,2.9s-2.5-0.9-2.5-2.9s1-2.9,2.5-2.9S341,100.4,341,102.4z M340.2,102.4
			c0-1.5-0.6-2.2-1.7-2.2s-1.7,0.7-1.7,2.2s0.6,2.2,1.7,2.2S340.2,103.9,340.2,102.4z"/>
		<path class="st2" d="M342.9,100v3.1c0,0.8,0.3,1.5,1.5,1.5s1.5-0.7,1.5-1.5V100c0-0.2,0.2-0.4,0.4-0.4c0.2,0,0.4,0.2,0.4,0.4v3.1
			c0,1.1-0.4,2.2-2.2,2.2c-1.8,0-2.2-1-2.2-2.2V100c0-0.2,0.2-0.4,0.4-0.4C342.7,99.6,342.9,99.8,342.9,100z"/>
		<path class="st2" d="M253.6,114v3.1c0,0.8,0.3,1.5,1.5,1.5c1.2,0,1.5-0.7,1.5-1.5V114c0-0.2,0.2-0.4,0.4-0.4
			c0.2,0,0.4,0.2,0.4,0.4v3.1c0,1.1-0.4,2.2-2.2,2.2s-2.2-1-2.2-2.2V114c0-0.2,0.2-0.4,0.4-0.4C253.4,113.6,253.6,113.8,253.6,114z"
			/>
		<path class="st2" d="M263.3,115.6v3.2c0,0.2-0.2,0.4-0.4,0.4s-0.4-0.2-0.4-0.4v-3c0-0.9-0.3-1.6-1.4-1.6c-1.2,0-1.6,0.7-1.6,1.7v3
			c0,0.2-0.2,0.4-0.4,0.4s-0.4-0.2-0.4-0.4V114c0-0.2,0.2-0.4,0.4-0.4s0.4,0.2,0.4,0.4v0.4c0.2-0.5,0.8-0.8,1.6-0.8
			C263,113.5,263.3,114.6,263.3,115.6z"/>
		<path class="st2" d="M267.6,114c0-0.2,0.2-0.4,0.4-0.4c0.2,0,0.4,0.2,0.4,0.4v5.6c0,1-0.7,1.8-1.8,1.8c-0.2,0-0.4-0.2-0.4-0.4
			c0-0.2,0.2-0.4,0.4-0.4c0.6,0,1-0.5,1-1.1V114z M267.6,112c0-0.3,0.2-0.5,0.5-0.5s0.5,0.1,0.5,0.5c0,0.3-0.2,0.5-0.5,0.5
			C267.7,112.5,267.6,112.3,267.6,112z"/>
		<path class="st2" d="M270.6,114v3.1c0,0.8,0.3,1.5,1.5,1.5s1.5-0.7,1.5-1.5V114c0-0.2,0.2-0.4,0.4-0.4c0.2,0,0.4,0.2,0.4,0.4v3.1
			c0,1.1-0.4,2.2-2.2,2.2c-1.8,0-2.2-1-2.2-2.2V114c0-0.2,0.2-0.4,0.4-0.4C270.4,113.6,270.6,113.8,270.6,114z"/>
		<path class="st2" d="M276.4,115c0,1.3,3.2,0.8,3.2,2.7c0,1.1-0.9,1.6-2,1.6c-1,0-1.7-0.5-2.1-0.9c-0.1-0.1-0.1-0.1-0.1-0.2
			c0-0.2,0.2-0.3,0.3-0.3c0.1,0,0.2,0,0.3,0.1c0.4,0.4,0.9,0.6,1.5,0.6c0.7,0,1.3-0.2,1.3-0.9c0-1.2-3.2-0.7-3.2-2.7
			c0-1,0.8-1.5,1.8-1.5c0.8,0,1.5,0.3,1.8,0.8c0,0,0.1,0.1,0.1,0.2c0,0.2-0.2,0.3-0.3,0.3c-0.1,0-0.2,0-0.3-0.1
			c-0.3-0.3-0.7-0.5-1.3-0.5C276.9,114.3,276.4,114.4,276.4,115z"/>
		<path class="st2" d="M287.4,114.3V111c0-0.2,0.2-0.4,0.4-0.4s0.4,0.2,0.4,0.4v5.9c0,1.6-1,2.4-2.4,2.4c-1.5,0-2.5-0.9-2.5-2.9
			s0.9-2.9,2.4-2.9C286.5,113.5,287.1,113.9,287.4,114.3z M287.4,115.3c0,0-0.5-1.1-1.6-1.1s-1.7,0.7-1.7,2.2s0.6,2.2,1.7,2.2
			c0.9,0,1.6-0.5,1.6-1.7V115.3z"/>
		<path class="st2" d="M291.8,113.5c1.9,0,2.3,1.5,2.3,2.3c0,0.3,0,0.8-0.5,0.8h-3.5c0,1.2,0.7,2,1.8,2c0.7,0,1.1-0.3,1.4-0.5
			c0.1,0,0.1-0.1,0.2-0.1c0.2,0,0.3,0.2,0.3,0.3c0,0.1-0.1,0.2-0.1,0.3c-0.2,0.2-0.8,0.7-1.9,0.7c-1.6,0-2.6-0.9-2.6-2.9
			C289.3,114.6,290.2,113.5,291.8,113.5z M291.8,114.2c-1,0-1.6,0.7-1.7,1.7h3.2C293.3,115.1,293,114.2,291.8,114.2z"/>
		<path class="st2" d="M298,114.4c-0.2,0-0.4-0.2-0.4-0.4c0-0.2,0.2-0.4,0.4-0.4h0.4V113c0-1.1,0.6-2.1,2.1-2.1
			c0.2,0,0.4,0.2,0.4,0.4c0,0.2-0.2,0.4-0.4,0.4c-0.9,0-1.3,0.6-1.3,1.3v0.7h1.1c0.2,0,0.4,0.2,0.4,0.4c0,0.2-0.2,0.4-0.4,0.4h-1.1
			v4.4c0,0.2-0.2,0.4-0.4,0.4s-0.4-0.2-0.4-0.4v-4.4H298V114.4z"/>
		<path class="st2" d="M302.4,114.5c0.2-0.6,0.8-1,1.7-1c0.2,0,0.4,0.2,0.4,0.4c0,0.2-0.2,0.4-0.4,0.4c-1.1,0-1.7,0.8-1.7,1.9v2.7
			c0,0.2-0.2,0.4-0.4,0.4s-0.4-0.2-0.4-0.4V114c0-0.2,0.2-0.4,0.4-0.4s0.4,0.2,0.4,0.4V114.5z"/>
		<path class="st2" d="M306,114v3.1c0,0.8,0.3,1.5,1.5,1.5s1.5-0.7,1.5-1.5V114c0-0.2,0.2-0.4,0.4-0.4c0.2,0,0.4,0.2,0.4,0.4v3.1
			c0,1.1-0.4,2.2-2.2,2.2c-1.8,0-2.2-1-2.2-2.2V114c0-0.2,0.2-0.4,0.4-0.4C305.8,113.6,306,113.8,306,114z"/>
		<path class="st2" d="M311,112c0-0.3,0.2-0.5,0.5-0.5s0.5,0.1,0.5,0.5c0,0.3-0.2,0.5-0.5,0.5S311,112.3,311,112z M311.9,118.8
			c0,0.2-0.2,0.4-0.4,0.4s-0.4-0.2-0.4-0.4V114c0-0.2,0.2-0.4,0.4-0.4s0.4,0.2,0.4,0.4V118.8z"/>
		<path class="st2" d="M313.7,112.4c0-0.2,0.2-0.4,0.4-0.4c0.2,0,0.4,0.2,0.4,0.4v1.3h0.8c0.2,0,0.4,0.2,0.4,0.4
			c0,0.2-0.2,0.4-0.4,0.4h-0.8v3.3c0,0.5,0.3,0.8,0.7,0.8c0.2,0,0.4,0.2,0.4,0.4c0,0.2-0.2,0.4-0.4,0.4c-0.9,0-1.5-0.6-1.5-1.5v-3.3
			h-0.5c-0.2,0-0.4-0.2-0.4-0.4c0-0.2,0.2-0.4,0.4-0.4h0.5V112.4z"/>
		<path class="st2" d="M253.3,140c-0.1,0-0.1,0.1-0.2,0.1c-0.2,0-0.4-0.2-0.4-0.4c0-0.1,0.1-0.3,0.2-0.3l1.9-1.3
			c0.1-0.1,0.2-0.1,0.2-0.1c0.2,0,0.4,0.2,0.4,0.4v7.5c0,0.2-0.2,0.4-0.4,0.4s-0.4-0.2-0.4-0.4v-6.8L253.3,140z"/>
		<path class="st2" d="M260.8,141v0.4c0.2-0.4,0.8-0.8,1.6-0.8c1.6,0,2.5,0.9,2.5,2.9s-0.9,2.9-2.5,2.9c-0.8,0-1.4-0.4-1.6-0.8v2.7
			c0,0.2-0.2,0.4-0.4,0.4c-0.2,0-0.4-0.2-0.4-0.4V141c0-0.2,0.2-0.4,0.4-0.4C260.6,140.6,260.8,140.8,260.8,141z M262.4,145.6
			c1.1,0,1.7-0.7,1.7-2.2s-0.6-2.2-1.8-2.2c-0.9,0-1.6,0.6-1.6,2.2C260.8,144.9,261.5,145.6,262.4,145.6z"/>
		<path class="st2" d="M266.9,138v6.8c0,0.5,0.2,0.7,0.5,0.7c0.2,0,0.4,0.2,0.4,0.4s-0.2,0.4-0.4,0.4c-0.8,0-1.2-0.5-1.2-1.4V138
			c0-0.2,0.2-0.4,0.4-0.4C266.8,137.6,266.9,137.8,266.9,138z"/>
		<path class="st2" d="M269.4,141.9c-0.1,0.1-0.2,0.2-0.3,0.2c-0.2,0-0.3-0.2-0.3-0.3s0-0.1,0.1-0.2c0.3-0.5,1-0.9,2-0.9
			c1.4,0,2.2,0.8,2.2,2v3.3c0,0.2-0.2,0.4-0.4,0.4s-0.4-0.2-0.4-0.4v-0.4c-0.3,0.6-1,0.9-1.7,0.9c-1.3,0-2.1-0.6-2.1-1.7
			c0-1.1,0.8-1.7,2.1-1.7h1.7v-0.3c0-0.8-0.5-1.3-1.4-1.3C270.1,141.2,269.8,141.4,269.4,141.9z M272.2,144.1v-0.5h-1.7
			c-0.8,0-1.3,0.3-1.3,1c0,0.6,0.4,1,1.4,1C271.4,145.6,272.2,145.1,272.2,144.1z"/>
		<path class="st2" d="M274.7,139.4c0-0.2,0.2-0.4,0.4-0.4c0.2,0,0.4,0.2,0.4,0.4v1.3h0.8c0.2,0,0.4,0.2,0.4,0.4s-0.2,0.4-0.4,0.4
			h-0.8v3.3c0,0.5,0.3,0.8,0.7,0.8c0.2,0,0.4,0.2,0.4,0.4s-0.2,0.4-0.4,0.4c-0.9,0-1.5-0.6-1.5-1.5v-3.3h-0.5
			c-0.2,0-0.4-0.2-0.4-0.4s0.2-0.4,0.4-0.4h0.5V139.4z"/>
		<path class="st2" d="M279.8,140.5c1.9,0,2.3,1.5,2.3,2.3c0,0.3,0,0.8-0.5,0.8h-3.5c0,1.2,0.7,2,1.8,2c0.7,0,1.1-0.3,1.4-0.5
			c0.1,0,0.1-0.1,0.2-0.1c0.2,0,0.3,0.2,0.3,0.3s-0.1,0.2-0.1,0.3c-0.2,0.2-0.8,0.7-1.9,0.7c-1.6,0-2.6-0.9-2.6-2.9
			C277.4,141.6,278.3,140.5,279.8,140.5z M279.8,141.2c-1,0-1.6,0.7-1.7,1.7h3.2C281.4,142.1,281.1,141.2,279.8,141.2z"/>
		<path class="st2" d="M283.9,141.9c-0.1,0.1-0.2,0.2-0.3,0.2c-0.2,0-0.3-0.2-0.3-0.3s0-0.1,0.1-0.2c0.3-0.5,1-0.9,2-0.9
			c1.4,0,2.2,0.8,2.2,2v3.3c0,0.2-0.2,0.4-0.4,0.4c-0.2,0-0.4-0.2-0.4-0.4v-0.4c-0.3,0.6-1,0.9-1.7,0.9c-1.3,0-2.1-0.6-2.1-1.7
			c0-1.1,0.8-1.7,2.1-1.7h1.7v-0.3c0-0.8-0.5-1.3-1.4-1.3C284.7,141.2,284.3,141.4,283.9,141.9z M286.7,144.1v-0.5H285
			c-0.8,0-1.3,0.3-1.3,1c0,0.6,0.4,1,1.4,1C285.9,145.6,286.7,145.1,286.7,144.1z"/>
		<path class="st2" d="M289.6,141v3.1c0,0.8,0.3,1.5,1.5,1.5s1.5-0.7,1.5-1.5V141c0-0.2,0.2-0.4,0.4-0.4c0.2,0,0.4,0.2,0.4,0.4v3.1
			c0,1.1-0.4,2.2-2.2,2.2c-1.8,0-2.2-1-2.2-2.2V141c0-0.2,0.2-0.4,0.4-0.4C289.4,140.6,289.6,140.8,289.6,141z"/>
		<path class="st2" d="M301.3,141.3V138c0-0.2,0.2-0.4,0.4-0.4s0.4,0.2,0.4,0.4v5.9c0,1.6-1,2.4-2.4,2.4c-1.5,0-2.5-0.9-2.5-2.9
			s0.9-2.9,2.4-2.9C300.4,140.5,301,140.9,301.3,141.3z M301.3,142.3c0,0-0.5-1.1-1.6-1.1s-1.7,0.7-1.7,2.2s0.6,2.2,1.7,2.2
			c0.9,0,1.6-0.5,1.6-1.7V142.3z"/>
		<path class="st2" d="M305.7,140.5c1.9,0,2.3,1.5,2.3,2.3c0,0.3,0,0.8-0.5,0.8H304c0,1.2,0.7,2,1.8,2c0.7,0,1.1-0.3,1.4-0.5
			c0.1,0,0.1-0.1,0.2-0.1c0.2,0,0.3,0.2,0.3,0.3s-0.1,0.2-0.1,0.3c-0.2,0.2-0.8,0.7-1.9,0.7c-1.6,0-2.6-0.9-2.6-2.9
			C303.2,141.6,304.1,140.5,305.7,140.5z M305.7,141.2c-1,0-1.6,0.7-1.7,1.7h3.2C307.2,142.1,306.9,141.2,305.7,141.2z M305.1,139.5
			l1.1-1.3c0.1-0.1,0.3-0.2,0.5,0s0.2,0.3,0,0.5l-1.2,1.2c-0.1,0.1-0.2,0.1-0.4,0S305,139.6,305.1,139.5z"/>
		<path class="st2" d="M309.2,141c0-0.2,0.2-0.4,0.4-0.4c0.2,0,0.4,0.2,0.4,0.4v5.6c0,1-0.7,1.8-1.8,1.8c-0.2,0-0.4-0.2-0.4-0.4
			s0.2-0.4,0.4-0.4c0.6,0,1-0.5,1-1.1V141z M309.1,139c0-0.3,0.2-0.5,0.5-0.5s0.5,0.1,0.5,0.5c0,0.3-0.2,0.5-0.5,0.5
			C309.3,139.5,309.1,139.3,309.1,139z"/>
		<path class="st2" d="M313.6,140.5c1.9,0,2.3,1.5,2.3,2.3c0,0.3,0,0.8-0.5,0.8h-3.5c0,1.2,0.7,2,1.8,2c0.7,0,1.1-0.3,1.4-0.5
			c0.1,0,0.1-0.1,0.2-0.1c0.2,0,0.3,0.2,0.3,0.3s-0.1,0.2-0.1,0.3c-0.2,0.2-0.8,0.7-1.9,0.7c-1.6,0-2.6-0.9-2.6-2.9
			C311.1,141.6,312.1,140.5,313.6,140.5z M313.6,141.2c-1,0-1.6,0.7-1.7,1.7h3.2C315.1,142.1,314.8,141.2,313.6,141.2z"/>
		<path class="st2" d="M317.7,141v3.1c0,0.8,0.3,1.5,1.5,1.5s1.5-0.7,1.5-1.5V141c0-0.2,0.2-0.4,0.4-0.4c0.2,0,0.4,0.2,0.4,0.4v3.1
			c0,1.1-0.4,2.2-2.2,2.2c-1.8,0-2.2-1-2.2-2.2V141c0-0.2,0.2-0.4,0.4-0.4C317.6,140.6,317.7,140.8,317.7,141z"/>
		<path class="st2" d="M327.4,142.6v3.2c0,0.2-0.2,0.4-0.4,0.4s-0.4-0.2-0.4-0.4v-3c0-0.9-0.3-1.6-1.4-1.6c-1.2,0-1.6,0.7-1.6,1.7v3
			c0,0.2-0.2,0.4-0.4,0.4s-0.4-0.2-0.4-0.4V141c0-0.2,0.2-0.4,0.4-0.4s0.4,0.2,0.4,0.4v0.4c0.2-0.5,0.8-0.8,1.6-0.8
			C327.1,140.5,327.4,141.6,327.4,142.6z"/>
		<path class="st2" d="M331,140.5c1.9,0,2.3,1.5,2.3,2.3c0,0.3,0,0.8-0.5,0.8h-3.5c0,1.2,0.7,2,1.8,2c0.7,0,1.1-0.3,1.4-0.5
			c0.1,0,0.1-0.1,0.2-0.1c0.2,0,0.3,0.2,0.3,0.3s-0.1,0.2-0.1,0.3c-0.2,0.2-0.8,0.7-1.9,0.7c-1.6,0-2.6-0.9-2.6-2.9
			C328.5,141.6,329.4,140.5,331,140.5z M331,141.2c-1,0-1.6,0.7-1.7,1.7h3.2C332.5,142.1,332.2,141.2,331,141.2z"/>
		<path class="st2" d="M335.2,141.5c0.2-0.6,0.8-1,1.7-1c0.2,0,0.4,0.2,0.4,0.4s-0.2,0.4-0.4,0.4c-1.1,0-1.7,0.8-1.7,1.9v2.7
			c0,0.2-0.2,0.4-0.4,0.4c-0.2,0-0.4-0.2-0.4-0.4V141c0-0.2,0.2-0.4,0.4-0.4c0.2,0,0.4,0.2,0.4,0.4V141.5z"/>
	</g>
	<g>
		<path class="st2" d="M253.3,170.8c-0.1,0-0.1,0.1-0.2,0.1c-0.2,0-0.4-0.2-0.4-0.4c0-0.1,0.1-0.3,0.2-0.3l1.9-1.3
			c0.1-0.1,0.2-0.1,0.2-0.1c0.2,0,0.4,0.2,0.4,0.4v7.5c0,0.2-0.2,0.4-0.4,0.4s-0.4-0.2-0.4-0.4v-6.8L253.3,170.8z"/>
		<path class="st2" d="M260.7,172.8c0,1.3,3.2,0.8,3.2,2.7c0,1.1-0.9,1.6-2,1.6c-1,0-1.7-0.5-2.1-0.9c-0.1-0.1-0.1-0.1-0.1-0.2
			c0-0.2,0.2-0.3,0.3-0.3c0.1,0,0.2,0,0.3,0.1c0.4,0.4,0.9,0.6,1.5,0.6c0.7,0,1.3-0.2,1.3-0.9c0-1.2-3.2-0.7-3.2-2.7
			c0-1,0.8-1.5,1.8-1.5c0.8,0,1.5,0.3,1.8,0.8c0,0,0.1,0.1,0.1,0.2c0,0.2-0.2,0.3-0.3,0.3c-0.1,0-0.2,0-0.3-0.1
			c-0.3-0.3-0.7-0.5-1.3-0.5C261.2,172.1,260.7,172.3,260.7,172.8z"/>
		<path class="st2" d="M265,169.8c0-0.3,0.2-0.5,0.5-0.5s0.5,0.1,0.5,0.5c0,0.3-0.2,0.5-0.5,0.5S265,170.1,265,169.8z M265.9,176.7
			c0,0.2-0.2,0.4-0.4,0.4s-0.4-0.2-0.4-0.4v-4.9c0-0.2,0.2-0.4,0.4-0.4s0.4,0.2,0.4,0.4V176.7z"/>
		<path class="st2" d="M269.6,171.3c1.9,0,2.3,1.5,2.3,2.3c0,0.3,0,0.8-0.5,0.8h-3.5c0,1.2,0.7,2,1.8,2c0.7,0,1.1-0.3,1.4-0.5
			c0.1,0,0.1-0.1,0.2-0.1c0.2,0,0.3,0.2,0.3,0.3s-0.1,0.2-0.1,0.3c-0.2,0.2-0.8,0.7-1.9,0.7c-1.6,0-2.6-0.9-2.6-2.9
			C267.1,172.4,268,171.3,269.6,171.3z M269.6,172c-1,0-1.6,0.7-1.7,1.7h3.2C271.1,172.9,270.8,172,269.6,172z"/>
		<path class="st2" d="M273.7,172.8c0,1.3,3.2,0.8,3.2,2.7c0,1.1-0.9,1.6-2,1.6c-1,0-1.7-0.5-2.1-0.9c-0.1-0.1-0.1-0.1-0.1-0.2
			c0-0.2,0.2-0.3,0.3-0.3c0.1,0,0.2,0,0.3,0.1c0.4,0.4,0.9,0.6,1.5,0.6c0.7,0,1.3-0.2,1.3-0.9c0-1.2-3.2-0.7-3.2-2.7
			c0-1,0.8-1.5,1.8-1.5c0.8,0,1.5,0.3,1.8,0.8c0,0,0.1,0.1,0.1,0.2c0,0.2-0.2,0.3-0.3,0.3c-0.1,0-0.2,0-0.3-0.1
			c-0.3-0.3-0.7-0.5-1.3-0.5C274.2,172.1,273.7,172.3,273.7,172.8z"/>
		<path class="st2" d="M278.4,170.2c0-0.2,0.2-0.4,0.4-0.4c0.2,0,0.4,0.2,0.4,0.4v1.3h0.8c0.2,0,0.4,0.2,0.4,0.4s-0.2,0.4-0.4,0.4
			h-0.8v3.3c0,0.5,0.3,0.8,0.7,0.8c0.2,0,0.4,0.2,0.4,0.4s-0.2,0.4-0.4,0.4c-0.9,0-1.5-0.6-1.5-1.5v-3.3H278c-0.2,0-0.4-0.2-0.4-0.4
			s0.2-0.4,0.4-0.4h0.5v-1.4H278.4z"/>
		<path class="st2" d="M283.6,171.3c1.9,0,2.3,1.5,2.3,2.3c0,0.3,0,0.8-0.5,0.8h-3.5c0,1.2,0.7,2,1.8,2c0.7,0,1.1-0.3,1.4-0.5
			c0.1,0,0.1-0.1,0.2-0.1c0.2,0,0.3,0.2,0.3,0.3s-0.1,0.2-0.1,0.3c-0.2,0.2-0.8,0.7-1.9,0.7c-1.6,0-2.6-0.9-2.6-2.9
			C281.1,172.4,282,171.3,283.6,171.3z M283.6,172c-1,0-1.6,0.7-1.7,1.7h3.2C285.1,172.9,284.8,172,283.6,172z"/>
		<path class="st2" d="M294.6,174.2c0,2-1,2.9-2.5,2.9s-2.5-0.9-2.5-2.9s1-2.9,2.5-2.9S294.6,172.3,294.6,174.2z M293.8,174.2
			c0-1.5-0.6-2.2-1.7-2.2s-1.7,0.7-1.7,2.2s0.6,2.2,1.7,2.2S293.8,175.8,293.8,174.2z"/>
		<path class="st2" d="M296.8,172.2v4.4c0,0.2-0.2,0.4-0.4,0.4s-0.4-0.2-0.4-0.4v-4.4h-0.4c-0.2,0-0.4-0.2-0.4-0.4s0.2-0.4,0.4-0.4
			h0.4v-0.7c0-1.1,0.6-2.1,2.1-2.1c0.2,0,0.4,0.2,0.4,0.4s-0.2,0.4-0.4,0.4c-0.9,0-1.3,0.6-1.3,1.3v0.7h2.4v-0.7
			c0-1.1,0.6-2.1,2.1-2.1c0.2,0,0.4,0.2,0.4,0.4s-0.2,0.4-0.4,0.4c-0.9,0-1.3,0.6-1.3,1.3v0.7h1.1c0.2,0,0.4,0.2,0.4,0.4
			s-0.2,0.4-0.4,0.4H300v4.4c0,0.2-0.2,0.4-0.4,0.4s-0.4-0.2-0.4-0.4v-4.4L296.8,172.2L296.8,172.2z"/>
		<path class="st2" d="M304.6,171.3c1.9,0,2.3,1.5,2.3,2.3c0,0.3,0,0.8-0.5,0.8h-3.5c0,1.2,0.7,2,1.8,2c0.7,0,1.1-0.3,1.4-0.5
			c0.1,0,0.1-0.1,0.2-0.1c0.2,0,0.3,0.2,0.3,0.3s-0.1,0.2-0.1,0.3c-0.2,0.2-0.8,0.7-1.9,0.7c-1.6,0-2.6-0.9-2.6-2.9
			C302.1,172.4,303,171.3,304.6,171.3z M304.6,172c-1,0-1.6,0.7-1.7,1.7h3.2C306.1,172.9,305.8,172,304.6,172z"/>
		<path class="st2" d="M308.8,172.3c0.2-0.6,0.8-1,1.7-1c0.2,0,0.4,0.2,0.4,0.4s-0.2,0.4-0.4,0.4c-1.1,0-1.7,0.8-1.7,1.9v2.7
			c0,0.2-0.2,0.4-0.4,0.4c-0.2,0-0.4-0.2-0.4-0.4v-4.9c0-0.2,0.2-0.4,0.4-0.4c0.2,0,0.4,0.2,0.4,0.4V172.3z"/>
		<path class="st2" d="M312.1,170.2c0-0.2,0.2-0.4,0.4-0.4c0.2,0,0.4,0.2,0.4,0.4v1.3h0.8c0.2,0,0.4,0.2,0.4,0.4s-0.2,0.4-0.4,0.4
			h-0.8v3.3c0,0.5,0.3,0.8,0.7,0.8c0.2,0,0.4,0.2,0.4,0.4s-0.2,0.4-0.4,0.4c-0.9,0-1.5-0.6-1.5-1.5v-3.3h-0.5
			c-0.2,0-0.4-0.2-0.4-0.4s0.2-0.4,0.4-0.4h0.5V170.2z"/>
		<path class="st2" d="M317.2,171.3c1.9,0,2.3,1.5,2.3,2.3c0,0.3,0,0.8-0.5,0.8h-3.5c0,1.2,0.7,2,1.8,2c0.7,0,1.1-0.3,1.4-0.5
			c0.1,0,0.1-0.1,0.2-0.1c0.2,0,0.3,0.2,0.3,0.3s-0.1,0.2-0.1,0.3c-0.2,0.2-0.8,0.7-1.9,0.7c-1.6,0-2.6-0.9-2.6-2.9
			C314.8,172.4,315.7,171.3,317.2,171.3z M317.2,172c-1,0-1.6,0.7-1.7,1.7h3.2C318.8,172.9,318.5,172,317.2,172z"/>
		<path class="st2" d="M323.5,176.5c0-0.4,0.2-0.6,0.6-0.6c0.3,0,0.6,0.2,0.6,0.6c0,0.4-0.2,0.6-0.6,0.6
			C323.7,177,323.5,176.9,323.5,176.5z M324.5,169.2l-0.2,5.6c0,0.1-0.1,0.2-0.2,0.2c-0.2,0-0.2-0.1-0.2-0.2l-0.2-5.6
			c0-0.3,0.1-0.4,0.4-0.4C324.3,168.8,324.5,168.9,324.5,169.2z"/>
		<path class="st2" d="M330.3,170.5l-0.7,1.1c-0.1,0.2-0.2,0.2-0.3,0.1s-0.2-0.2-0.1-0.3l0.8-1.1l-1.2-0.3c-0.2,0-0.2-0.1-0.2-0.3
			s0.2-0.2,0.3-0.2l1.3,0.4v-1.3c0-0.2,0.1-0.2,0.3-0.2s0.3,0.1,0.3,0.2v1.3l1.3-0.4c0.1,0,0.3,0,0.3,0.2s0,0.3-0.2,0.3l-1.2,0.3
			l0.8,1.1c0.1,0.1,0.1,0.3-0.1,0.3c-0.1,0.1-0.3,0.1-0.3-0.1L330.3,170.5z"/>
	</g>
	<polyline class="st3" points="233.9,72.3 236.7,75.7 243.1,69.3 	"/>
	<polyline class="st3" points="233.9,102.4 236.7,105.9 243.1,99.4 	"/>
	<polyline class="st3" points="233.9,143.5 236.7,146.9 243.1,140.5 	"/>
	<polyline class="st4" points="217.1,168.9 217.1,14.6 387.5,14.6 387.5,198.4 	"/>
	<line class="st4" x1="369.1" y1="197.9" x2="242.8" y2="197.9"/>
	<line class="st4" x1="387.4" y1="197.9" x2="359.7" y2="198.2"/>
	<g>
		<line class="st3" x1="238.9" y1="167.6" x2="238.9" y2="177.7"/>
		<line class="st3" x1="244" y1="172.7" x2="233.9" y2="172.7"/>
	</g>
</g>
<g>
	<g>
		<path class="st0" d="M428.5,40.2v5.2c0,0.3-0.3,0.6-0.6,0.6c-0.3,0-0.6-0.3-0.6-0.6V34.2c0-0.3,0.3-0.6,0.6-0.6
			c0.3,0,0.6,0.3,0.6,0.6V39h6.3v-4.9c0-0.3,0.3-0.6,0.6-0.6c0.3,0,0.6,0.3,0.6,0.6v11.2c0,0.3-0.3,0.6-0.6,0.6
			c-0.3,0-0.6-0.3-0.6-0.6v-5.2h-6.3V40.2z"/>
		<path class="st0" d="M440.7,45.8c-0.3,0-0.6-0.3-0.6-0.6V34.3c0-0.3,0.3-0.6,0.6-0.6h5.8c0.3,0,0.6,0.3,0.6,0.6s-0.3,0.6-0.6,0.6
			h-5.2v4.3h4c0.3,0,0.6,0.3,0.6,0.6s-0.3,0.6-0.6,0.6h-4v4.4h5.4c0.3,0,0.6,0.3,0.6,0.6S447,46,446.7,46h-6V45.8z M442.7,32.2
			l1.6-1.9c0.1-0.2,0.4-0.3,0.7,0c0.3,0.3,0.3,0.5,0.1,0.7l-1.7,1.8c-0.2,0.2-0.3,0.2-0.5,0C442.6,32.6,442.6,32.4,442.7,32.2z"/>
		<path class="st0" d="M456.9,44.7c0.3,0,0.6,0.3,0.6,0.6s-0.3,0.6-0.6,0.6h-5.5c-0.3,0-0.6-0.3-0.6-0.6v-11c0-0.3,0.3-0.6,0.6-0.6
			c0.3,0,0.6,0.3,0.6,0.6v10.5L456.9,44.7L456.9,44.7z"/>
		<path class="st0" d="M460.1,39.8c0-4.3,2.1-6.3,5.6-6.3s5.6,2.1,5.6,6.3s-2.1,6.3-5.6,6.3S460.1,44,460.1,39.8z M461.4,39.8
			c0,3.5,1.6,5.2,4.4,5.2s4.4-1.7,4.4-5.2s-1.6-5.2-4.4-5.2S461.4,36.2,461.4,39.8z"/>
		<path class="st0" d="M474.9,42.1v-8c0-0.3,0.3-0.6,0.6-0.6c0.3,0,0.6,0.3,0.6,0.6v8c0,1.4,0.5,2.8,3,2.8s3-1.4,3-2.8v-8
			c0-0.3,0.3-0.6,0.6-0.6c0.3,0,0.6,0.3,0.6,0.6v8c0,2-0.8,3.9-4.2,3.9C475.7,46.1,474.9,44.1,474.9,42.1z"/>
	</g>
	<g>
		<path class="st1" d="M533.4,35.5c-0.5,0-0.9-0.4-0.9-0.9s0.4-0.9,0.9-0.9h5.8c0.5,0,0.9,0.4,0.9,0.9c0,0.2-0.1,0.4-0.2,0.6l-2.6,3
			c2.5,0.3,3.3,2.1,3.3,4c0,2.5-1.5,3.9-4.4,3.9c-1.9,0-3.3-0.9-4.1-2c-0.1-0.2-0.2-0.3-0.2-0.5c0-0.5,0.4-1,1-1
			c0.3,0,0.6,0.1,0.9,0.5c0.6,0.7,1.3,1.2,2.5,1.2c1.6,0,2.4-0.8,2.4-2.1s-0.5-2.2-2.1-2.2h-1.1c-0.6,0-1-0.4-1-0.9
			c0-0.3,0.1-0.5,0.2-0.6l2.5-2.9L533.4,35.5L533.4,35.5z"/>
		<path class="st1" d="M552.6,39.7c0,4.3-1.5,6.3-4.7,6.3s-4.7-2-4.7-6.3s1.5-6.3,4.7-6.3S552.6,35.4,552.6,39.7z M550.6,39.7
			c0-3.1-0.8-4.5-2.6-4.5s-2.7,1.4-2.7,4.5c0,3.2,0.8,4.5,2.7,4.5S550.6,42.9,550.6,39.7z"/>
		<path class="st1" d="M557.4,41.8c0.4,1.7,1.5,2.4,3.3,2.4c1.3,0,2-0.3,2.9-1.2c0.3-0.3,0.5-0.4,0.8-0.4c0.5,0,1,0.4,1,1
			c0,0.2-0.1,0.4-0.2,0.5c-0.9,1.2-2.5,1.9-4.5,1.9c-3,0-4.9-1.3-5.5-4.3h-0.3c-0.4,0-0.8-0.3-0.8-0.8s0.3-0.8,0.8-0.8h0.1v-0.8
			h-0.1c-0.4,0-0.8-0.3-0.8-0.8c0-0.4,0.3-0.8,0.8-0.8h0.3c0.5-3,2.4-4.5,5.5-4.5c2.2,0,3.6,0.9,4.3,1.9c0.1,0.2,0.2,0.4,0.2,0.6
			c0,0.5-0.4,1-1,1c-0.3,0-0.5-0.1-0.7-0.4c-0.7-0.8-1.5-1.3-2.8-1.3c-1.8,0-2.9,0.9-3.3,2.6h2.2c0.4,0,0.8,0.3,0.8,0.8
			c0,0.4-0.3,0.8-0.8,0.8h-2.4V40h2.4c0.4,0,0.8,0.3,0.8,0.8s-0.3,0.8-0.8,0.8h-2.2V41.8z"/>
	</g>
	<g>
		<path class="st2" d="M447.2,67.8c-0.2,0-0.4-0.2-0.4-0.4c0-0.2,0.2-0.4,0.4-0.4h5.1c0.2,0,0.4,0.2,0.4,0.4c0,0.2-0.2,0.4-0.4,0.4
			h-2.1v7c0,0.2-0.2,0.4-0.4,0.4c-0.2,0-0.4-0.2-0.4-0.4v-7H447.2z"/>
		<path class="st2" d="M455.8,69.5c1.9,0,2.3,1.5,2.3,2.3c0,0.3,0,0.8-0.5,0.8h-3.5c0,1.2,0.7,2,1.8,2c0.7,0,1.1-0.3,1.4-0.5
			c0.1,0,0.1-0.1,0.2-0.1c0.2,0,0.3,0.2,0.3,0.3c0,0.1-0.1,0.2-0.1,0.3c-0.2,0.2-0.8,0.7-1.9,0.7c-1.6,0-2.6-0.9-2.6-2.9
			C453.4,70.5,454.3,69.5,455.8,69.5z M455.8,70.2c-1,0-1.6,0.7-1.7,1.7h3.2C457.4,71.1,457.1,70.2,455.8,70.2z"/>
		<path class="st2" d="M467.6,71.6v3.2c0,0.2-0.2,0.4-0.4,0.4c-0.2,0-0.4-0.2-0.4-0.4v-3c0-0.9-0.3-1.6-1.5-1.6
			c-1,0-1.5,0.6-1.5,1.4v3.2c0,0.2-0.2,0.4-0.4,0.4S463,75,463,74.8v-3c0-0.9-0.3-1.6-1.5-1.6c-1.1,0-1.5,0.7-1.5,1.7v3
			c0,0.2-0.2,0.4-0.4,0.4c-0.2,0-0.4-0.2-0.4-0.4V70c0-0.2,0.2-0.4,0.4-0.4c0.2,0,0.4,0.2,0.4,0.4v0.4c0.2-0.4,0.8-0.8,1.6-0.8
			c1,0,1.6,0.4,1.9,0.8c0.3-0.5,0.8-0.8,1.8-0.8C467.1,69.5,467.6,70.6,467.6,71.6z"/>
		<path class="st2" d="M469.8,70v0.4c0.2-0.4,0.8-0.8,1.6-0.8c1.6,0,2.5,0.9,2.5,2.9s-0.9,2.9-2.5,2.9c-0.8,0-1.4-0.4-1.6-0.8v2.7
			c0,0.2-0.2,0.4-0.4,0.4c-0.2,0-0.4-0.2-0.4-0.4V70c0-0.2,0.2-0.4,0.4-0.4C469.6,69.6,469.8,69.7,469.8,70z M471.4,74.6
			c1.1,0,1.7-0.7,1.7-2.2s-0.6-2.2-1.8-2.2c-0.9,0-1.6,0.6-1.6,2.2C469.7,73.9,470.5,74.6,471.4,74.6z"/>
		<path class="st2" d="M475.7,71c0,1.3,3.2,0.8,3.2,2.7c0,1.1-0.9,1.6-2,1.6c-1,0-1.7-0.5-2.1-0.9c-0.1-0.1-0.1-0.1-0.1-0.2
			c0-0.2,0.2-0.3,0.3-0.3c0.1,0,0.2,0,0.3,0.1c0.4,0.4,0.9,0.6,1.5,0.6c0.7,0,1.3-0.2,1.3-0.9c0-1.2-3.2-0.7-3.2-2.7
			c0-1,0.8-1.5,1.8-1.5c0.8,0,1.5,0.3,1.8,0.8c0,0,0.1,0.1,0.1,0.2c0,0.2-0.2,0.3-0.3,0.3c-0.1,0-0.2,0-0.3-0.1
			c-0.3-0.3-0.7-0.5-1.3-0.5C476.3,70.3,475.7,70.4,475.7,71z"/>
		<path class="st2" d="M483,68c0-0.3,0.2-0.5,0.5-0.5s0.5,0.1,0.5,0.5c0,0.3-0.2,0.5-0.5,0.5S483,68.3,483,68z M483.8,74.8
			c0,0.2-0.2,0.4-0.4,0.4S483,75,483,74.8V70c0-0.2,0.2-0.4,0.4-0.4s0.4,0.2,0.4,0.4V74.8z"/>
		<path class="st2" d="M486.1,67v6.8c0,0.5,0.2,0.7,0.5,0.7c0.2,0,0.4,0.2,0.4,0.4c0,0.2-0.2,0.4-0.4,0.4c-0.8,0-1.2-0.5-1.2-1.4V67
			c0-0.2,0.2-0.4,0.4-0.4C486,66.6,486.1,66.8,486.1,67z"/>
		<path class="st2" d="M488.8,67v6.8c0,0.5,0.2,0.7,0.5,0.7c0.2,0,0.4,0.2,0.4,0.4c0,0.2-0.2,0.4-0.4,0.4c-0.8,0-1.2-0.5-1.2-1.4V67
			c0-0.2,0.2-0.4,0.4-0.4C488.6,66.6,488.8,66.8,488.8,67z"/>
		<path class="st2" d="M490.5,68c0-0.3,0.2-0.5,0.5-0.5s0.5,0.1,0.5,0.5c0,0.3-0.2,0.5-0.5,0.5S490.5,68.3,490.5,68z M491.4,74.8
			c0,0.2-0.2,0.4-0.4,0.4s-0.4-0.2-0.4-0.4V70c0-0.2,0.2-0.4,0.4-0.4s0.4,0.2,0.4,0.4V74.8z"/>
		<path class="st2" d="M501.2,71.6v3.2c0,0.2-0.2,0.4-0.4,0.4c-0.2,0-0.4-0.2-0.4-0.4v-3c0-0.9-0.3-1.6-1.5-1.6
			c-1,0-1.5,0.6-1.5,1.4v3.2c0,0.2-0.2,0.4-0.4,0.4s-0.4-0.2-0.4-0.4v-3c0-0.9-0.3-1.6-1.5-1.6c-1.1,0-1.5,0.7-1.5,1.7v3
			c0,0.2-0.2,0.4-0.4,0.4c-0.2,0-0.4-0.2-0.4-0.4V70c0-0.2,0.2-0.4,0.4-0.4c0.2,0,0.4,0.2,0.4,0.4v0.4c0.2-0.4,0.8-0.8,1.6-0.8
			c1,0,1.6,0.4,1.9,0.8c0.3-0.5,0.8-0.8,1.8-0.8C500.8,69.5,501.2,70.6,501.2,71.6z"/>
		<path class="st2" d="M502.6,68c0-0.3,0.2-0.5,0.5-0.5s0.5,0.1,0.5,0.5c0,0.3-0.2,0.5-0.5,0.5S502.6,68.3,502.6,68z M503.4,74.8
			c0,0.2-0.2,0.4-0.4,0.4s-0.4-0.2-0.4-0.4V70c0-0.2,0.2-0.4,0.4-0.4s0.4,0.2,0.4,0.4V74.8z"/>
		<path class="st2" d="M505.3,68.4c0-0.2,0.2-0.4,0.4-0.4c0.2,0,0.4,0.2,0.4,0.4v1.3h0.8c0.2,0,0.4,0.2,0.4,0.4
			c0,0.2-0.2,0.4-0.4,0.4H506v3.3c0,0.5,0.3,0.8,0.7,0.8c0.2,0,0.4,0.2,0.4,0.4c0,0.2-0.2,0.4-0.4,0.4c-0.9,0-1.5-0.6-1.5-1.5v-3.3
			h-0.5c-0.2,0-0.4-0.2-0.4-0.4c0-0.2,0.2-0.4,0.4-0.4h0.5L505.3,68.4L505.3,68.4z"/>
		<path class="st2" d="M510.4,69.5c1.9,0,2.3,1.5,2.3,2.3c0,0.3,0,0.8-0.5,0.8h-3.5c0,1.2,0.7,2,1.8,2c0.7,0,1.1-0.3,1.4-0.5
			c0.1,0,0.1-0.1,0.2-0.1c0.2,0,0.3,0.2,0.3,0.3c0,0.1-0.1,0.2-0.1,0.3c-0.2,0.2-0.8,0.7-1.9,0.7c-1.6,0-2.6-0.9-2.6-2.9
			C507.9,70.5,508.9,69.5,510.4,69.5z M510.4,70.2c-1,0-1.6,0.7-1.7,1.7h3.2C511.9,71.1,511.6,70.2,510.4,70.2z M509.8,68.5l1.1-1.3
			c0.1-0.1,0.3-0.2,0.5,0s0.2,0.3,0,0.5l-1.2,1.2c-0.1,0.1-0.2,0.1-0.4,0C509.7,68.8,509.7,68.6,509.8,68.5z"/>
		<path class="st2" d="M447.5,98c-0.1,0-0.1,0.1-0.2,0.1c-0.2,0-0.4-0.2-0.4-0.4c0-0.1,0.1-0.3,0.2-0.3L449,96
			c0.1-0.1,0.2-0.1,0.2-0.1c0.2,0,0.4,0.2,0.4,0.4v7.5c0,0.2-0.2,0.4-0.4,0.4s-0.4-0.2-0.4-0.4V97L447.5,98z"/>
		<path class="st2" d="M459.1,101.4c0,2-0.9,2.9-2.5,2.9c-1.4,0-2.4-0.8-2.4-2.4V96c0-0.2,0.2-0.4,0.4-0.4c0.2,0,0.4,0.2,0.4,0.4
			v3.3c0.3-0.4,0.9-0.8,1.6-0.8C458.3,98.5,459.1,99.4,459.1,101.4z M455.1,101.9c0,1.1,0.7,1.7,1.6,1.7c1.1,0,1.7-0.7,1.7-2.2
			s-0.6-2.2-1.7-2.2s-1.6,1.1-1.6,1.1V101.9z"/>
		<path class="st2" d="M465,101.4c0,2-1,2.9-2.5,2.9s-2.5-0.9-2.5-2.9s1-2.9,2.5-2.9C464.1,98.5,465,99.4,465,101.4z M464.2,101.4
			c0-1.5-0.6-2.2-1.7-2.2s-1.7,0.7-1.7,2.2s0.6,2.2,1.7,2.2S464.2,102.9,464.2,101.4z"/>
		<path class="st2" d="M466.1,97c0-0.3,0.2-0.5,0.5-0.5s0.5,0.1,0.5,0.5c0,0.3-0.2,0.5-0.5,0.5S466.1,97.3,466.1,97z M467,103.8
			c0,0.2-0.2,0.4-0.4,0.4s-0.4-0.2-0.4-0.4V99c0-0.2,0.2-0.4,0.4-0.4s0.4,0.2,0.4,0.4V103.8z"/>
		<path class="st2" d="M469.2,100c0,1.3,3.2,0.8,3.2,2.7c0,1.1-0.9,1.6-2,1.6c-1,0-1.7-0.5-2.1-0.9c-0.1-0.1-0.1-0.1-0.1-0.2
			c0-0.2,0.2-0.3,0.3-0.3c0.1,0,0.2,0,0.3,0.1c0.4,0.4,0.9,0.6,1.5,0.6c0.7,0,1.3-0.2,1.3-0.9c0-1.2-3.2-0.7-3.2-2.7
			c0-1,0.8-1.5,1.8-1.5c0.8,0,1.5,0.3,1.8,0.8c0,0,0.1,0.1,0.1,0.2c0,0.2-0.2,0.3-0.3,0.3c-0.1,0-0.2,0-0.3-0.1
			c-0.3-0.3-0.7-0.5-1.3-0.5C469.7,99.3,469.2,99.4,469.2,100z"/>
		<path class="st2" d="M474.3,100c0,1.3,3.2,0.8,3.2,2.7c0,1.1-0.9,1.6-2,1.6c-1,0-1.7-0.5-2.1-0.9c-0.1-0.1-0.1-0.1-0.1-0.2
			c0-0.2,0.2-0.3,0.3-0.3c0.1,0,0.2,0,0.3,0.1c0.4,0.4,0.9,0.6,1.5,0.6c0.7,0,1.3-0.2,1.3-0.9c0-1.2-3.2-0.7-3.2-2.7
			c0-1,0.8-1.5,1.8-1.5c0.8,0,1.5,0.3,1.8,0.8c0,0,0.1,0.1,0.1,0.2c0,0.2-0.2,0.3-0.3,0.3c-0.1,0-0.2,0-0.3-0.1
			c-0.3-0.3-0.7-0.5-1.3-0.5C474.8,99.3,474.3,99.4,474.3,100z"/>
		<path class="st2" d="M483.4,101.4c0,2-1,2.9-2.5,2.9s-2.5-0.9-2.5-2.9s1-2.9,2.5-2.9S483.4,99.4,483.4,101.4z M482.6,101.4
			c0-1.5-0.6-2.2-1.7-2.2s-1.7,0.7-1.7,2.2s0.6,2.2,1.7,2.2S482.6,102.9,482.6,101.4z"/>
		<path class="st2" d="M489.2,100.6v3.2c0,0.2-0.2,0.4-0.4,0.4s-0.4-0.2-0.4-0.4v-3c0-0.9-0.3-1.6-1.4-1.6c-1.2,0-1.6,0.7-1.6,1.7v3
			c0,0.2-0.2,0.4-0.4,0.4c-0.2,0-0.4-0.2-0.4-0.4V99c0-0.2,0.2-0.4,0.4-0.4c0.2,0,0.4,0.2,0.4,0.4v0.4c0.2-0.5,0.8-0.8,1.6-0.8
			C488.8,98.5,489.2,99.6,489.2,100.6z"/>
		<path class="st2" d="M495.6,98.5c1.1,0,1.7,0.6,1.8,0.8c0.1,0.1,0.1,0.1,0.1,0.2c0,0.2-0.2,0.3-0.3,0.3c-0.1,0-0.2,0-0.3-0.1
			c-0.2-0.2-0.5-0.6-1.3-0.6c-1.1,0-1.7,0.7-1.7,2.2s0.6,2.2,1.7,2.2c0.7,0,1.1-0.3,1.4-0.5c0.1-0.1,0.1-0.1,0.2-0.1
			c0.2,0,0.3,0.2,0.3,0.3c0,0.1,0,0.2-0.2,0.3c-0.3,0.2-0.8,0.6-1.8,0.6c-1.5,0-2.5-0.9-2.5-2.9S494,98.5,495.6,98.5z"/>
		<path class="st2" d="M503.3,100.6v3.2c0,0.2-0.2,0.4-0.4,0.4s-0.4-0.2-0.4-0.4v-3c0-0.9-0.3-1.6-1.4-1.6c-1.2,0-1.6,0.7-1.6,1.7v3
			c0,0.2-0.2,0.4-0.4,0.4c-0.2,0-0.4-0.2-0.4-0.4V96c0-0.2,0.2-0.4,0.4-0.4c0.2,0,0.4,0.2,0.4,0.4v3.4c0.2-0.5,0.8-0.8,1.6-0.8
			C503,98.5,503.3,99.6,503.3,100.6z"/>
		<path class="st2" d="M505.4,99.8c-0.1,0.1-0.2,0.2-0.3,0.2c-0.2,0-0.3-0.2-0.3-0.3c0-0.1,0-0.1,0.1-0.2c0.3-0.5,1-0.9,2-0.9
			c1.4,0,2.2,0.8,2.2,2v3.3c0,0.2-0.2,0.4-0.4,0.4c-0.2,0-0.4-0.2-0.4-0.4v-0.4c-0.3,0.6-1,0.9-1.7,0.9c-1.3,0-2.1-0.6-2.1-1.7
			s0.8-1.7,2.1-1.7h1.7v-0.3c0-0.8-0.5-1.3-1.4-1.3C506.1,99.2,505.7,99.4,505.4,99.8z M508.2,102v-0.5h-1.7c-0.8,0-1.3,0.3-1.3,1
			c0,0.6,0.4,1,1.4,1C507.4,103.6,508.2,103.1,508.2,102z"/>
		<path class="st2" d="M511,99v3.1c0,0.8,0.3,1.5,1.5,1.5s1.5-0.7,1.5-1.5V99c0-0.2,0.2-0.4,0.4-0.4s0.4,0.2,0.4,0.4v3.1
			c0,1.1-0.4,2.2-2.2,2.2s-2.2-1-2.2-2.2V99c0-0.2,0.2-0.4,0.4-0.4C510.8,98.6,511,98.7,511,99z"/>
		<path class="st2" d="M519.8,99.3V96c0-0.2,0.2-0.4,0.4-0.4s0.4,0.2,0.4,0.4v5.9c0,1.6-1,2.4-2.4,2.4c-1.5,0-2.5-0.9-2.5-2.9
			s0.9-2.9,2.4-2.9C519,98.5,519.6,98.9,519.8,99.3z M519.8,100.3c0,0-0.5-1.1-1.6-1.1s-1.7,0.7-1.7,2.2s0.6,2.2,1.7,2.2
			c0.9,0,1.6-0.5,1.6-1.7V100.3z"/>
		<path class="st2" d="M524.3,98.5c1.9,0,2.3,1.5,2.3,2.3c0,0.3,0,0.8-0.5,0.8h-3.5c0,1.2,0.7,2,1.8,2c0.7,0,1.1-0.3,1.4-0.5
			c0.1,0,0.1-0.1,0.2-0.1c0.2,0,0.3,0.2,0.3,0.3c0,0.1-0.1,0.2-0.1,0.3c-0.2,0.2-0.8,0.7-1.9,0.7c-1.6,0-2.6-0.9-2.6-2.9
			C521.8,99.5,522.7,98.5,524.3,98.5z M524.3,99.2c-1,0-1.6,0.7-1.7,1.7h3.2C525.8,100.1,525.5,99.2,524.3,99.2z"/>
		<path class="st2" d="M535.3,101.4c0,2-1,2.9-2.5,2.9s-2.5-0.9-2.5-2.9s1-2.9,2.5-2.9S535.3,99.4,535.3,101.4z M534.5,101.4
			c0-1.5-0.6-2.2-1.7-2.2s-1.7,0.7-1.7,2.2s0.6,2.2,1.7,2.2S534.5,102.9,534.5,101.4z"/>
		<path class="st2" d="M537.1,99v3.1c0,0.8,0.3,1.5,1.5,1.5s1.5-0.7,1.5-1.5V99c0-0.2,0.2-0.4,0.4-0.4s0.4,0.2,0.4,0.4v3.1
			c0,1.1-0.4,2.2-2.2,2.2s-2.2-1-2.2-2.2V99c0-0.2,0.2-0.4,0.4-0.4C537,98.6,537.1,98.7,537.1,99z"/>
		<path class="st2" d="M447.9,113v3.1c0,0.8,0.3,1.5,1.5,1.5s1.5-0.7,1.5-1.5V113c0-0.2,0.2-0.4,0.4-0.4c0.2,0,0.4,0.2,0.4,0.4v3.1
			c0,1.1-0.4,2.2-2.2,2.2c-1.8,0-2.2-1-2.2-2.2V113c0-0.2,0.2-0.4,0.4-0.4C447.7,112.6,447.9,112.7,447.9,113z"/>
		<path class="st2" d="M457.6,114.6v3.2c0,0.2-0.2,0.4-0.4,0.4s-0.4-0.2-0.4-0.4v-3c0-0.9-0.3-1.6-1.4-1.6c-1.2,0-1.6,0.7-1.6,1.7v3
			c0,0.2-0.2,0.4-0.4,0.4c-0.2,0-0.4-0.2-0.4-0.4V113c0-0.2,0.2-0.4,0.4-0.4c0.2,0,0.4,0.2,0.4,0.4v0.4c0.2-0.5,0.8-0.8,1.6-0.8
			C457.3,112.5,457.6,113.6,457.6,114.6z"/>
		<path class="st2" d="M461.9,113c0-0.2,0.2-0.4,0.4-0.4c0.2,0,0.4,0.2,0.4,0.4v5.6c0,1-0.7,1.8-1.8,1.8c-0.2,0-0.4-0.2-0.4-0.4
			c0-0.2,0.2-0.4,0.4-0.4c0.6,0,1-0.5,1-1.1V113z M461.8,111c0-0.3,0.2-0.5,0.5-0.5s0.5,0.1,0.5,0.5c0,0.3-0.2,0.5-0.5,0.5
			S461.8,111.3,461.8,111z"/>
		<path class="st2" d="M464.9,113v3.1c0,0.8,0.3,1.5,1.5,1.5s1.5-0.7,1.5-1.5V113c0-0.2,0.2-0.4,0.4-0.4c0.2,0,0.4,0.2,0.4,0.4v3.1
			c0,1.1-0.4,2.2-2.2,2.2c-1.8,0-2.2-1-2.2-2.2V113c0-0.2,0.2-0.4,0.4-0.4C464.7,112.6,464.9,112.7,464.9,113z"/>
		<path class="st2" d="M470.7,114c0,1.3,3.2,0.8,3.2,2.7c0,1.1-0.9,1.6-2,1.6c-1,0-1.7-0.5-2.1-0.9c-0.1-0.1-0.1-0.1-0.1-0.2
			c0-0.2,0.2-0.3,0.3-0.3c0.1,0,0.2,0,0.3,0.1c0.4,0.4,0.9,0.6,1.5,0.6c0.7,0,1.3-0.2,1.3-0.9c0-1.2-3.2-0.7-3.2-2.7
			c0-1,0.8-1.5,1.8-1.5c0.8,0,1.5,0.3,1.8,0.8c0,0,0.1,0.1,0.1,0.2c0,0.2-0.2,0.3-0.3,0.3c-0.1,0-0.2,0-0.3-0.1
			c-0.3-0.3-0.7-0.5-1.3-0.5C471.2,113.3,470.7,113.4,470.7,114z"/>
		<path class="st2" d="M481.6,113.3V110c0-0.2,0.2-0.4,0.4-0.4s0.4,0.2,0.4,0.4v5.9c0,1.6-1,2.4-2.4,2.4c-1.5,0-2.5-0.9-2.5-2.9
			s0.9-2.9,2.4-2.9C480.8,112.5,481.4,112.9,481.6,113.3z M481.6,114.3c0,0-0.5-1.1-1.6-1.1s-1.7,0.7-1.7,2.2s0.6,2.2,1.7,2.2
			c0.9,0,1.6-0.5,1.6-1.7V114.3z"/>
		<path class="st2" d="M486.1,112.5c1.9,0,2.3,1.5,2.3,2.3c0,0.3,0,0.8-0.5,0.8h-3.5c0,1.2,0.7,2,1.8,2c0.7,0,1.1-0.3,1.4-0.5
			c0.1,0,0.1-0.1,0.2-0.1c0.2,0,0.3,0.2,0.3,0.3c0,0.1-0.1,0.2-0.1,0.3c-0.2,0.2-0.8,0.7-1.9,0.7c-1.6,0-2.6-0.9-2.6-2.9
			C483.6,113.5,484.5,112.5,486.1,112.5z M486.1,113.2c-1,0-1.6,0.7-1.7,1.7h3.2C487.6,114.1,487.3,113.2,486.1,113.2z"/>
		<path class="st2" d="M492.3,113.4c-0.2,0-0.4-0.2-0.4-0.4c0-0.2,0.2-0.4,0.4-0.4h0.4V112c0-1.1,0.6-2.1,2.1-2.1
			c0.2,0,0.4,0.2,0.4,0.4c0,0.2-0.2,0.4-0.4,0.4c-0.9,0-1.3,0.6-1.3,1.3v0.7h1.1c0.2,0,0.4,0.2,0.4,0.4c0,0.2-0.2,0.4-0.4,0.4h-1.1
			v4.4c0,0.2-0.2,0.4-0.4,0.4s-0.4-0.2-0.4-0.4v-4.4h-0.4V113.4z"/>
		<path class="st2" d="M496.7,113.5c0.2-0.6,0.8-1,1.7-1c0.2,0,0.4,0.2,0.4,0.4c0,0.2-0.2,0.4-0.4,0.4c-1.1,0-1.7,0.8-1.7,1.9v2.7
			c0,0.2-0.2,0.4-0.4,0.4c-0.2,0-0.4-0.2-0.4-0.4V113c0-0.2,0.2-0.4,0.4-0.4c0.2,0,0.4,0.2,0.4,0.4V113.5z"/>
		<path class="st2" d="M500.3,113v3.1c0,0.8,0.3,1.5,1.5,1.5s1.5-0.7,1.5-1.5V113c0-0.2,0.2-0.4,0.4-0.4c0.2,0,0.4,0.2,0.4,0.4v3.1
			c0,1.1-0.4,2.2-2.2,2.2c-1.8,0-2.2-1-2.2-2.2V113c0-0.2,0.2-0.4,0.4-0.4C500.1,112.6,500.3,112.7,500.3,113z"/>
		<path class="st2" d="M505.3,111c0-0.3,0.2-0.5,0.5-0.5s0.5,0.1,0.5,0.5c0,0.3-0.2,0.5-0.5,0.5S505.3,111.3,505.3,111z
			 M506.1,117.8c0,0.2-0.2,0.4-0.4,0.4s-0.4-0.2-0.4-0.4V113c0-0.2,0.2-0.4,0.4-0.4s0.4,0.2,0.4,0.4V117.8z"/>
		<path class="st2" d="M508,111.4c0-0.2,0.2-0.4,0.4-0.4c0.2,0,0.4,0.2,0.4,0.4v1.3h0.8c0.2,0,0.4,0.2,0.4,0.4
			c0,0.2-0.2,0.4-0.4,0.4h-0.8v3.3c0,0.5,0.3,0.8,0.7,0.8c0.2,0,0.4,0.2,0.4,0.4c0,0.2-0.2,0.4-0.4,0.4c-0.9,0-1.5-0.6-1.5-1.5v-3.3
			h-0.5c-0.2,0-0.4-0.2-0.4-0.4c0-0.2,0.2-0.4,0.4-0.4h0.5V111.4z"/>
		<path class="st2" d="M447.5,140c-0.1,0-0.1,0.1-0.2,0.1c-0.2,0-0.4-0.2-0.4-0.4c0-0.1,0.1-0.3,0.2-0.3l1.9-1.3
			c0.1-0.1,0.2-0.1,0.2-0.1c0.2,0,0.4,0.2,0.4,0.4v7.5c0,0.2-0.2,0.4-0.4,0.4s-0.4-0.2-0.4-0.4v-6.8L447.5,140z"/>
		<path class="st2" d="M458,141.3V138c0-0.2,0.2-0.4,0.4-0.4s0.4,0.2,0.4,0.4v5.9c0,1.6-1,2.4-2.4,2.4c-1.5,0-2.5-0.9-2.5-2.9
			s0.9-2.9,2.4-2.9C457.1,140.5,457.7,140.9,458,141.3z M458,142.3c0,0-0.5-1.1-1.6-1.1s-1.7,0.7-1.7,2.2s0.6,2.2,1.7,2.2
			c0.9,0,1.6-0.5,1.6-1.7V142.3z"/>
		<path class="st2" d="M465,143.4c0,2-1,2.9-2.5,2.9s-2.5-0.9-2.5-2.9s1-2.9,2.5-2.9C464.1,140.5,465,141.4,465,143.4z M464.2,143.4
			c0-1.5-0.6-2.2-1.7-2.2s-1.7,0.7-1.7,2.2s0.6,2.2,1.7,2.2S464.2,144.9,464.2,143.4z"/>
		<path class="st2" d="M466.9,141v3.1c0,0.8,0.3,1.5,1.5,1.5s1.5-0.7,1.5-1.5V141c0-0.2,0.2-0.4,0.4-0.4c0.2,0,0.4,0.2,0.4,0.4v3.1
			c0,1.1-0.4,2.2-2.2,2.2c-1.8,0-2.2-1-2.2-2.2V141c0-0.2,0.2-0.4,0.4-0.4C466.7,140.6,466.9,140.7,466.9,141z"/>
		<path class="st2" d="M474.1,140.5c1.1,0,1.7,0.6,1.8,0.8c0.1,0.1,0.1,0.1,0.1,0.2c0,0.2-0.2,0.3-0.3,0.3c-0.1,0-0.2,0-0.3-0.1
			c-0.2-0.2-0.5-0.6-1.3-0.6c-1.1,0-1.7,0.7-1.7,2.2s0.6,2.2,1.7,2.2c0.7,0,1.1-0.3,1.4-0.5c0.1-0.1,0.1-0.1,0.2-0.1
			c0.2,0,0.3,0.2,0.3,0.3s0,0.2-0.2,0.3c-0.3,0.2-0.8,0.6-1.8,0.6c-1.5,0-2.5-0.9-2.5-2.9S472.6,140.5,474.1,140.5z"/>
		<path class="st2" d="M479.4,140.5c1.9,0,2.3,1.5,2.3,2.3c0,0.3,0,0.8-0.5,0.8h-3.5c0,1.2,0.7,2,1.8,2c0.7,0,1.1-0.3,1.4-0.5
			c0.1,0,0.1-0.1,0.2-0.1c0.2,0,0.3,0.2,0.3,0.3s-0.1,0.2-0.1,0.3c-0.2,0.2-0.8,0.7-1.9,0.7c-1.6,0-2.6-0.9-2.6-2.9
			C476.9,141.5,477.8,140.5,479.4,140.5z M479.4,141.2c-1,0-1.6,0.7-1.7,1.7h3.2C480.9,142.1,480.6,141.2,479.4,141.2z"/>
		<path class="st2" d="M483.5,141v3.1c0,0.8,0.3,1.5,1.5,1.5s1.5-0.7,1.5-1.5V141c0-0.2,0.2-0.4,0.4-0.4c0.2,0,0.4,0.2,0.4,0.4v3.1
			c0,1.1-0.4,2.2-2.2,2.2c-1.8,0-2.2-1-2.2-2.2V141c0-0.2,0.2-0.4,0.4-0.4C483.4,140.6,483.5,140.7,483.5,141z"/>
		<path class="st2" d="M489.4,141.5c0.2-0.6,0.8-1,1.7-1c0.2,0,0.4,0.2,0.4,0.4s-0.2,0.4-0.4,0.4c-1.1,0-1.7,0.8-1.7,1.9v2.7
			c0,0.2-0.2,0.4-0.4,0.4c-0.2,0-0.4-0.2-0.4-0.4V141c0-0.2,0.2-0.4,0.4-0.4c0.2,0,0.4,0.2,0.4,0.4V141.5z"/>
		<path class="st2" d="M496.2,142.4v3.5c0,0.2-0.2,0.4-0.4,0.4s-0.4-0.2-0.4-0.4v-7.4c0-0.2,0.2-0.4,0.4-0.4s0.4,0.2,0.4,0.4v3.2
			h4.2v-3.2c0-0.2,0.2-0.4,0.4-0.4s0.4,0.2,0.4,0.4v7.4c0,0.2-0.2,0.4-0.4,0.4s-0.4-0.2-0.4-0.4v-3.5H496.2z"/>
		<path class="st2" d="M505.1,140.5c1.9,0,2.3,1.5,2.3,2.3c0,0.3,0,0.8-0.5,0.8h-3.5c0,1.2,0.7,2,1.8,2c0.7,0,1.1-0.3,1.4-0.5
			c0.1,0,0.1-0.1,0.2-0.1c0.2,0,0.3,0.2,0.3,0.3s-0.1,0.2-0.1,0.3c-0.2,0.2-0.8,0.7-1.9,0.7c-1.6,0-2.6-0.9-2.6-2.9
			C502.6,141.5,503.5,140.5,505.1,140.5z M505.1,141.2c-1,0-1.6,0.7-1.7,1.7h3.2C506.6,142.1,506.3,141.2,505.1,141.2z M504.4,139.5
			l1.1-1.3c0.1-0.1,0.3-0.2,0.5,0s0.2,0.3,0,0.5l-1.2,1.2c-0.1,0.1-0.2,0.1-0.4,0C504.3,139.8,504.4,139.6,504.4,139.5z"/>
		<path class="st2" d="M509.3,138v6.8c0,0.5,0.2,0.7,0.5,0.7c0.2,0,0.4,0.2,0.4,0.4s-0.2,0.4-0.4,0.4c-0.8,0-1.2-0.5-1.2-1.4V138
			c0-0.2,0.2-0.4,0.4-0.4C509.2,137.6,509.3,137.8,509.3,138z"/>
		<path class="st2" d="M515.9,143.4c0,2-1,2.9-2.5,2.9s-2.5-0.9-2.5-2.9s1-2.9,2.5-2.9S515.9,141.4,515.9,143.4z M515.1,143.4
			c0-1.5-0.6-2.2-1.7-2.2s-1.7,0.7-1.7,2.2s0.6,2.2,1.7,2.2S515.1,144.9,515.1,143.4z"/>
		<path class="st2" d="M517.7,141v3.1c0,0.8,0.3,1.5,1.5,1.5s1.5-0.7,1.5-1.5V141c0-0.2,0.2-0.4,0.4-0.4s0.4,0.2,0.4,0.4v3.1
			c0,1.1-0.4,2.2-2.2,2.2s-2.2-1-2.2-2.2V141c0-0.2,0.2-0.4,0.4-0.4C517.5,140.6,517.7,140.7,517.7,141z"/>
		<path class="st2" d="M447.5,167c-0.1,0-0.1,0.1-0.2,0.1c-0.2,0-0.4-0.2-0.4-0.4c0-0.1,0.1-0.3,0.2-0.3l1.9-1.3
			c0.1-0.1,0.2-0.1,0.2-0.1c0.2,0,0.4,0.2,0.4,0.4v7.5c0,0.2-0.2,0.4-0.4,0.4s-0.4-0.2-0.4-0.4v-6.8L447.5,167z"/>
		<path class="st2" d="M455.1,168v0.4c0.2-0.4,0.8-0.8,1.6-0.8c1.6,0,2.5,0.9,2.5,2.9s-0.9,2.9-2.5,2.9c-0.8,0-1.4-0.4-1.6-0.8v2.7
			c0,0.2-0.2,0.4-0.4,0.4c-0.2,0-0.4-0.2-0.4-0.4V168c0-0.2,0.2-0.4,0.4-0.4S455.1,167.7,455.1,168z M456.7,172.6
			c1.1,0,1.7-0.7,1.7-2.2s-0.6-2.2-1.8-2.2c-0.9,0-1.6,0.6-1.6,2.2C455.1,171.9,455.8,172.6,456.7,172.6z"/>
		<path class="st2" d="M461.2,165v6.8c0,0.5,0.2,0.7,0.5,0.7c0.2,0,0.4,0.2,0.4,0.4s-0.2,0.4-0.4,0.4c-0.8,0-1.2-0.5-1.2-1.4V165
			c0-0.2,0.2-0.4,0.4-0.4C461,164.6,461.2,164.8,461.2,165z"/>
		<path class="st2" d="M463.7,168.8c-0.1,0.1-0.2,0.2-0.3,0.2c-0.2,0-0.3-0.2-0.3-0.3s0-0.1,0.1-0.2c0.3-0.5,1-0.9,2-0.9
			c1.4,0,2.2,0.8,2.2,2v3.3c0,0.2-0.2,0.4-0.4,0.4c-0.2,0-0.4-0.2-0.4-0.4v-0.4c-0.3,0.6-1,0.9-1.7,0.9c-1.3,0-2.1-0.6-2.1-1.7
			c0-1.1,0.8-1.7,2.1-1.7h1.7v-0.3c0-0.8-0.5-1.3-1.4-1.3C464.4,168.2,464,168.4,463.7,168.8z M466.5,171v-0.5h-1.7
			c-0.8,0-1.3,0.3-1.3,1c0,0.6,0.4,1,1.4,1C465.7,172.6,466.5,172.1,466.5,171z"/>
		<path class="st2" d="M469,166.4c0-0.2,0.2-0.4,0.4-0.4c0.2,0,0.4,0.2,0.4,0.4v1.3h0.8c0.2,0,0.4,0.2,0.4,0.4s-0.2,0.4-0.4,0.4
			h-0.8v3.3c0,0.5,0.3,0.8,0.7,0.8c0.2,0,0.4,0.2,0.4,0.4s-0.2,0.4-0.4,0.4c-0.9,0-1.5-0.6-1.5-1.5v-3.3h-0.5
			c-0.2,0-0.4-0.2-0.4-0.4s0.2-0.4,0.4-0.4h0.5V166.4z"/>
		<path class="st2" d="M474.1,167.5c1.9,0,2.3,1.5,2.3,2.3c0,0.3,0,0.8-0.5,0.8h-3.5c0,1.2,0.7,2,1.8,2c0.7,0,1.1-0.3,1.4-0.5
			c0.1,0,0.1-0.1,0.2-0.1c0.2,0,0.3,0.2,0.3,0.3s-0.1,0.2-0.1,0.3c-0.2,0.2-0.8,0.7-1.9,0.7c-1.6,0-2.6-0.9-2.6-2.9
			C471.7,168.5,472.6,167.5,474.1,167.5z M474.1,168.2c-1,0-1.6,0.7-1.7,1.7h3.2C475.7,169.1,475.4,168.2,474.1,168.2z"/>
		<path class="st2" d="M478.2,168.8c-0.1,0.1-0.2,0.2-0.3,0.2c-0.2,0-0.3-0.2-0.3-0.3s0-0.1,0.1-0.2c0.3-0.5,1-0.9,2-0.9
			c1.4,0,2.2,0.8,2.2,2v3.3c0,0.2-0.2,0.4-0.4,0.4c-0.2,0-0.4-0.2-0.4-0.4v-0.4c-0.3,0.6-1,0.9-1.7,0.9c-1.3,0-2.1-0.6-2.1-1.7
			c0-1.1,0.8-1.7,2.1-1.7h1.7v-0.3c0-0.8-0.5-1.3-1.4-1.3C479,168.2,478.6,168.4,478.2,168.8z M481,171v-0.5h-1.7
			c-0.8,0-1.3,0.3-1.3,1c0,0.6,0.4,1,1.4,1C480.2,172.6,481,172.1,481,171z"/>
		<path class="st2" d="M483.9,168v3.1c0,0.8,0.3,1.5,1.5,1.5s1.5-0.7,1.5-1.5V168c0-0.2,0.2-0.4,0.4-0.4c0.2,0,0.4,0.2,0.4,0.4v3.1
			c0,1.1-0.4,2.2-2.2,2.2c-1.8,0-2.2-1-2.2-2.2V168c0-0.2,0.2-0.4,0.4-0.4C483.7,167.6,483.9,167.7,483.9,168z"/>
		<path class="st2" d="M495.5,168.3V165c0-0.2,0.2-0.4,0.4-0.4s0.4,0.2,0.4,0.4v5.9c0,1.6-1,2.4-2.4,2.4c-1.5,0-2.5-0.9-2.5-2.9
			s0.9-2.9,2.4-2.9C494.7,167.5,495.3,167.9,495.5,168.3z M495.5,169.3c0,0-0.5-1.1-1.6-1.1s-1.7,0.7-1.7,2.2s0.6,2.2,1.7,2.2
			c0.9,0,1.6-0.5,1.6-1.7V169.3z"/>
		<path class="st2" d="M500,167.5c1.9,0,2.3,1.5,2.3,2.3c0,0.3,0,0.8-0.5,0.8h-3.5c0,1.2,0.7,2,1.8,2c0.7,0,1.1-0.3,1.4-0.5
			c0.1,0,0.1-0.1,0.2-0.1c0.2,0,0.3,0.2,0.3,0.3s-0.1,0.2-0.1,0.3c-0.2,0.2-0.8,0.7-1.9,0.7c-1.6,0-2.6-0.9-2.6-2.9
			C497.5,168.5,498.4,167.5,500,167.5z M500,168.2c-1,0-1.6,0.7-1.7,1.7h3.2C501.5,169.1,501.2,168.2,500,168.2z M499.3,166.5
			l1.1-1.3c0.1-0.1,0.3-0.2,0.5,0s0.2,0.3,0,0.5l-1.2,1.2c-0.1,0.1-0.2,0.1-0.4,0C499.2,166.8,499.3,166.6,499.3,166.5z"/>
		<path class="st2" d="M503.5,168c0-0.2,0.2-0.4,0.4-0.4c0.2,0,0.4,0.2,0.4,0.4v5.6c0,1-0.7,1.8-1.8,1.8c-0.2,0-0.4-0.2-0.4-0.4
			s0.2-0.4,0.4-0.4c0.6,0,1-0.5,1-1.1V168z M503.4,166c0-0.3,0.2-0.5,0.5-0.5s0.5,0.1,0.5,0.5c0,0.3-0.2,0.5-0.5,0.5
			S503.4,166.3,503.4,166z"/>
		<path class="st2" d="M507.9,167.5c1.9,0,2.3,1.5,2.3,2.3c0,0.3,0,0.8-0.5,0.8h-3.5c0,1.2,0.7,2,1.8,2c0.7,0,1.1-0.3,1.4-0.5
			c0.1,0,0.1-0.1,0.2-0.1c0.2,0,0.3,0.2,0.3,0.3s-0.1,0.2-0.1,0.3c-0.2,0.2-0.8,0.7-1.9,0.7c-1.6,0-2.6-0.9-2.6-2.9
			C505.4,168.5,506.3,167.5,507.9,167.5z M507.9,168.2c-1,0-1.6,0.7-1.7,1.7h3.2C509.4,169.1,509.1,168.2,507.9,168.2z"/>
		<path class="st2" d="M512,168v3.1c0,0.8,0.3,1.5,1.5,1.5s1.5-0.7,1.5-1.5V168c0-0.2,0.2-0.4,0.4-0.4s0.4,0.2,0.4,0.4v3.1
			c0,1.1-0.4,2.2-2.2,2.2s-2.2-1-2.2-2.2V168c0-0.2,0.2-0.4,0.4-0.4C511.8,167.6,512,167.7,512,168z"/>
		<path class="st2" d="M521.7,169.6v3.2c0,0.2-0.2,0.4-0.4,0.4s-0.4-0.2-0.4-0.4v-3c0-0.9-0.3-1.6-1.4-1.6c-1.2,0-1.6,0.7-1.6,1.7v3
			c0,0.2-0.2,0.4-0.4,0.4s-0.4-0.2-0.4-0.4V168c0-0.2,0.2-0.4,0.4-0.4s0.4,0.2,0.4,0.4v0.4c0.2-0.5,0.8-0.8,1.6-0.8
			C521.4,167.5,521.7,168.6,521.7,169.6z"/>
		<path class="st2" d="M525.3,167.5c1.9,0,2.3,1.5,2.3,2.3c0,0.3,0,0.8-0.5,0.8h-3.5c0,1.2,0.7,2,1.8,2c0.7,0,1.1-0.3,1.4-0.5
			c0.1,0,0.1-0.1,0.2-0.1c0.2,0,0.3,0.2,0.3,0.3s-0.1,0.2-0.1,0.3c-0.2,0.2-0.8,0.7-1.9,0.7c-1.6,0-2.6-0.9-2.6-2.9
			C522.8,168.5,523.7,167.5,525.3,167.5z M525.3,168.2c-1,0-1.6,0.7-1.7,1.7h3.2C526.8,169.1,526.5,168.2,525.3,168.2z"/>
		<path class="st2" d="M529.5,168.5c0.2-0.6,0.8-1,1.7-1c0.2,0,0.4,0.2,0.4,0.4s-0.2,0.4-0.4,0.4c-1.1,0-1.7,0.8-1.7,1.9v2.7
			c0,0.2-0.2,0.4-0.4,0.4s-0.4-0.2-0.4-0.4V168c0-0.2,0.2-0.4,0.4-0.4s0.4,0.2,0.4,0.4V168.5z"/>
		<path class="st2" d="M447.5,194c-0.1,0-0.1,0.1-0.2,0.1c-0.2,0-0.4-0.2-0.4-0.4c0-0.1,0.1-0.3,0.2-0.3l1.9-1.3
			c0.1-0.1,0.2-0.1,0.2-0.1c0.2,0,0.4,0.2,0.4,0.4v7.5c0,0.2-0.2,0.4-0.4,0.4s-0.4-0.2-0.4-0.4v-6.8L447.5,194z"/>
		<path class="st2" d="M455,196c0,1.3,3.2,0.8,3.2,2.7c0,1.1-0.9,1.6-2,1.6c-1,0-1.7-0.5-2.1-0.9c-0.1-0.1-0.1-0.1-0.1-0.2
			c0-0.2,0.2-0.3,0.3-0.3c0.1,0,0.2,0,0.3,0.1c0.4,0.4,0.9,0.6,1.5,0.6c0.7,0,1.3-0.2,1.3-0.9c0-1.2-3.2-0.7-3.2-2.7
			c0-1,0.8-1.5,1.8-1.5c0.8,0,1.5,0.3,1.8,0.8c0,0,0.1,0.1,0.1,0.2c0,0.2-0.2,0.3-0.3,0.3c-0.1,0-0.2,0-0.3-0.1
			c-0.3-0.3-0.7-0.5-1.3-0.5C455.5,195.3,455,195.4,455,196z"/>
		<path class="st2" d="M459.3,193c0-0.3,0.2-0.5,0.5-0.5s0.5,0.1,0.5,0.5c0,0.3-0.2,0.5-0.5,0.5S459.3,193.3,459.3,193z
			 M460.2,199.8c0,0.2-0.2,0.4-0.4,0.4s-0.4-0.2-0.4-0.4V195c0-0.2,0.2-0.4,0.4-0.4s0.4,0.2,0.4,0.4V199.8z"/>
		<path class="st2" d="M463.8,194.5c1.9,0,2.3,1.5,2.3,2.3c0,0.3,0,0.8-0.5,0.8h-3.5c0,1.2,0.7,2,1.8,2c0.7,0,1.1-0.3,1.4-0.5
			c0.1,0,0.1-0.1,0.2-0.1c0.2,0,0.3,0.2,0.3,0.3s-0.1,0.2-0.1,0.3c-0.2,0.2-0.8,0.7-1.9,0.7c-1.6,0-2.6-0.9-2.6-2.9
			C461.4,195.5,462.3,194.5,463.8,194.5z M463.8,195.2c-1,0-1.6,0.7-1.7,1.7h3.2C465.4,196.1,465.1,195.2,463.8,195.2z"/>
		<path class="st2" d="M468,196c0,1.3,3.2,0.8,3.2,2.7c0,1.1-0.9,1.6-2,1.6c-1,0-1.7-0.5-2.1-0.9c-0.1-0.1-0.1-0.1-0.1-0.2
			c0-0.2,0.2-0.3,0.3-0.3c0.1,0,0.2,0,0.3,0.1c0.4,0.4,0.9,0.6,1.5,0.6c0.7,0,1.3-0.2,1.3-0.9c0-1.2-3.2-0.7-3.2-2.7
			c0-1,0.8-1.5,1.8-1.5c0.8,0,1.5,0.3,1.8,0.8c0,0,0.1,0.1,0.1,0.2c0,0.2-0.2,0.3-0.3,0.3c-0.1,0-0.2,0-0.3-0.1
			c-0.3-0.3-0.7-0.5-1.3-0.5C468.5,195.3,468,195.4,468,196z"/>
		<path class="st2" d="M472.7,193.4c0-0.2,0.2-0.4,0.4-0.4c0.2,0,0.4,0.2,0.4,0.4v1.3h0.8c0.2,0,0.4,0.2,0.4,0.4s-0.2,0.4-0.4,0.4
			h-0.8v3.3c0,0.5,0.3,0.8,0.7,0.8c0.2,0,0.4,0.2,0.4,0.4s-0.2,0.4-0.4,0.4c-0.9,0-1.5-0.6-1.5-1.5v-3.3h-0.5
			c-0.2,0-0.4-0.2-0.4-0.4s0.2-0.4,0.4-0.4h0.5V193.4z"/>
		<path class="st2" d="M477.9,194.5c1.9,0,2.3,1.5,2.3,2.3c0,0.3,0,0.8-0.5,0.8h-3.5c0,1.2,0.7,2,1.8,2c0.7,0,1.1-0.3,1.4-0.5
			c0.1,0,0.1-0.1,0.2-0.1c0.2,0,0.3,0.2,0.3,0.3s-0.1,0.2-0.1,0.3c-0.2,0.2-0.8,0.7-1.9,0.7c-1.6,0-2.6-0.9-2.6-2.9
			C475.4,195.5,476.3,194.5,477.9,194.5z M477.9,195.2c-1,0-1.6,0.7-1.7,1.7h3.2C479.4,196.1,479.1,195.2,477.9,195.2z"/>
		<path class="st2" d="M488.9,197.4c0,2-1,2.9-2.5,2.9s-2.5-0.9-2.5-2.9s1-2.9,2.5-2.9S488.9,195.4,488.9,197.4z M488.1,197.4
			c0-1.5-0.6-2.2-1.7-2.2s-1.7,0.7-1.7,2.2s0.6,2.2,1.7,2.2S488.1,198.9,488.1,197.4z"/>
		<path class="st2" d="M491.1,195.4v4.4c0,0.2-0.2,0.4-0.4,0.4s-0.4-0.2-0.4-0.4v-4.4h-0.4c-0.2,0-0.4-0.2-0.4-0.4s0.2-0.4,0.4-0.4
			h0.4V194c0-1.1,0.6-2.1,2.1-2.1c0.2,0,0.4,0.2,0.4,0.4s-0.2,0.4-0.4,0.4c-0.9,0-1.3,0.6-1.3,1.3v0.7h2.4V194
			c0-1.1,0.6-2.1,2.1-2.1c0.2,0,0.4,0.2,0.4,0.4s-0.2,0.4-0.4,0.4c-0.9,0-1.3,0.6-1.3,1.3v0.7h1.1c0.2,0,0.4,0.2,0.4,0.4
			s-0.2,0.4-0.4,0.4h-1.1v4.4c0,0.2-0.2,0.4-0.4,0.4s-0.4-0.2-0.4-0.4v-4.4L491.1,195.4L491.1,195.4z"/>
		<path class="st2" d="M498.9,194.5c1.9,0,2.3,1.5,2.3,2.3c0,0.3,0,0.8-0.5,0.8h-3.5c0,1.2,0.7,2,1.8,2c0.7,0,1.1-0.3,1.4-0.5
			c0.1,0,0.1-0.1,0.2-0.1c0.2,0,0.3,0.2,0.3,0.3s-0.1,0.2-0.1,0.3c-0.2,0.2-0.8,0.7-1.9,0.7c-1.6,0-2.6-0.9-2.6-2.9
			C496.4,195.5,497.3,194.5,498.9,194.5z M498.9,195.2c-1,0-1.6,0.7-1.7,1.7h3.2C500.4,196.1,500.1,195.2,498.9,195.2z"/>
		<path class="st2" d="M503.1,195.5c0.2-0.6,0.8-1,1.7-1c0.2,0,0.4,0.2,0.4,0.4s-0.2,0.4-0.4,0.4c-1.1,0-1.7,0.8-1.7,1.9v2.7
			c0,0.2-0.2,0.4-0.4,0.4c-0.2,0-0.4-0.2-0.4-0.4V195c0-0.2,0.2-0.4,0.4-0.4c0.2,0,0.4,0.2,0.4,0.4V195.5z"/>
		<path class="st2" d="M506.4,193.4c0-0.2,0.2-0.4,0.4-0.4c0.2,0,0.4,0.2,0.4,0.4v1.3h0.8c0.2,0,0.4,0.2,0.4,0.4s-0.2,0.4-0.4,0.4
			h-0.8v3.3c0,0.5,0.3,0.8,0.7,0.8c0.2,0,0.4,0.2,0.4,0.4s-0.2,0.4-0.4,0.4c-0.9,0-1.5-0.6-1.5-1.5v-3.3h-0.5
			c-0.2,0-0.4-0.2-0.4-0.4s0.2-0.4,0.4-0.4h0.5V193.4z"/>
		<path class="st2" d="M511.5,194.5c1.9,0,2.3,1.5,2.3,2.3c0,0.3,0,0.8-0.5,0.8h-3.5c0,1.2,0.7,2,1.8,2c0.7,0,1.1-0.3,1.4-0.5
			c0.1,0,0.1-0.1,0.2-0.1c0.2,0,0.3,0.2,0.3,0.3s-0.1,0.2-0.1,0.3c-0.2,0.2-0.8,0.7-1.9,0.7c-1.6,0-2.6-0.9-2.6-2.9
			C509,195.5,510,194.5,511.5,194.5z M511.5,195.2c-1,0-1.6,0.7-1.7,1.7h3.2C513.1,196.1,512.8,195.2,511.5,195.2z"/>
		<path class="st2" d="M517.8,199.7c0-0.4,0.2-0.6,0.6-0.6c0.3,0,0.6,0.2,0.6,0.6s-0.2,0.6-0.6,0.6C518,200.2,517.8,200,517.8,199.7
			z M518.7,192.4l-0.2,5.6c0,0.1-0.1,0.2-0.2,0.2c-0.2,0-0.2-0.1-0.2-0.2l-0.2-5.6c0-0.3,0.1-0.4,0.4-0.4
			C518.6,192,518.8,192.1,518.7,192.4z"/>
		<path class="st2" d="M524.6,193.7l-0.7,1.1c-0.1,0.2-0.2,0.2-0.3,0.1c-0.1-0.1-0.2-0.2-0.1-0.3l0.8-1.1l-1.2-0.3
			c-0.2,0-0.2-0.1-0.2-0.3s0.2-0.2,0.3-0.2l1.3,0.4v-1.3c0-0.2,0.1-0.2,0.3-0.2s0.3,0.1,0.3,0.2v1.3l1.3-0.4c0.1,0,0.3,0,0.3,0.2
			s0,0.3-0.2,0.3l-1.2,0.3l0.8,1.1c0.1,0.1,0.1,0.3-0.1,0.3c-0.1,0.1-0.3,0.1-0.3-0.1L524.6,193.7z"/>
	</g>
	<polyline class="st4" points="512.4,224.7 408.8,224.7 408.8,14.6 579.2,14.6 579.2,174.9 	"/>
	<g>
		<polyline class="st3" points="425.8,72.7 428.6,76.1 435.1,69.7 		"/>
		<polyline class="st3" points="425.8,102.8 428.6,106.2 435.1,99.8 		"/>
		<polyline class="st3" points="425.8,143.9 428.6,147.3 435.1,140.9 		"/>
		<polyline class="st3" points="425.8,171.4 428.6,174.8 435.1,168.4 		"/>
		<g>
			<line class="st3" x1="430.9" y1="191.2" x2="430.9" y2="201.3"/>
			<line class="st3" x1="435.9" y1="196.3" x2="425.8" y2="196.3"/>
		</g>
	</g>
	<g id="_x34_uTCil.tif_2_">
	</g>
</g>
<g>
	<rect x="600.5" y="14.6" class="st5" width="170.4" height="124.5"/>
	<g>
		<path class="st0" d="M619.4,41.2l-1.3,3.3c-0.1,0.2-0.3,0.4-0.6,0.4s-0.6-0.3-0.6-0.6c0-0.1,0-0.2,0.1-0.3l4.4-11.1
			c0.1-0.2,0.3-0.4,0.6-0.4s0.5,0.2,0.6,0.4L627,44c0,0.1,0.1,0.2,0.1,0.3c0,0.3-0.3,0.6-0.6,0.6s-0.5-0.2-0.6-0.4l-1.3-3.3
			C624.6,41.2,619.4,41.2,619.4,41.2z M621.9,34.6l-2.1,5.5h4.3L621.9,34.6z M622.3,31.7l-1.7-1.8c-0.2-0.2-0.2-0.4,0.1-0.7
			c0.3-0.3,0.5-0.2,0.7,0l1.6,1.9c0.1,0.2,0.2,0.4-0.1,0.5C622.7,32,622.5,31.9,622.3,31.7z"/>
		<path class="st0" d="M641.9,43.7c0.3,0,0.6,0.3,0.6,0.6s-0.3,0.6-0.6,0.6h-5.5c-0.3,0-0.6-0.3-0.6-0.6v-11c0-0.3,0.3-0.6,0.6-0.6
			s0.6,0.3,0.6,0.6v10.5L641.9,43.7L641.9,43.7z"/>
		<path class="st0" d="M647.3,41.2l-1.3,3.3c-0.1,0.2-0.3,0.4-0.6,0.4s-0.6-0.3-0.6-0.6c0-0.1,0-0.2,0.1-0.3l4.4-11.1
			c0.1-0.2,0.3-0.4,0.6-0.4s0.5,0.2,0.6,0.4l4.4,11.1c0,0.1,0.1,0.2,0.1,0.3c0,0.3-0.3,0.6-0.6,0.6s-0.5-0.2-0.6-0.4l-1.3-3.3
			C652.5,41.2,647.3,41.2,647.3,41.2z M649.8,34.6l-2.1,5.5h4.3L649.8,34.6z"/>
		<path class="st0" d="M663,38.8c0-4.3,2.1-6.3,5.6-6.3c1.7,0,3.2,0.7,4.1,1.9c0.1,0.1,0.1,0.3,0.1,0.4c0,0.3-0.3,0.6-0.6,0.6
			c-0.2,0-0.3-0.1-0.5-0.2c-0.6-0.8-1.8-1.5-3.1-1.5c-2.8,0-4.4,1.7-4.4,5.2c0,3.7,1.6,5.2,4.4,5.2c1.2,0,2.4-0.5,3.1-1.5
			c0.1-0.2,0.3-0.2,0.5-0.2c0.3,0,0.6,0.3,0.6,0.6c0,0.1,0,0.2-0.1,0.3c-0.8,1.2-2.4,1.9-4.1,1.9C665.2,45.1,663,43.2,663,38.8z"/>
		<path class="st0" d="M677.9,41.2l-1.3,3.3c-0.1,0.2-0.3,0.4-0.6,0.4s-0.6-0.3-0.6-0.6c0-0.1,0-0.2,0.1-0.3l4.4-11.1
			c0.1-0.2,0.3-0.4,0.6-0.4s0.5,0.2,0.6,0.4l4.4,11.1c0,0.1,0.1,0.2,0.1,0.3c0,0.3-0.3,0.6-0.6,0.6s-0.5-0.2-0.6-0.4l-1.3-3.3
			C683.1,41.2,677.9,41.2,677.9,41.2z M680.4,34.6l-2.1,5.5h4.3L680.4,34.6z"/>
		<path class="st0" d="M689.9,44.3c0,0.3-0.3,0.6-0.6,0.6s-0.6-0.3-0.6-0.6v-11c0-0.3,0.3-0.6,0.6-0.6h3.6c2,0,3.4,1.5,3.4,3.4
			s-1.3,3.3-3.2,3.4l3.3,4.4c0.1,0.1,0.1,0.3,0.1,0.4c0,0.3-0.3,0.6-0.6,0.6c-0.2,0-0.4-0.1-0.5-0.3l-3.7-5.1h-1.8V44.3z
			 M689.9,38.5h3c1.3,0,2.2-1,2.2-2.3s-0.9-2.3-2.2-2.3h-3V38.5z"/>
		<path class="st0" d="M699.4,33.8c-0.3,0-0.6-0.3-0.6-0.6s0.3-0.6,0.6-0.6h7.7c0.3,0,0.6,0.3,0.6,0.6s-0.3,0.6-0.6,0.6h-3.2v10.5
			c0,0.3-0.3,0.6-0.6,0.6s-0.6-0.3-0.6-0.6V33.8H699.4z"/>
		<path class="st0" d="M711.4,44.8c-0.3,0-0.6-0.3-0.6-0.6V33.3c0-0.3,0.3-0.6,0.6-0.6h5.8c0.3,0,0.6,0.3,0.6,0.6s-0.3,0.6-0.6,0.6
			H712v4.3h4c0.3,0,0.6,0.3,0.6,0.6s-0.3,0.6-0.6,0.6h-4v4.4h5.4c0.3,0,0.6,0.3,0.6,0.6s-0.3,0.6-0.6,0.6h-6V44.8z"/>
	</g>
	<g>
		<path class="st2" d="M655.3,74.3c-0.1,0-0.1,0.1-0.2,0.1c-0.2,0-0.4-0.2-0.4-0.4c0-0.1,0.1-0.3,0.2-0.3l1.9-1.3
			c0.1-0.1,0.2-0.1,0.2-0.1c0.2,0,0.4,0.2,0.4,0.4v7.5c0,0.2-0.2,0.4-0.4,0.4s-0.4-0.2-0.4-0.4v-6.8L655.3,74.3z"/>
		<path class="st2" d="M663.8,76.9v3.2c0,0.2-0.2,0.4-0.4,0.4s-0.4-0.2-0.4-0.4v-3c0-0.9-0.3-1.6-1.4-1.6c-1.2,0-1.6,0.7-1.6,1.7v3
			c0,0.2-0.2,0.4-0.4,0.4s-0.4-0.2-0.4-0.4v-7.9c0-0.2,0.2-0.4,0.4-0.4s0.4,0.2,0.4,0.4v3.4c0.2-0.5,0.8-0.8,1.6-0.8
			C663.5,74.8,663.8,75.9,663.8,76.9z"/>
		<path class="st2" d="M671.8,75.6v-3.3c0-0.2,0.2-0.4,0.4-0.4s0.4,0.2,0.4,0.4v5.9c0,1.6-1,2.4-2.4,2.4c-1.5,0-2.5-0.9-2.5-2.9
			s0.9-2.9,2.4-2.9C670.9,74.8,671.5,75.2,671.8,75.6z M671.8,76.6c0,0-0.5-1.1-1.6-1.1s-1.7,0.7-1.7,2.2s0.6,2.2,1.7,2.2
			c0.9,0,1.6-0.5,1.6-1.7V76.6z"/>
		<path class="st2" d="M676.2,74.8c1.9,0,2.3,1.5,2.3,2.3c0,0.3,0,0.8-0.5,0.8h-3.5c0,1.2,0.7,2,1.8,2c0.7,0,1.1-0.3,1.4-0.5
			c0.1,0,0.1-0.1,0.2-0.1c0.2,0,0.3,0.2,0.3,0.3c0,0.1-0.1,0.2-0.1,0.3c-0.2,0.2-0.8,0.7-1.9,0.7c-1.6,0-2.6-0.9-2.6-2.9
			C673.8,75.8,674.7,74.8,676.2,74.8z M676.2,75.5c-1,0-1.6,0.7-1.7,1.7h3.2C677.8,76.4,677.5,75.5,676.2,75.5z"/>
		<path class="st2" d="M684.7,74.8c1.1,0,1.7,0.6,1.8,0.8c0.1,0.1,0.1,0.1,0.1,0.2c0,0.2-0.2,0.3-0.3,0.3s-0.2,0-0.3-0.1
			c-0.2-0.2-0.5-0.6-1.3-0.6c-1.1,0-1.7,0.7-1.7,2.2s0.6,2.2,1.7,2.2c0.7,0,1.1-0.3,1.4-0.5c0.1-0.1,0.1-0.1,0.2-0.1
			c0.2,0,0.3,0.2,0.3,0.3c0,0.1,0,0.2-0.2,0.3c-0.3,0.2-0.8,0.6-1.8,0.6c-1.5,0-2.5-0.9-2.5-2.9S683.1,74.8,684.7,74.8z"/>
		<path class="st2" d="M692.5,77.7c0,2-1,2.9-2.5,2.9s-2.5-0.9-2.5-2.9s1-2.9,2.5-2.9C691.6,74.8,692.5,75.7,692.5,77.7z
			 M691.8,77.7c0-1.5-0.6-2.2-1.7-2.2s-1.7,0.7-1.7,2.2s0.6,2.2,1.7,2.2S691.8,79.2,691.8,77.7z"/>
		<path class="st2" d="M696.3,77.7h-2.4c-0.2,0-0.3-0.1-0.3-0.3s0.1-0.3,0.3-0.3h2.4c0.2,0,0.3,0.1,0.3,0.3S696.5,77.7,696.3,77.7z"
			/>
		<path class="st2" d="M701.2,76.4l-1.1,3.8c0,0.2-0.2,0.3-0.4,0.3s-0.3-0.1-0.4-0.3l-1.8-4.8c0-0.1,0-0.1,0-0.2
			c0-0.2,0.2-0.4,0.4-0.4s0.3,0.1,0.4,0.3l1.4,4l1.1-4c0-0.1,0.2-0.3,0.4-0.3s0.3,0.1,0.4,0.3l1.1,4l1.4-4c0.1-0.2,0.2-0.3,0.4-0.3
			s0.4,0.2,0.4,0.4c0,0,0,0.1,0,0.2l-1.8,4.8c-0.1,0.2-0.2,0.3-0.4,0.3s-0.3-0.1-0.4-0.3L701.2,76.4z"/>
		<path class="st2" d="M710.5,77.7c0,2-1,2.9-2.5,2.9s-2.5-0.9-2.5-2.9s1-2.9,2.5-2.9C709.5,74.8,710.5,75.7,710.5,77.7z
			 M709.7,77.7c0-1.5-0.6-2.2-1.7-2.2s-1.7,0.7-1.7,2.2s0.6,2.2,1.7,2.2S709.7,79.2,709.7,77.7z"/>
		<path class="st2" d="M712.4,75.8c0.2-0.6,0.8-1,1.7-1c0.2,0,0.4,0.2,0.4,0.4c0,0.2-0.2,0.4-0.4,0.4c-1.1,0-1.7,0.8-1.7,1.9v2.7
			c0,0.2-0.2,0.4-0.4,0.4s-0.4-0.2-0.4-0.4v-4.9c0-0.2,0.2-0.4,0.4-0.4s0.4,0.2,0.4,0.4V75.8z"/>
		<path class="st2" d="M719,80.3l-2.1-2.7l-0.7,0.6v1.9c0,0.2-0.2,0.4-0.4,0.4s-0.4-0.2-0.4-0.4v-7.9c0-0.2,0.2-0.4,0.4-0.4
			s0.4,0.2,0.4,0.4v5L719,75c0.1-0.1,0.2-0.1,0.3-0.1c0.2,0,0.4,0.2,0.4,0.4c0,0.1,0,0.2-0.2,0.3l-2,1.6l2.1,2.7
			c0.1,0.1,0.1,0.2,0.1,0.2c0,0.2-0.2,0.4-0.4,0.4C719.2,80.5,719.1,80.5,719,80.3z"/>
		<path class="st2" d="M720.7,73.3c0-0.3,0.2-0.5,0.5-0.5s0.5,0.1,0.5,0.5c0,0.3-0.2,0.5-0.5,0.5S720.7,73.6,720.7,73.3z
			 M721.6,80.1c0,0.2-0.2,0.4-0.4,0.4s-0.4-0.2-0.4-0.4v-4.9c0-0.2,0.2-0.4,0.4-0.4s0.4,0.2,0.4,0.4V80.1z"/>
		<path class="st2" d="M727.7,76.9v3.2c0,0.2-0.2,0.4-0.4,0.4s-0.4-0.2-0.4-0.4v-3c0-0.9-0.3-1.6-1.4-1.6c-1.2,0-1.6,0.7-1.6,1.7v3
			c0,0.2-0.2,0.4-0.4,0.4s-0.4-0.2-0.4-0.4v-4.9c0-0.2,0.2-0.4,0.4-0.4s0.4,0.2,0.4,0.4v0.4c0.2-0.5,0.8-0.8,1.6-0.8
			C727.3,74.8,727.7,75.9,727.7,76.9z"/>
		<path class="st2" d="M732.4,75.1c0.2-0.4,0.5-0.6,1.1-0.6c0.2,0,0.3,0.2,0.3,0.3c0,0.2-0.2,0.3-0.3,0.3c-0.4,0-0.5,0.2-0.6,0.4
			c0.3,0.3,0.4,0.8,0.4,1.3c0,1.2-0.8,2-2.2,2c-0.5,0-1-0.1-1.3-0.3c-0.1,0.1-0.2,0.2-0.2,0.4c0,0.3,0.2,0.5,0.9,0.5h1.2
			c1.2,0,2.1,0.5,2.1,1.6c0,1.2-1.1,1.7-2.6,1.7c-1.2,0-2.6-0.4-2.6-1.7c0-0.6,0.3-1,0.9-1.2c-0.4-0.1-0.7-0.5-0.7-1
			c0-0.4,0.2-0.6,0.5-0.8c-0.3-0.4-0.4-0.8-0.4-1.3c0-1.2,0.8-2,2.2-2C731.6,74.8,732.1,74.9,732.4,75.1z M731.7,80.2h-1.2
			c-0.7,0.1-1,0.5-1,1c0,0.7,0.8,1,1.8,1c0.9,0,1.8-0.3,1.8-1.1C733,80.4,732.5,80.2,731.7,80.2z M732.5,76.8c0-0.8-0.5-1.3-1.4-1.3
			s-1.4,0.5-1.4,1.3s0.5,1.3,1.4,1.3C732,78.1,732.5,77.6,732.5,76.8z"/>
		<path class="st2" d="M655.7,105.3c0,1.3,3.2,0.8,3.2,2.7c0,1.1-0.9,1.6-2,1.6c-1,0-1.7-0.5-2.1-0.9c-0.1-0.1-0.1-0.1-0.1-0.2
			c0-0.2,0.2-0.3,0.3-0.3s0.2,0,0.3,0.1c0.4,0.4,0.9,0.6,1.5,0.6c0.7,0,1.3-0.2,1.3-0.9c0-1.2-3.2-0.7-3.2-2.7c0-1,0.8-1.5,1.8-1.5
			c0.8,0,1.5,0.3,1.8,0.8c0,0,0.1,0.1,0.1,0.2c0,0.2-0.2,0.3-0.3,0.3s-0.2,0-0.3-0.1c-0.3-0.3-0.7-0.5-1.3-0.5
			C656.2,104.6,655.7,104.7,655.7,105.3z"/>
		<path class="st2" d="M660,102.3c0-0.3,0.2-0.5,0.5-0.5s0.5,0.1,0.5,0.5c0,0.3-0.2,0.5-0.5,0.5S660,102.6,660,102.3z M660.9,109.1
			c0,0.2-0.2,0.4-0.4,0.4s-0.4-0.2-0.4-0.4v-4.9c0-0.2,0.2-0.4,0.4-0.4s0.4,0.2,0.4,0.4V109.1z"/>
		<path class="st2" d="M664.5,103.8c1.9,0,2.3,1.5,2.3,2.3c0,0.3,0,0.8-0.5,0.8h-3.5c0,1.2,0.7,2,1.8,2c0.7,0,1.1-0.3,1.4-0.5
			c0.1,0,0.1-0.1,0.2-0.1c0.2,0,0.3,0.2,0.3,0.3c0,0.1-0.1,0.2-0.1,0.3c-0.2,0.2-0.8,0.7-1.9,0.7c-1.6,0-2.6-0.9-2.6-2.9
			C662.1,104.8,663,103.8,664.5,103.8z M664.5,104.5c-1,0-1.6,0.7-1.7,1.7h3.2C666.1,105.4,665.8,104.5,664.5,104.5z"/>
		<path class="st2" d="M668.7,105.3c0,1.3,3.2,0.8,3.2,2.7c0,1.1-0.9,1.6-2,1.6c-1,0-1.7-0.5-2.1-0.9c-0.1-0.1-0.1-0.1-0.1-0.2
			c0-0.2,0.2-0.3,0.3-0.3s0.2,0,0.3,0.1c0.4,0.4,0.9,0.6,1.5,0.6c0.7,0,1.3-0.2,1.3-0.9c0-1.2-3.2-0.7-3.2-2.7c0-1,0.8-1.5,1.8-1.5
			c0.8,0,1.5,0.3,1.8,0.8c0,0,0.1,0.1,0.1,0.2c0,0.2-0.2,0.3-0.3,0.3s-0.2,0-0.3-0.1c-0.3-0.3-0.7-0.5-1.3-0.5
			C669.2,104.6,668.7,104.7,668.7,105.3z"/>
		<path class="st2" d="M673.4,102.7c0-0.2,0.2-0.4,0.4-0.4s0.4,0.2,0.4,0.4v1.3h0.8c0.2,0,0.4,0.2,0.4,0.4c0,0.2-0.2,0.4-0.4,0.4
			h-0.8v3.3c0,0.5,0.3,0.8,0.7,0.8c0.2,0,0.4,0.2,0.4,0.4c0,0.2-0.2,0.4-0.4,0.4c-0.9,0-1.5-0.6-1.5-1.5v-3.3h-0.5
			c-0.2,0-0.4-0.2-0.4-0.4c0-0.2,0.2-0.4,0.4-0.4h0.5L673.4,102.7L673.4,102.7z"/>
		<path class="st2" d="M678.6,103.8c1.9,0,2.3,1.5,2.3,2.3c0,0.3,0,0.8-0.5,0.8h-3.5c0,1.2,0.7,2,1.8,2c0.7,0,1.1-0.3,1.4-0.5
			c0.1,0,0.1-0.1,0.2-0.1c0.2,0,0.3,0.2,0.3,0.3c0,0.1-0.1,0.2-0.1,0.3c-0.2,0.2-0.8,0.7-1.9,0.7c-1.6,0-2.6-0.9-2.6-2.9
			C676.1,104.8,677,103.8,678.6,103.8z M678.6,104.5c-1,0-1.6,0.7-1.7,1.7h3.2C680.1,105.4,679.8,104.5,678.6,104.5z"/>
		<path class="st2" d="M686.9,100.6c0.1,0,0.1,0,0.2,0c0.2,0,0.3,0.2,0.3,0.3c0,0.1-0.1,0.2-0.2,0.3c-1.5,0.7-1.5,2.1-1.5,4.7
			c0,2.5,0.1,3.9,1.5,4.7c0.2,0.1,0.2,0.2,0.2,0.3c0,0.2-0.2,0.3-0.3,0.3s-0.1,0-0.2,0c-1.5-0.7-2-1.9-2-5.3
			S685.4,101.3,686.9,100.6z"/>
		<path class="st2" d="M696.7,105.9v3.2c0,0.2-0.2,0.4-0.4,0.4s-0.4-0.2-0.4-0.4v-3c0-0.9-0.3-1.6-1.5-1.6c-1,0-1.5,0.6-1.5,1.4v3.2
			c0,0.2-0.2,0.4-0.4,0.4s-0.4-0.2-0.4-0.4v-3c0-0.9-0.3-1.6-1.5-1.6c-1.1,0-1.5,0.7-1.5,1.7v3c0,0.2-0.2,0.4-0.4,0.4
			s-0.4-0.2-0.4-0.4v-4.9c0-0.2,0.2-0.4,0.4-0.4s0.4,0.2,0.4,0.4v0.4c0.2-0.4,0.8-0.8,1.6-0.8c1,0,1.6,0.4,1.9,0.8
			c0.3-0.5,0.8-0.8,1.8-0.8C696.3,103.8,696.7,104.9,696.7,105.9z"/>
		<path class="st2" d="M698.7,105.1c-0.1,0.1-0.2,0.2-0.3,0.2c-0.2,0-0.3-0.2-0.3-0.3c0-0.1,0-0.1,0.1-0.2c0.3-0.5,1-0.9,2-0.9
			c1.4,0,2.2,0.8,2.2,2v3.3c0,0.2-0.2,0.4-0.4,0.4s-0.4-0.2-0.4-0.4v-0.4c-0.3,0.6-1,0.9-1.7,0.9c-1.3,0-2.1-0.6-2.1-1.7
			s0.8-1.7,2.1-1.7h1.7V106c0-0.8-0.5-1.3-1.4-1.3C699.5,104.5,699.1,104.7,698.7,105.1z M701.6,107.3v-0.5h-1.7
			c-0.8,0-1.3,0.3-1.3,1c0,0.6,0.4,1,1.4,1C700.7,108.9,701.6,108.4,701.6,107.3z"/>
		<path class="st2" d="M705.4,107.2l-1.5,2.1c-0.1,0.1-0.2,0.2-0.3,0.2c-0.2,0-0.4-0.2-0.4-0.4c0-0.1,0-0.2,0.1-0.2l1.6-2.3
			l-1.6-2.1c0-0.1-0.1-0.1-0.1-0.2c0-0.2,0.2-0.4,0.4-0.4c0.1,0,0.2,0.1,0.3,0.2l1.5,2l1.5-2c0.1-0.1,0.2-0.2,0.3-0.2
			c0.2,0,0.4,0.2,0.4,0.4c0,0.1,0,0.2-0.1,0.2l-1.6,2.1l1.6,2.3c0,0.1,0.1,0.1,0.1,0.2c0,0.2-0.2,0.4-0.4,0.4c-0.1,0-0.2,0-0.3-0.2
			L705.4,107.2z"/>
		<path class="st2" d="M716.4,106.8c0.2,0,0.4,0.2,0.4,0.4c0,0.2-0.2,0.4-0.4,0.4h-0.7v1.6c0,0.2-0.2,0.4-0.4,0.4s-0.4-0.2-0.4-0.4
			v-1.6h-3.5c-0.2,0-0.4-0.2-0.4-0.4c0-0.1,0-0.2,0.1-0.2l3.9-5.5c0.1-0.1,0.2-0.2,0.3-0.2c0.2,0,0.4,0.2,0.4,0.4v5.2h0.7V106.8z
			 M714.9,106.8v-4l-2.8,4H714.9z"/>
		<path class="st2" d="M723.8,105.4c0,2.9-0.9,4.2-3,4.2c-2,0-3-1.3-3-4.2c0-2.9,0.9-4.2,3-4.2C722.9,101.2,723.8,102.5,723.8,105.4
			z M723,105.4c0-2.5-0.7-3.5-2.2-3.5s-2.2,1-2.2,3.5s0.7,3.5,2.2,3.5S723,107.9,723,105.4z"/>
		<path class="st2" d="M733.5,105.9v3.2c0,0.2-0.2,0.4-0.4,0.4s-0.4-0.2-0.4-0.4v-3c0-0.9-0.3-1.6-1.5-1.6c-1,0-1.5,0.6-1.5,1.4v3.2
			c0,0.2-0.2,0.4-0.4,0.4s-0.4-0.2-0.4-0.4v-3c0-0.9-0.3-1.6-1.5-1.6c-1.1,0-1.5,0.7-1.5,1.7v3c0,0.2-0.2,0.4-0.4,0.4
			s-0.4-0.2-0.4-0.4v-4.9c0-0.2,0.2-0.4,0.4-0.4s0.4,0.2,0.4,0.4v0.4c0.2-0.4,0.8-0.8,1.6-0.8c1,0,1.6,0.4,1.9,0.8
			c0.3-0.5,0.8-0.8,1.8-0.8C733.1,103.8,733.5,104.9,733.5,105.9z"/>
		<path class="st2" d="M734.9,102.3c0-0.3,0.2-0.5,0.5-0.5s0.5,0.1,0.5,0.5c0,0.3-0.2,0.5-0.5,0.5S734.9,102.6,734.9,102.3z
			 M735.7,109.1c0,0.2-0.2,0.4-0.4,0.4s-0.4-0.2-0.4-0.4v-4.9c0-0.2,0.2-0.4,0.4-0.4s0.4,0.2,0.4,0.4V109.1z"/>
		<path class="st2" d="M741.8,105.9v3.2c0,0.2-0.2,0.4-0.4,0.4s-0.4-0.2-0.4-0.4v-3c0-0.9-0.3-1.6-1.4-1.6c-1.2,0-1.6,0.7-1.6,1.7v3
			c0,0.2-0.2,0.4-0.4,0.4s-0.4-0.2-0.4-0.4v-4.9c0-0.2,0.2-0.4,0.4-0.4s0.4,0.2,0.4,0.4v0.4c0.2-0.5,0.8-0.8,1.6-0.8
			C741.5,103.8,741.8,104.9,741.8,105.9z"/>
		<path class="st2" d="M743.3,111.1c-0.1,0-0.1,0-0.2,0c-0.2,0-0.3-0.2-0.3-0.3c0-0.1,0.1-0.2,0.2-0.3c1.5-0.7,1.5-2.1,1.5-4.7
			c0-2.5-0.1-3.9-1.5-4.7c-0.2-0.1-0.2-0.2-0.2-0.3c0-0.2,0.2-0.3,0.3-0.3s0.1,0,0.2,0c1.5,0.7,2,1.9,2,5.3S744.8,110.5,743.3,111.1
			z"/>
	</g>
	<g>
		<path class="st1" d="M620.9,69.7c2.3,0,3.7,1.3,3.7,3.3c0,3.4-5.6,4.7-5.6,6.1h4.9c0.4,0,0.8,0.4,0.8,0.8s-0.4,0.8-0.8,0.8h-6.1
			c-0.4,0-0.8-0.4-0.8-0.8c0-3.5,5.7-3.9,5.7-6.9c0-0.9-0.7-1.7-1.9-1.7c-1,0-1.5,0.5-1.8,1.2c-0.2,0.3-0.5,0.5-0.8,0.5
			c-0.5,0-0.9-0.4-0.9-0.9c0-0.1,0-0.2,0.1-0.4C618,70.6,619.2,69.7,620.9,69.7z"/>
		<path class="st1" d="M628.8,77.1c0.4,1.5,1.3,2.1,2.9,2.1c1.2,0,1.8-0.3,2.6-1.1c0.3-0.3,0.5-0.4,0.7-0.4c0.5,0,0.9,0.4,0.9,0.9
			c0,0.2-0.1,0.4-0.2,0.5c-0.8,1-2.3,1.7-4,1.7c-2.6,0-4.3-1.2-4.9-3.8h-0.3c-0.4,0-0.7-0.3-0.7-0.7c0-0.4,0.3-0.7,0.7-0.7h0.1V75
			h-0.1c-0.4,0-0.7-0.3-0.7-0.7s0.3-0.7,0.7-0.7h0.3c0.5-2.7,2.2-4,4.9-4c1.9,0,3.2,0.8,3.8,1.7c0.1,0.2,0.2,0.4,0.2,0.5
			c0,0.5-0.4,0.8-0.9,0.8c-0.2,0-0.4-0.1-0.7-0.3c-0.6-0.7-1.3-1.1-2.5-1.1c-1.6,0-2.6,0.8-2.9,2.3h2c0.4,0,0.7,0.3,0.7,0.7
			s-0.3,0.7-0.7,0.7h-2.1v0.7h2.1c0.4,0,0.7,0.3,0.7,0.7c0,0.4-0.3,0.7-0.7,0.7h-1.9V77.1z"/>
		<path class="st1" d="M646.6,69.2c0.1-0.4,0.5-0.6,0.8-0.6c0.5,0,0.9,0.4,0.9,0.9c0,0.1,0,0.2-0.1,0.3L644,81.7
			c-0.1,0.4-0.5,0.6-0.8,0.6c-0.5,0-0.9-0.4-0.9-0.9c0-0.1,0-0.2,0.1-0.3L646.6,69.2z"/>
	</g>
	<g>
		<path class="st1" d="M624.2,106.7c0.4,0,0.8,0.4,0.8,0.8s-0.4,0.8-0.8,0.8h-0.6v1.5c0,0.5-0.4,0.9-0.9,0.9s-0.9-0.4-0.9-0.9v-1.5
			h-4.1c-0.4,0-0.8-0.4-0.8-0.8c0-0.2,0-0.3,0.1-0.4l4.9-6.9c0.2-0.2,0.4-0.4,0.8-0.4c0.5,0,0.9,0.4,0.9,0.9v6H624.2z M621.8,106.7
			V103l-2.5,3.7H621.8z"/>
		<path class="st1" d="M629,107.1c0.4,1.5,1.3,2.1,2.9,2.1c1.2,0,1.8-0.3,2.6-1.1c0.3-0.3,0.5-0.4,0.7-0.4c0.5,0,0.9,0.4,0.9,0.9
			c0,0.2-0.1,0.4-0.2,0.5c-0.8,1-2.3,1.7-4,1.7c-2.6,0-4.3-1.2-4.9-3.8h-0.3c-0.4,0-0.7-0.3-0.7-0.7c0-0.4,0.3-0.7,0.7-0.7h0.1V105
			h-0.1c-0.4,0-0.7-0.3-0.7-0.7c0-0.4,0.3-0.7,0.7-0.7h0.3c0.5-2.7,2.2-4,4.9-4c1.9,0,3.2,0.8,3.8,1.7c0.1,0.2,0.2,0.4,0.2,0.5
			c0,0.5-0.4,0.8-0.9,0.8c-0.2,0-0.4-0.1-0.7-0.3c-0.6-0.7-1.3-1.1-2.5-1.1c-1.6,0-2.6,0.8-2.9,2.3h2c0.4,0,0.7,0.3,0.7,0.7
			c0,0.4-0.3,0.7-0.7,0.7h-2.1v0.7h2.1c0.4,0,0.7,0.3,0.7,0.7c0,0.4-0.3,0.7-0.7,0.7H629V107.1z"/>
		<path class="st1" d="M646.7,99.2c0.1-0.4,0.5-0.6,0.8-0.6c0.5,0,0.9,0.4,0.9,0.9c0,0.1,0,0.2-0.1,0.3l-4.2,11.8
			c-0.1,0.4-0.5,0.6-0.8,0.6c-0.5,0-0.9-0.4-0.9-0.9c0-0.1,0-0.2,0.1-0.3L646.7,99.2z"/>
	</g>
	<g>
		<path class="st6" d="M627.7,151.8l-0.8,1.2c-0.1,0.2-0.2,0.2-0.4,0.1c-0.1-0.1-0.2-0.2-0.1-0.4l0.8-1.1l-1.3-0.3
			c-0.2,0-0.2-0.2-0.2-0.4s0.2-0.2,0.3-0.2l1.4,0.4l-0.1-1.4c0-0.2,0.1-0.3,0.3-0.3s0.3,0.1,0.3,0.3l-0.1,1.4l1.4-0.4
			c0.2-0.1,0.3,0,0.3,0.2s0,0.3-0.2,0.4l-1.3,0.3l0.8,1.1c0.1,0.1,0.1,0.3-0.1,0.4c-0.1,0.1-0.3,0.1-0.4-0.1L627.7,151.8z"/>
		<path class="st6" d="M633.9,155.6c0-3.6,1.9-5.8,5-5.8c2.1,0,3.4,1,3.4,3.3c0,3.6-1.9,5.8-5,5.8
			C635.1,158.9,633.9,157.9,633.9,155.6z M634.8,155.5c0,1.9,0.9,2.7,2.6,2.7c2.5,0,3.9-1.8,3.9-4.8c0-1.9-0.9-2.7-2.6-2.7
			C636.2,150.6,634.8,152.5,634.8,155.5z"/>
		<path class="st6" d="M644.3,158.4c0,0.2-0.3,0.4-0.5,0.4s-0.4-0.2-0.4-0.4l1.4-8c0-0.2,0.3-0.4,0.5-0.4h4.2c0.2,0,0.3,0.2,0.3,0.4
			s-0.2,0.5-0.5,0.5h-3.7l-0.6,3.2h2.9c0.2,0,0.3,0.2,0.3,0.4s-0.2,0.5-0.5,0.5H645L644.3,158.4z"/>
		<path class="st6" d="M651.5,158.4c0,0.2-0.3,0.4-0.5,0.4s-0.4-0.2-0.4-0.4l1.4-8c0-0.2,0.3-0.4,0.5-0.4h4.2c0.2,0,0.3,0.2,0.3,0.4
			s-0.2,0.5-0.5,0.5h-3.7l-0.6,3.2h2.9c0.2,0,0.3,0.2,0.3,0.4s-0.2,0.5-0.5,0.5H652L651.5,158.4z"/>
		<path class="st6" d="M658.7,158.4c0,0.2-0.3,0.4-0.5,0.4s-0.4-0.2-0.4-0.4l1.4-8c0-0.2,0.3-0.4,0.5-0.4h2.6c1.3,0,2.1,0.9,2.1,2.1
			c0,1.5-1.1,2.9-2.8,2.9l1.8,3.2c0,0.1,0.1,0.2,0.1,0.2c0,0.2-0.2,0.4-0.4,0.4c-0.1,0-0.3-0.1-0.4-0.2l-2-3.7h-1.4L658.7,158.4z
			 M659.5,154.2h2.2c1.2,0,1.9-0.9,1.9-2c0-0.8-0.5-1.4-1.3-1.4h-2.1L659.5,154.2z"/>
		<path class="st6" d="M665.8,158.7c-0.2,0-0.4-0.2-0.4-0.4l1.4-7.9c0-0.2,0.3-0.4,0.5-0.4h4.2c0.2,0,0.3,0.2,0.3,0.4
			s-0.2,0.5-0.5,0.5h-3.7l-0.5,3.1h2.9c0.2,0,0.3,0.2,0.3,0.4s-0.2,0.5-0.5,0.5H667l-0.6,3.2h3.9c0.2,0,0.3,0.2,0.3,0.4
			s-0.2,0.5-0.5,0.5h-4.3V158.7z"/>
		<path class="st6" d="M680,150c2.1,0,3.4,0.9,3.4,3.3c0,3.6-1.9,5.5-4.9,5.5h-1.8c-0.2,0-0.4-0.2-0.4-0.4l1.4-7.9
			c0-0.2,0.3-0.4,0.5-0.4h1.8V150z M677.2,157.9h1.4c2.4,0,3.9-1.5,3.9-4.5c0-1.9-1-2.6-2.6-2.6h-1.4L677.2,157.9z"/>
		<path class="st6" d="M684.9,158.7c-0.2,0-0.4-0.2-0.4-0.4l1.4-7.9c0-0.2,0.3-0.4,0.5-0.4h4.2c0.2,0,0.3,0.2,0.3,0.4
			s-0.2,0.5-0.5,0.5h-3.7l-0.5,3.1h2.9c0.2,0,0.3,0.2,0.3,0.4s-0.2,0.5-0.5,0.5H686l-0.6,3.2h3.9c0.2,0,0.3,0.2,0.3,0.4
			s-0.2,0.5-0.5,0.5h-4.2V158.7z"/>
		<path class="st6" d="M699.9,157.9c0.2,0,0.4,0.2,0.4,0.4c0,0.3-0.2,0.5-0.5,0.5h-4c-0.2,0-0.4-0.2-0.4-0.4l1.4-8
			c0-0.2,0.3-0.4,0.5-0.4c0.3,0,0.4,0.2,0.4,0.4l-1.3,7.6h3.5V157.9z"/>
		<path class="st6" d="M703.6,156.2l-1.4,2.4c-0.1,0.2-0.2,0.3-0.4,0.3s-0.4-0.2-0.4-0.4c0-0.1,0-0.2,0.1-0.3l4.6-8
			c0.1-0.2,0.2-0.3,0.5-0.3c0.2,0,0.4,0.1,0.4,0.3l1.7,8c0,0.1,0,0.1,0,0.2c0,0.3-0.2,0.5-0.5,0.5c-0.2,0-0.4-0.1-0.4-0.3l-0.5-2.4
			H703.6z M706.3,151.4l-2.2,4h3.1L706.3,151.4z"/>
		<path class="st6" d="M718,150.3l-1.4,8.1c0,0.2-0.3,0.4-0.5,0.4s-0.3-0.1-0.3-0.2l-3.3-7.1l-1.2,6.9c0,0.2-0.2,0.4-0.5,0.4
			c-0.2,0-0.4-0.2-0.4-0.4l1.4-8.1c0-0.2,0.2-0.4,0.5-0.4c0.2,0,0.3,0.1,0.4,0.2l3.4,7.1l1.2-6.9c0-0.2,0.2-0.4,0.5-0.4
			C717.9,149.9,718.1,150.1,718,150.3z"/>
		<path class="st6" d="M719.1,155.6c0-3.7,1.9-5.8,4.9-5.8c1.3,0,2.3,0.6,2.7,1.4c0,0.1,0.1,0.1,0.1,0.2c0,0.2-0.2,0.4-0.4,0.4
			c-0.1,0-0.2,0-0.3-0.2c-0.5-0.8-1.2-1.1-2.1-1.1c-2.4,0-3.9,1.8-3.9,4.8c0,1.9,0.9,2.7,2.6,2.7c0.9,0,1.8-0.4,2.4-1.1
			c0.1-0.1,0.2-0.2,0.3-0.2c0.2,0,0.4,0.2,0.4,0.4c0,0.1,0,0.2-0.1,0.3c-0.7,0.8-2,1.3-3.2,1.3C720.4,158.9,719.1,157.9,719.1,155.6
			z"/>
		<path class="st6" d="M728.1,158.7c-0.2,0-0.4-0.2-0.4-0.4l1.4-7.9c0-0.2,0.3-0.4,0.5-0.4h4.2c0.2,0,0.3,0.2,0.3,0.4
			s-0.2,0.5-0.5,0.5h-3.7l-0.5,3.1h2.9c0.2,0,0.3,0.2,0.3,0.4s-0.2,0.5-0.5,0.5h-2.9l-0.6,3.2h3.9c0.2,0,0.3,0.2,0.3,0.4
			s-0.2,0.5-0.5,0.5h-4.2V158.7z"/>
		<path class="st6" d="M738.6,157.1l-1.8-5.1l-1.1,6.4c0,0.2-0.3,0.4-0.5,0.4s-0.4-0.2-0.4-0.4l1.4-8.1c0-0.2,0.2-0.4,0.5-0.4
			c0.2,0,0.3,0.1,0.4,0.3l2.1,5.9l4.2-5.9c0.1-0.1,0.2-0.2,0.5-0.2s0.4,0.2,0.4,0.4l-1.4,8.1c0,0.2-0.3,0.4-0.5,0.4
			s-0.4-0.2-0.4-0.4l1.1-6.4l-3.6,5.1c-0.1,0.2-0.3,0.2-0.4,0.2C738.8,157.3,738.6,157.3,738.6,157.1z"/>
		<path class="st6" d="M745.7,158.7c-0.2,0-0.4-0.2-0.4-0.4l1.4-7.9c0-0.2,0.3-0.4,0.5-0.4h4.2c0.2,0,0.3,0.2,0.3,0.4
			s-0.2,0.5-0.5,0.5h-3.7L747,154h2.9c0.2,0,0.3,0.2,0.3,0.4s-0.2,0.5-0.5,0.5h-2.9l-0.6,3.2h3.9c0.2,0,0.3,0.2,0.3,0.4
			s-0.2,0.5-0.5,0.5h-4.2V158.7z"/>
		<path class="st6" d="M760,150.3l-1.4,8.1c0,0.2-0.3,0.4-0.5,0.4s-0.3-0.1-0.3-0.2l-3.3-7.1l-1.2,6.9c0,0.2-0.2,0.4-0.5,0.4
			c-0.2,0-0.4-0.2-0.4-0.4l1.4-8.1c0-0.2,0.2-0.4,0.5-0.4c0.2,0,0.3,0.1,0.4,0.2l3.4,7.1l1.2-6.9c0-0.2,0.2-0.4,0.5-0.4
			C759.9,149.9,760,150.1,760,150.3z"/>
		<path class="st6" d="M762,150.8c-0.2,0-0.4-0.2-0.4-0.4c0-0.3,0.2-0.5,0.5-0.5h5.5c0.2,0,0.4,0.2,0.4,0.4c0,0.3-0.2,0.5-0.5,0.5
			h-2.3l-1.3,7.6c0,0.2-0.3,0.4-0.5,0.4s-0.4-0.2-0.4-0.4l1.3-7.6H762z"/>
	</g>
</g>
<g id="Dur68u.tif">
	
		<image style="overflow:visible;" width="979" height="782" id="Calque_1_2_" xlink:href="25588618535B6C23.png"  transform="matrix(9.191903e-02 0 0 9.191903e-02 521.474 178.9588)">
	</image>
</g>
<g id="vS0uep.tif">
	
		<image style="overflow:visible;" width="1124" height="833" id="Calque_1_3_" xlink:href="25588618535B6C21.png"  transform="matrix(9.930970e-02 0 0 9.930970e-02 118.5024 146.6655)">
	</image>
</g>
</svg>
